M48
; DRILL file {KiCad 7.0.9} date Thu Jun 13 00:59:38 2024
; FORMAT={-:-/ absolute / metric / decimal}
; #@! TF.CreationDate,2024-06-13T00:59:38+05:30
; #@! TF.GenerationSoftware,Kicad,Pcbnew,7.0.9
; #@! TF.FileFunction,MixedPlating,1,2
FMAT,2
METRIC
; #@! TA.AperFunction,Plated,PTH,ViaDrill
T1C0.400
; #@! TA.AperFunction,Plated,PTH,ComponentDrill
T2C0.600
; #@! TA.AperFunction,Plated,PTH,ComponentDrill
T3C0.750
; #@! TA.AperFunction,Plated,PTH,ComponentDrill
T4C0.813
; #@! TA.AperFunction,Plated,PTH,ComponentDrill
T5C1.000
; #@! TA.AperFunction,Plated,PTH,ComponentDrill
T6C1.092
; #@! TA.AperFunction,Plated,PTH,ComponentDrill
T7C1.100
; #@! TA.AperFunction,Plated,PTH,ComponentDrill
T8C1.500
; #@! TA.AperFunction,Plated,PTH,ComponentDrill
T9C4.000
; #@! TA.AperFunction,NonPlated,NPTH,ComponentDrill
T10C0.750
; #@! TA.AperFunction,NonPlated,NPTH,ComponentDrill
T11C0.900
; #@! TA.AperFunction,NonPlated,NPTH,ComponentDrill
T12C1.200
; #@! TA.AperFunction,NonPlated,NPTH,ComponentDrill
T13C1.700
; #@! TA.AperFunction,NonPlated,NPTH,ComponentDrill
T14C1.900
; #@! TA.AperFunction,NonPlated,NPTH,ComponentDrill
T15C2.200
; #@! TA.AperFunction,NonPlated,NPTH,ComponentDrill
T16C3.000
; #@! TA.AperFunction,NonPlated,NPTH,ComponentDrill
T17C4.100
%
G90
G05
T1
X64.4Y-107.05
X65.15Y-73.75
X65.545Y-89.8
X65.545Y-91.45
X66.272Y-102.45
X66.3Y-121.55
X66.764Y-71.764
X66.8Y-83.478
X68.0Y-71.25
X68.302Y-109.225
X68.326Y-90.35
X68.449Y-108.197
X69.95Y-88.153
X72.8Y-84.55
X72.977Y-103.55
X73.05Y-106.2
X77.06Y-89.65
X77.115Y-108.065
X77.298Y-70.79
X77.45Y-110.181
X77.9Y-88.55
X78.261Y-71.111
X79.679Y-112.1
X85.35Y-109.4
X86.026Y-59.55
X86.029Y-71.55
X86.029Y-90.65
X87.092Y-59.512
X87.455Y-78.577
X87.464Y-97.336
X89.175Y-75.925
X89.388Y-95.888
X91.1Y-110.315
X91.792Y-91.55
X91.85Y-94.25
X92.325Y-72.6
X94.5Y-57.4
X96.087Y-97.465
X96.494Y-59.09
X96.555Y-78.677
X97.205Y-97.465
X97.7Y-58.5
X97.75Y-78.65
X98.729Y-101.25
X100.322Y-97.822
X101.95Y-103.596
X102.7Y-93.6
X102.748Y-72.45
X102.748Y-75.176
X102.748Y-90.9
X102.75Y-56.576
X103.538Y-57.45
X103.538Y-70.05
X103.538Y-77.8
X103.538Y-89.4
X103.538Y-96.95
X104.35Y-103.55
X104.372Y-65.45
X104.372Y-84.6
X104.4Y-111.95
X104.85Y-54.05
X105.35Y-91.6
X105.55Y-73.626
X105.803Y-53.749
X106.302Y-72.578
X106.377Y-91.6
X110.842Y-66.6
X110.876Y-85.55
X110.9Y-88.2
X112.45Y-129.1
X113.564Y-117.178
X113.807Y-55.844
X114.1Y-119.7
X114.917Y-90.228
X115.11Y-91.716
X115.26Y-53.85
X115.95Y-72.15
X117.05Y-72.0
X117.779Y-94.15
X119.3Y-82.35
X119.3Y-106.95
X122.85Y-116.5
X123.422Y-71.75
X123.422Y-74.85
X123.422Y-90.8
X123.45Y-110.05
X123.7Y-59.75
X124.148Y-78.7
X124.2Y-97.85
X124.3Y-116.496
X125.15Y-129.45
X125.2Y-59.8
X125.5Y-78.8
X125.652Y-97.814
X129.5Y-110.009
X129.892Y-91.85
X129.892Y-94.5
X130.325Y-72.95
X134.191Y-97.259
X134.35Y-59.95
X134.4Y-78.8
X135.228Y-97.793
X135.25Y-59.14
X135.861Y-78.839
X136.809Y-122.9
X136.829Y-100.7
X137.338Y-132.682
X137.35Y-81.85
X137.535Y-119.814
X137.7Y-131.75
X138.35Y-98.55
X138.8Y-65.05
X139.55Y-80.057
X139.55Y-99.05
X142.472Y-93.4
X142.5Y-112.35
X143.198Y-100.4
X143.3Y-63.15
X143.6Y-74.35
X144.2Y-62.55
X144.65Y-81.7
X144.679Y-99.977
X146.133Y-122.4
X146.452Y-83.9
X146.923Y-121.268
X148.25Y-122.002
X148.942Y-75.4
X148.942Y-94.45
X148.942Y-97.05
X151.25Y-64.3
X151.4Y-79.2
X152.9Y-80.0
X153.816Y-100.366
X154.4Y-62.5
X154.65Y-130.659
X154.7Y-133.15
X154.968Y-100.246
X155.879Y-102.7
X155.975Y-79.4
X156.629Y-81.473
X157.44Y-76.0
X157.465Y-71.351
X157.5Y-92.3
X157.55Y-114.03
X157.85Y-63.5
X158.276Y-122.248
X158.3Y-126.25
X159.073Y-78.7
X159.5Y-120.773
X159.95Y-101.5
X159.979Y-125.991
X160.15Y-66.0
X160.673Y-86.6
X161.088Y-127.138
X161.2Y-122.8
X162.15Y-83.85
X162.2Y-120.15
X162.2Y-126.712
X163.45Y-110.7
X163.45Y-126.45
X168.476Y-127.6
X168.6Y-62.877
X168.6Y-65.48
X168.6Y-66.919
X168.6Y-70.398
X168.6Y-88.385
X168.6Y-90.848
X168.6Y-73.1
X168.6Y-75.6
X168.6Y-78.2
X168.6Y-83.3
X168.6Y-85.8
X168.649Y-80.942
X168.65Y-91.91
X169.323Y-69.251
X169.526Y-71.7
X169.58Y-67.7
X169.609Y-74.553
X169.63Y-79.226
X169.73Y-95.21
X172.3Y-95.2
X172.35Y-74.581
X172.583Y-72.576
X172.932Y-76.202
X173.4Y-68.0
X173.4Y-72.0
X173.4Y-80.669
X173.4Y-90.848
X173.4Y-61.752
X173.4Y-64.274
X173.4Y-74.569
X173.4Y-77.9
X173.4Y-79.558
X173.4Y-82.123
X173.4Y-84.623
X173.4Y-87.152
X173.4Y-89.766
X174.1Y-125.152
X174.8Y-113.3
X175.638Y-101.339
X175.95Y-110.75
X177.3Y-126.1
X177.843Y-97.55
X179.15Y-99.55
X179.4Y-117.7
X180.2Y-64.1
X180.2Y-70.9
X182.04Y-106.45
X182.1Y-117.75
X183.0Y-117.1
X183.0Y-118.4
X183.1Y-66.4
T2
X65.0Y-84.0
X65.0Y-86.1
X65.0Y-88.0
T3
X159.2Y-67.3
X161.2Y-67.3
T4
X68.99Y-84.6
X68.99Y-103.6
X68.99Y-106.2
X76.61Y-84.6
X76.61Y-103.6
X76.61Y-106.2
X87.99Y-72.6
X87.99Y-91.6
X87.99Y-94.2
X95.61Y-72.6
X95.61Y-91.6
X95.61Y-94.2
X106.79Y-66.6
X106.99Y-85.6
X106.99Y-88.2
X114.41Y-66.6
X114.61Y-85.6
X114.61Y-88.2
X125.99Y-72.939
X125.99Y-91.935
X125.99Y-94.485
X126.04Y-111.035
X133.61Y-72.939
X133.61Y-91.935
X133.61Y-94.485
X133.66Y-111.035
X144.79Y-75.439
X144.99Y-94.435
X145.0Y-97.039
X145.09Y-113.585
X152.41Y-75.439
X152.61Y-94.435
X152.62Y-97.039
X152.71Y-113.585
X167.19Y-103.5
X167.19Y-109.5
X174.81Y-103.5
X174.81Y-109.5
T5
X163.5Y-104.0
X163.5Y-106.5
X163.5Y-109.0
X178.0Y-104.0
X178.0Y-109.0
T6
X165.92Y-94.3
X168.46Y-94.3
X171.0Y-94.3
X173.54Y-94.3
X176.08Y-94.3
T7
X163.38Y-62.33
X163.38Y-64.87
X163.38Y-67.41
X163.38Y-69.95
X163.38Y-72.49
X163.38Y-75.03
X163.38Y-77.57
X163.38Y-80.11
X163.38Y-82.65
X163.38Y-85.19
X163.38Y-87.73
X163.38Y-90.27
X178.62Y-62.33
X178.62Y-64.87
X178.62Y-67.41
X178.62Y-69.95
X178.62Y-72.49
X178.62Y-75.03
X178.62Y-77.57
X178.62Y-80.11
X178.62Y-82.65
X178.62Y-85.19
X178.62Y-87.73
X178.62Y-90.27
T9
X82.5Y-74.025
X82.5Y-93.1
X129.65Y-120.05
X140.0Y-76.504
X151.0Y-128.75
T10
X180.6Y-67.5
X183.35Y-67.5
T11
X176.5Y-127.25
X178.428Y-124.952
T12
X173.7Y-117.7
X180.7Y-117.7
T13
X68.179Y-76.521
X68.179Y-95.571
X68.179Y-114.621
X77.179Y-76.521
X77.179Y-95.571
X77.179Y-114.621
X87.229Y-64.521
X87.229Y-83.571
X87.229Y-102.631
X96.229Y-64.521
X96.229Y-83.571
X96.229Y-102.631
X106.279Y-58.521
X106.279Y-77.571
X106.279Y-96.621
X113.565Y-122.171
X115.279Y-58.521
X115.279Y-77.571
X115.279Y-96.621
X122.565Y-122.171
X125.329Y-64.86
X125.329Y-83.91
X125.329Y-102.96
X134.329Y-64.86
X134.329Y-83.91
X134.329Y-102.96
X135.571Y-124.461
X144.029Y-127.539
X144.379Y-67.36
X144.379Y-86.41
X144.379Y-105.46
X153.379Y-67.36
X153.379Y-86.41
X153.379Y-105.46
X159.107Y-136.947
X164.893Y-130.053
T14
X67.599Y-76.521
X67.599Y-95.571
X67.599Y-114.621
X77.759Y-76.521
X77.759Y-95.571
X77.759Y-114.621
X86.649Y-64.521
X86.649Y-83.571
X86.649Y-102.631
X96.809Y-64.521
X96.809Y-83.571
X96.809Y-102.631
X105.699Y-58.521
X105.699Y-77.571
X105.699Y-96.621
X112.985Y-122.171
X115.859Y-58.521
X115.859Y-77.571
X115.859Y-96.621
X123.145Y-122.171
X124.749Y-64.86
X124.749Y-83.91
X124.749Y-102.96
X134.909Y-64.86
X134.909Y-83.91
X134.909Y-102.96
X135.026Y-124.263
X143.799Y-67.36
X143.799Y-86.41
X143.799Y-105.46
X144.574Y-127.737
X153.959Y-67.36
X153.959Y-86.41
X153.959Y-105.46
X158.735Y-137.392
X165.265Y-129.608
T15
X161.5Y-96.0
X180.5Y-96.0
T16
X68.869Y-79.061
X68.869Y-98.111
X68.869Y-117.161
X70.139Y-81.601
X70.139Y-100.651
X70.139Y-119.701
X75.219Y-81.601
X75.219Y-100.651
X75.219Y-119.701
X76.489Y-79.061
X76.489Y-98.111
X76.489Y-117.161
X87.919Y-67.061
X87.919Y-86.111
X87.919Y-105.171
X89.189Y-69.601
X89.189Y-88.651
X89.189Y-107.711
X94.269Y-69.601
X94.269Y-88.651
X94.269Y-107.711
X95.539Y-67.061
X95.539Y-86.111
X95.539Y-105.171
X106.969Y-61.061
X106.969Y-80.111
X106.969Y-99.161
X108.239Y-63.601
X108.239Y-82.651
X108.239Y-101.701
X113.319Y-63.601
X113.319Y-82.651
X113.319Y-101.701
X114.255Y-124.711
X114.589Y-61.061
X114.589Y-80.111
X114.589Y-99.161
X115.525Y-127.251
X120.605Y-127.251
X121.875Y-124.711
X126.019Y-67.4
X126.019Y-86.45
X126.019Y-105.5
X127.289Y-69.94
X127.289Y-88.99
X127.289Y-108.04
X132.369Y-69.94
X132.369Y-88.99
X132.369Y-108.04
X133.639Y-67.4
X133.639Y-86.45
X133.639Y-105.5
X135.351Y-127.084
X135.676Y-129.905
X140.449Y-131.642
X142.511Y-129.69
X145.069Y-69.9
X145.069Y-88.95
X145.069Y-108.0
X146.339Y-72.44
X146.339Y-91.49
X146.339Y-110.54
X151.419Y-72.44
X151.419Y-91.49
X151.419Y-110.54
X152.689Y-69.9
X152.689Y-88.95
X152.689Y-108.0
X161.497Y-138.051
X164.259Y-138.711
X166.395Y-132.214
X167.524Y-134.82
T17
X72.679Y-76.521
X72.679Y-95.571
X72.679Y-114.621
X91.729Y-64.521
X91.729Y-83.571
X91.729Y-102.631
X110.779Y-58.521
X110.779Y-77.571
X110.779Y-96.621
X118.065Y-122.171
X129.829Y-64.86
X129.829Y-83.91
X129.829Y-102.96
X139.8Y-126.0
X148.879Y-67.36
X148.879Y-86.41
X148.879Y-105.46
X162.0Y-133.5
T5
G00X170.15Y-115.6
M15
G01X172.15Y-115.6
M16
G05
G00X170.15Y-119.8
M15
G01X172.15Y-119.8
M16
G05
G00X175.65Y-115.6
M15
G01X176.15Y-115.6
M16
G05
G00X176.15Y-119.8
M15
G01X175.65Y-119.8
M16
G05
G00X178.65Y-115.6
M15
G01X179.15Y-115.6
M16
G05
G00X179.15Y-119.8
M15
G01X178.65Y-119.8
M16
G05
T8
G00X170.35Y-100.9
M15
G01X171.65Y-100.9
M16
G05
G00X170.35Y-112.1
M15
G01X171.65Y-112.1
M16
G05
T0
M30
