%TF.GenerationSoftware,KiCad,Pcbnew,7.0.9*%
%TF.CreationDate,2024-06-13T00:59:38+05:30*%
%TF.ProjectId,UniFi,556e6946-692e-46b6-9963-61645f706362,rev?*%
%TF.SameCoordinates,Original*%
%TF.FileFunction,Profile,NP*%
%FSLAX46Y46*%
G04 Gerber Fmt 4.6, Leading zero omitted, Abs format (unit mm)*
G04 Created by KiCad (PCBNEW 7.0.9) date 2024-06-13 00:59:38*
%MOMM*%
%LPD*%
G01*
G04 APERTURE LIST*
%TA.AperFunction,Profile*%
%ADD10C,0.200000*%
%TD*%
%TA.AperFunction,Profile*%
%ADD11C,0.100000*%
%TD*%
%TA.AperFunction,Profile*%
%ADD12C,0.050000*%
%TD*%
G04 APERTURE END LIST*
D10*
X138853554Y-56335046D02*
G75*
G03*
X138353553Y-55835046I-499954J46D01*
G01*
X119803553Y-55335046D02*
X119803553Y-49996447D01*
X145902719Y-137886080D02*
G75*
G03*
X145439608Y-137644995I-1146919J-1637820D01*
G01*
X127391965Y-131196447D02*
X118064444Y-131196447D01*
X119803553Y-49996447D02*
G75*
G03*
X119303553Y-49496447I-499953J47D01*
G01*
X83203553Y-55496447D02*
X91728553Y-55496447D01*
X119803555Y-55335046D02*
G75*
G03*
X120303552Y-55835045I500045J46D01*
G01*
X183894900Y-58800000D02*
G75*
G03*
X183395000Y-58300000I-499900J100D01*
G01*
X101253554Y-55496454D02*
G75*
G03*
X101753554Y-54996447I-154J500154D01*
G01*
X108910225Y-130891561D02*
X100882773Y-111951332D01*
X91728553Y-111646446D02*
X82203553Y-111646446D01*
X183900000Y-105900000D02*
X183900000Y-118400000D01*
X129828553Y-55835046D02*
X138353553Y-55835046D01*
X181674447Y-124137024D02*
X181989419Y-123782099D01*
X110778553Y-49496447D02*
X119303553Y-49496447D01*
X139353553Y-58335046D02*
X148878553Y-58335046D01*
X83203553Y-55496453D02*
G75*
G03*
X82703553Y-55996447I-153J-499847D01*
G01*
X108910212Y-130891566D02*
G75*
G03*
X109370584Y-131196447I460388J195166D01*
G01*
X127909601Y-131264601D02*
G75*
G03*
X127391965Y-131196447I-517601J-1931399D01*
G01*
X102253553Y-49496447D02*
X110778553Y-49496447D01*
X82703553Y-66996447D02*
X82703553Y-55996447D01*
X183900000Y-105900000D02*
X183895000Y-104400000D01*
X72678553Y-123646447D02*
X64153553Y-123646447D01*
X157900000Y-58300000D02*
X158895050Y-58300000D01*
X82203553Y-67496452D02*
G75*
G03*
X82703552Y-66996448I47J499952D01*
G01*
X81203554Y-123646454D02*
G75*
G03*
X81703554Y-123146447I-154J500154D01*
G01*
X63653553Y-123146447D02*
X63653553Y-67996448D01*
X181989406Y-123782088D02*
G75*
G03*
X183900000Y-118400000I-5952606J5143288D01*
G01*
X64153553Y-67496447D02*
X72678553Y-67496447D01*
X120303553Y-55835046D02*
X129828553Y-55835046D01*
X91728553Y-55496447D02*
X101253554Y-55496447D01*
X159685028Y-149454925D02*
X159500000Y-149300000D01*
X158895050Y-58300000D02*
X183395000Y-58300000D01*
X82203553Y-111646454D02*
G75*
G03*
X81703554Y-112146447I-153J-499846D01*
G01*
X138853554Y-57835046D02*
G75*
G03*
X139353553Y-58335046I500046J46D01*
G01*
X157900000Y-58300000D02*
X148878553Y-58335046D01*
X100882791Y-111951325D02*
G75*
G03*
X100422413Y-111646447I-460391J-195175D01*
G01*
X181674447Y-124137024D02*
X160389445Y-149393296D01*
X81703554Y-112146446D02*
X81703554Y-123146447D01*
X101753553Y-54996447D02*
X101753553Y-49996447D01*
X118064444Y-131196447D02*
X109370584Y-131196447D01*
X81203554Y-123646447D02*
X72678553Y-123646447D01*
X159685009Y-149454948D02*
G75*
G03*
X160389444Y-149393295I321391J383048D01*
G01*
X72678553Y-67496447D02*
X82203553Y-67496447D01*
X64153553Y-67496353D02*
G75*
G03*
X63653553Y-67996447I47J-500047D01*
G01*
X145439608Y-137644995D02*
X127909603Y-131264595D01*
X159500000Y-149300000D02*
X145902721Y-137886077D01*
X63653553Y-123146447D02*
G75*
G03*
X64153553Y-123646447I500047J47D01*
G01*
X138853553Y-56335046D02*
X138853553Y-57835046D01*
X183894946Y-58800000D02*
X183895000Y-104400000D01*
X100422414Y-111646446D02*
X91728553Y-111646446D01*
X102253553Y-49496453D02*
G75*
G03*
X101753553Y-49996447I-153J-499847D01*
G01*
D11*
%TO.C,SW5*%
X147178600Y-60780000D02*
X147178600Y-63780000D01*
X149578600Y-60780000D02*
X148178600Y-60780000D01*
X149578600Y-63780000D02*
X148178600Y-63780000D01*
X150578600Y-63780000D02*
X150578600Y-60780000D01*
X148178600Y-60780000D02*
G75*
G03*
X147178600Y-60780000I-500000J0D01*
G01*
X147178600Y-63780000D02*
G75*
G03*
X148178600Y-63780000I500000J0D01*
G01*
X150578600Y-60780000D02*
G75*
G03*
X149578600Y-60780000I-500000J0D01*
G01*
X149578600Y-63780000D02*
G75*
G03*
X150578600Y-63780000I500000J0D01*
G01*
%TO.C,SW14*%
X128128600Y-96380000D02*
X128128600Y-99380000D01*
X130528600Y-96380000D02*
X129128600Y-96380000D01*
X130528600Y-99380000D02*
X129128600Y-99380000D01*
X131528600Y-99380000D02*
X131528600Y-96380000D01*
X129128600Y-96380000D02*
G75*
G03*
X128128600Y-96380000I-500000J0D01*
G01*
X128128600Y-99380000D02*
G75*
G03*
X129128600Y-99380000I500000J0D01*
G01*
X131528600Y-96380000D02*
G75*
G03*
X130528600Y-96380000I-500000J0D01*
G01*
X130528600Y-99380000D02*
G75*
G03*
X131528600Y-99380000I500000J0D01*
G01*
%TO.C,SW18*%
X155866689Y-130572733D02*
X158164822Y-132501096D01*
X157409379Y-128734226D02*
X156509476Y-129806689D01*
X159707512Y-130662589D02*
X158807610Y-131735051D01*
X160350300Y-129896545D02*
X158052167Y-127968182D01*
X156509475Y-129806690D02*
G75*
G03*
X155866689Y-130572733I-321393J-383021D01*
G01*
X158164822Y-132501096D02*
G75*
G03*
X158807610Y-131735052I321394J383022D01*
G01*
X158052166Y-127968183D02*
G75*
G03*
X157409380Y-128734225I-321393J-383021D01*
G01*
X159707513Y-130662588D02*
G75*
G03*
X160350299Y-129896546I321393J383021D01*
G01*
%TO.C,SW16*%
X116364600Y-115591400D02*
X116364600Y-118591400D01*
X118764600Y-115591400D02*
X117364600Y-115591400D01*
X118764600Y-118591400D02*
X117364600Y-118591400D01*
X119764600Y-118591400D02*
X119764600Y-115591400D01*
X117364600Y-115591400D02*
G75*
G03*
X116364600Y-115591400I-500000J0D01*
G01*
X116364600Y-118591400D02*
G75*
G03*
X117364600Y-118591400I500000J0D01*
G01*
X119764600Y-115591400D02*
G75*
G03*
X118764600Y-115591400I-500000J0D01*
G01*
X118764600Y-118591400D02*
G75*
G03*
X119764600Y-118591400I500000J0D01*
G01*
%TO.C,SW11*%
X70978600Y-108041400D02*
X70978600Y-111041400D01*
X73378600Y-108041400D02*
X71978600Y-108041400D01*
X73378600Y-111041400D02*
X71978600Y-111041400D01*
X74378600Y-111041400D02*
X74378600Y-108041400D01*
X71978600Y-108041400D02*
G75*
G03*
X70978600Y-108041400I-500000J0D01*
G01*
X70978600Y-111041400D02*
G75*
G03*
X71978600Y-111041400I500000J0D01*
G01*
X74378600Y-108041400D02*
G75*
G03*
X73378600Y-108041400I-500000J0D01*
G01*
X73378600Y-111041400D02*
G75*
G03*
X74378600Y-111041400I500000J0D01*
G01*
%TO.C,SW8*%
X109078600Y-70991400D02*
X109078600Y-73991400D01*
X111478600Y-70991400D02*
X110078600Y-70991400D01*
X111478600Y-73991400D02*
X110078600Y-73991400D01*
X112478600Y-73991400D02*
X112478600Y-70991400D01*
X110078600Y-70991400D02*
G75*
G03*
X109078600Y-70991400I-500000J0D01*
G01*
X109078600Y-73991400D02*
G75*
G03*
X110078600Y-73991400I500000J0D01*
G01*
X112478600Y-70991400D02*
G75*
G03*
X111478600Y-70991400I-500000J0D01*
G01*
X111478600Y-73991400D02*
G75*
G03*
X112478600Y-73991400I500000J0D01*
G01*
D12*
%TO.C,BZ1*%
X105250000Y-114150000D02*
X116750000Y-114150000D01*
X116750000Y-114150000D02*
X116750000Y-104650000D01*
X116750000Y-104650000D02*
X105250000Y-104650000D01*
X105250000Y-104650000D02*
X105250000Y-114150000D01*
D11*
%TO.C,SW1*%
X70978600Y-69941400D02*
X70978600Y-72941400D01*
X73378600Y-69941400D02*
X71978600Y-69941400D01*
X73378600Y-72941400D02*
X71978600Y-72941400D01*
X74378600Y-72941400D02*
X74378600Y-69941400D01*
X71978600Y-69941400D02*
G75*
G03*
X70978600Y-69941400I-500000J0D01*
G01*
X70978600Y-72941400D02*
G75*
G03*
X71978600Y-72941400I500000J0D01*
G01*
X74378600Y-69941400D02*
G75*
G03*
X73378600Y-69941400I-500000J0D01*
G01*
X73378600Y-72941400D02*
G75*
G03*
X74378600Y-72941400I500000J0D01*
G01*
%TO.C,SW10*%
X147178600Y-79830000D02*
X147178600Y-82830000D01*
X149578600Y-79830000D02*
X148178600Y-79830000D01*
X149578600Y-82830000D02*
X148178600Y-82830000D01*
X150578600Y-82830000D02*
X150578600Y-79830000D01*
X148178600Y-79830000D02*
G75*
G03*
X147178600Y-79830000I-500000J0D01*
G01*
X147178600Y-82830000D02*
G75*
G03*
X148178600Y-82830000I500000J0D01*
G01*
X150578600Y-79830000D02*
G75*
G03*
X149578600Y-79830000I-500000J0D01*
G01*
X149578600Y-82830000D02*
G75*
G03*
X150578600Y-82830000I500000J0D01*
G01*
%TO.C,SW6*%
X70978600Y-88991400D02*
X70978600Y-91991400D01*
X73378600Y-88991400D02*
X71978600Y-88991400D01*
X73378600Y-91991400D02*
X71978600Y-91991400D01*
X74378600Y-91991400D02*
X74378600Y-88991400D01*
X71978600Y-88991400D02*
G75*
G03*
X70978600Y-88991400I-500000J0D01*
G01*
X70978600Y-91991400D02*
G75*
G03*
X71978600Y-91991400I500000J0D01*
G01*
X74378600Y-88991400D02*
G75*
G03*
X73378600Y-88991400I-500000J0D01*
G01*
X73378600Y-91991400D02*
G75*
G03*
X74378600Y-91991400I500000J0D01*
G01*
%TO.C,SW12*%
X90028600Y-96051400D02*
X90028600Y-99051400D01*
X92428600Y-96051400D02*
X91028600Y-96051400D01*
X92428600Y-99051400D02*
X91028600Y-99051400D01*
X93428600Y-99051400D02*
X93428600Y-96051400D01*
X91028600Y-96051400D02*
G75*
G03*
X90028600Y-96051400I-500000J0D01*
G01*
X90028600Y-99051400D02*
G75*
G03*
X91028600Y-99051400I500000J0D01*
G01*
X93428600Y-96051400D02*
G75*
G03*
X92428600Y-96051400I-500000J0D01*
G01*
X92428600Y-99051400D02*
G75*
G03*
X93428600Y-99051400I500000J0D01*
G01*
%TO.C,SW13*%
X109078600Y-90041400D02*
X109078600Y-93041400D01*
X111478600Y-90041400D02*
X110078600Y-90041400D01*
X111478600Y-93041400D02*
X110078600Y-93041400D01*
X112478600Y-93041400D02*
X112478600Y-90041400D01*
X110078600Y-90041400D02*
G75*
G03*
X109078600Y-90041400I-500000J0D01*
G01*
X109078600Y-93041400D02*
G75*
G03*
X110078600Y-93041400I500000J0D01*
G01*
X112478600Y-90041400D02*
G75*
G03*
X111478600Y-90041400I-500000J0D01*
G01*
X111478600Y-93041400D02*
G75*
G03*
X112478600Y-93041400I500000J0D01*
G01*
%TO.C,SW2*%
X90028600Y-57941400D02*
X90028600Y-60941400D01*
X92428600Y-57941400D02*
X91028600Y-57941400D01*
X92428600Y-60941400D02*
X91028600Y-60941400D01*
X93428600Y-60941400D02*
X93428600Y-57941400D01*
X91028600Y-57941400D02*
G75*
G03*
X90028600Y-57941400I-500000J0D01*
G01*
X90028600Y-60941400D02*
G75*
G03*
X91028600Y-60941400I500000J0D01*
G01*
X93428600Y-57941400D02*
G75*
G03*
X92428600Y-57941400I-500000J0D01*
G01*
X92428600Y-60941400D02*
G75*
G03*
X93428600Y-60941400I500000J0D01*
G01*
%TO.C,SW15*%
X147178600Y-98880000D02*
X147178600Y-101880000D01*
X149578600Y-98880000D02*
X148178600Y-98880000D01*
X149578600Y-101880000D02*
X148178600Y-101880000D01*
X150578600Y-101880000D02*
X150578600Y-98880000D01*
X148178600Y-98880000D02*
G75*
G03*
X147178600Y-98880000I-500000J0D01*
G01*
X147178600Y-101880000D02*
G75*
G03*
X148178600Y-101880000I500000J0D01*
G01*
X150578600Y-98880000D02*
G75*
G03*
X149578600Y-98880000I-500000J0D01*
G01*
X149578600Y-101880000D02*
G75*
G03*
X150578600Y-101880000I500000J0D01*
G01*
%TO.C,SW9*%
X128128600Y-77330000D02*
X128128600Y-80330000D01*
X130528600Y-77330000D02*
X129128600Y-77330000D01*
X130528600Y-80330000D02*
X129128600Y-80330000D01*
X131528600Y-80330000D02*
X131528600Y-77330000D01*
X129128600Y-77330000D02*
G75*
G03*
X128128600Y-77330000I-500000J0D01*
G01*
X128128600Y-80330000D02*
G75*
G03*
X129128600Y-80330000I500000J0D01*
G01*
X131528600Y-77330000D02*
G75*
G03*
X130528600Y-77330000I-500000J0D01*
G01*
X130528600Y-80330000D02*
G75*
G03*
X131528600Y-80330000I500000J0D01*
G01*
%TO.C,SW4*%
X128128600Y-58280000D02*
X128128600Y-61280000D01*
X130528600Y-58280000D02*
X129128600Y-58280000D01*
X130528600Y-61280000D02*
X129128600Y-61280000D01*
X131528600Y-61280000D02*
X131528600Y-58280000D01*
X129128600Y-58280000D02*
G75*
G03*
X128128600Y-58280000I-500000J0D01*
G01*
X128128600Y-61280000D02*
G75*
G03*
X129128600Y-61280000I500000J0D01*
G01*
X131528600Y-58280000D02*
G75*
G03*
X130528600Y-58280000I-500000J0D01*
G01*
X130528600Y-61280000D02*
G75*
G03*
X131528600Y-61280000I500000J0D01*
G01*
%TO.C,SW17*%
X140453015Y-119235388D02*
X139426955Y-122054466D01*
X142708277Y-120056237D02*
X141392708Y-119577408D01*
X141682217Y-122875315D02*
X140366647Y-122396486D01*
X142621910Y-123217335D02*
X143647970Y-120398257D01*
X141392706Y-119577407D02*
G75*
G03*
X140453016Y-119235388I-469845J171009D01*
G01*
X139426956Y-122054466D02*
G75*
G03*
X140366646Y-122396486I469845J-171010D01*
G01*
X143647970Y-120398257D02*
G75*
G03*
X142708278Y-120056237I-469846J171010D01*
G01*
X141682217Y-122875315D02*
G75*
G03*
X142621909Y-123217335I469846J-171010D01*
G01*
%TO.C,SW3*%
X109078600Y-51941400D02*
X109078600Y-54941400D01*
X111478600Y-51941400D02*
X110078600Y-51941400D01*
X111478600Y-54941400D02*
X110078600Y-54941400D01*
X112478600Y-54941400D02*
X112478600Y-51941400D01*
X110078600Y-51941400D02*
G75*
G03*
X109078600Y-51941400I-500000J0D01*
G01*
X109078600Y-54941400D02*
G75*
G03*
X110078600Y-54941400I500000J0D01*
G01*
X112478600Y-51941400D02*
G75*
G03*
X111478600Y-51941400I-500000J0D01*
G01*
X111478600Y-54941400D02*
G75*
G03*
X112478600Y-54941400I500000J0D01*
G01*
%TO.C,SW7*%
X90028600Y-76991400D02*
X90028600Y-79991400D01*
X92428600Y-76991400D02*
X91028600Y-76991400D01*
X92428600Y-79991400D02*
X91028600Y-79991400D01*
X93428600Y-79991400D02*
X93428600Y-76991400D01*
X91028600Y-76991400D02*
G75*
G03*
X90028600Y-76991400I-500000J0D01*
G01*
X90028600Y-79991400D02*
G75*
G03*
X91028600Y-79991400I500000J0D01*
G01*
X93428600Y-76991400D02*
G75*
G03*
X92428600Y-76991400I-500000J0D01*
G01*
X92428600Y-79991400D02*
G75*
G03*
X93428600Y-79991400I500000J0D01*
G01*
%TD*%
M02*
