  0
SECTION
  2
HEADER
  9
$ANGBASE
  50
0.0
  9
$ANGDIR
  70
1
  9
$MEASUREMENT
  70
1
  0
ENDSEC
  0
SECTION
  2
TABLES
  0
TABLE
  2
LTYPE
  70
4
  0
LTYPE
  5
40F
  2
CONTINUOUS
  70
0
  3
Solid line
  72
65
  73
0
  40
0.0
  0
LTYPE
  5
410
  2
DASHDOT
 70
0
  3
Dash Dot ____ _ ____ _
 72
65
 73
4
 40
2.0
 49
1.25
 49
-0.25
 49
0.25
 49
-0.25
  0
LTYPE
  5
411
  2
DASHED
 70
0
  3
Dashed __ __ __ __ __
 72
65
 73
2
 40
0.75
 49
0.5
 49
-0.25
  0
LTYPE
  5
43B
  2
DOTTED
 70
0
  3
Dotted .  .  .  .
 72
65
 73
2
 40
0.2
 49
0.0
 49
-0.2
  0
ENDTAB
  0
TABLE
  2
STYLE
  70
4
  0
STYLE
  2
KICAD
  70
0
  40
0
  41
1
  42
1
  50
0
  71
0
  3
isocp.shx
  0
STYLE
  2
KICADB
  70
0
  40
0
  41
1
  42
1
  50
0
  71
0
  3
isocp.shx
  0
STYLE
  2
KICADI
  70
0
  40
0
  41
1
  42
1
  50
15
  71
0
  3
isocp.shx
  0
STYLE
  2
KICADBI
  70
0
  40
0
  41
1
  42
1
  50
15
  71
0
  3
isocp.shx
  0
ENDTAB
  0
TABLE
  2
LAYER
  70
1
  0
LAYER
  2
BLACK
  70
0
  62
7
  6
CONTINUOUS
  0
ENDTAB
  0
ENDSEC
  0
SECTION
  2
ENTITIES
0
LINE
8
BLACK
6
CONTINUOUS
10
151.3284239999999841
20
-127.5957109999999943
11
151.5349310000000003
21
-127.6757129999999876
0
LINE
8
BLACK
6
CONTINUOUS
10
151.5349310000000003
20
-127.6757129999999876
11
151.7232229999999902
21
-127.7922979999999882
0
LINE
8
BLACK
6
CONTINUOUS
10
151.7232229999999902
20
-127.7922979999999882
11
151.8868860000000041
21
-127.9414969999999983
0
LINE
8
BLACK
6
CONTINUOUS
10
151.8868860000000041
20
-127.9414969999999983
11
152.0203469999999868
21
-128.1182279999999878
0
LINE
8
BLACK
6
CONTINUOUS
10
152.0203469999999868
20
-128.1182279999999878
11
152.1190619999999853
21
-128.316473000000002
0
LINE
8
BLACK
6
CONTINUOUS
10
152.1190619999999853
20
-128.316473000000002
11
152.1796679999999924
21
-128.5294820000000016
0
LINE
8
BLACK
6
CONTINUOUS
10
152.1796679999999924
20
-128.5294820000000016
11
152.2001019999999869
21
-128.75
0
LINE
8
BLACK
6
CONTINUOUS
10
152.2001019999999869
20
-128.75
11
152.1796679999999924
21
-128.9705179999999984
0
LINE
8
BLACK
6
CONTINUOUS
10
152.1796679999999924
20
-128.9705179999999984
11
152.1190619999999853
21
-129.183526999999998
0
LINE
8
BLACK
6
CONTINUOUS
10
152.1190619999999853
20
-129.183526999999998
11
152.0203469999999868
21
-129.3817719999999838
0
LINE
8
BLACK
6
CONTINUOUS
10
152.0203469999999868
20
-129.3817719999999838
11
151.8868860000000041
21
-129.5585030000000017
0
LINE
8
BLACK
6
CONTINUOUS
10
151.8868860000000041
20
-129.5585030000000017
11
151.7232229999999902
21
-129.7077019999999834
0
LINE
8
BLACK
6
CONTINUOUS
10
151.7232229999999902
20
-129.7077019999999834
11
151.5349310000000003
21
-129.8242869999999982
0
LINE
8
BLACK
6
CONTINUOUS
10
151.5349310000000003
20
-129.8242869999999982
11
151.3284239999999841
21
-129.9042890000000057
0
LINE
8
BLACK
6
CONTINUOUS
10
151.3284239999999841
20
-129.9042890000000057
11
151.110730999999987
21
-129.9449830000000077
0
LINE
8
BLACK
6
CONTINUOUS
10
151.110730999999987
20
-129.9449830000000077
11
150.8892689999999845
21
-129.9449830000000077
0
LINE
8
BLACK
6
CONTINUOUS
10
150.8892689999999845
20
-129.9449830000000077
11
150.6715759999999875
21
-129.9042890000000057
0
LINE
8
BLACK
6
CONTINUOUS
10
150.6715759999999875
20
-129.9042890000000057
11
150.4650689999999997
21
-129.8242869999999982
0
LINE
8
BLACK
6
CONTINUOUS
10
150.4650689999999997
20
-129.8242869999999982
11
150.2767769999999814
21
-129.7077019999999834
0
LINE
8
BLACK
6
CONTINUOUS
10
150.2767769999999814
20
-129.7077019999999834
11
150.1131139999999959
21
-129.5585030000000017
0
LINE
8
BLACK
6
CONTINUOUS
10
150.1131139999999959
20
-129.5585030000000017
11
149.9796529999999848
21
-129.3817719999999838
0
LINE
8
BLACK
6
CONTINUOUS
10
149.9796529999999848
20
-129.3817719999999838
11
149.8809379999999862
21
-129.183526999999998
0
LINE
8
BLACK
6
CONTINUOUS
10
149.8809379999999862
20
-129.183526999999998
11
149.8203319999999792
21
-128.9705179999999984
0
LINE
8
BLACK
6
CONTINUOUS
10
149.8203319999999792
20
-128.9705179999999984
11
149.7998979999999847
21
-128.75
0
LINE
8
BLACK
6
CONTINUOUS
10
149.7998979999999847
20
-128.75
11
149.8203319999999792
21
-128.5294820000000016
0
LINE
8
BLACK
6
CONTINUOUS
10
149.8203319999999792
20
-128.5294820000000016
11
149.8809379999999862
21
-128.316473000000002
0
LINE
8
BLACK
6
CONTINUOUS
10
149.8809379999999862
20
-128.316473000000002
11
149.9796529999999848
21
-128.1182279999999878
0
LINE
8
BLACK
6
CONTINUOUS
10
149.9796529999999848
20
-128.1182279999999878
11
150.1131139999999959
21
-127.9414969999999983
0
LINE
8
BLACK
6
CONTINUOUS
10
150.1131139999999959
20
-127.9414969999999983
11
150.2767769999999814
21
-127.7922979999999882
0
LINE
8
BLACK
6
CONTINUOUS
10
150.2767769999999814
20
-127.7922979999999882
11
150.4650689999999997
21
-127.6757129999999876
0
LINE
8
BLACK
6
CONTINUOUS
10
150.4650689999999997
20
-127.6757129999999876
11
150.6715759999999875
21
-127.5957109999999943
0
LINE
8
BLACK
6
CONTINUOUS
10
150.6715759999999875
20
-127.5957109999999943
11
150.8892689999999845
21
-127.5550169999999923
0
LINE
8
BLACK
6
CONTINUOUS
10
150.8892689999999845
20
-127.5550169999999923
11
151.110730999999987
21
-127.5550169999999923
0
LINE
8
BLACK
6
CONTINUOUS
10
151.110730999999987
20
-127.5550169999999923
11
151.3284239999999841
21
-127.5957109999999943
0
LINE
8
BLACK
6
CONTINUOUS
10
150.0143689999999879
20
-128.9460540000000037
11
150.0715559999999869
21
-129.1345739999999864
0
LINE
8
BLACK
6
CONTINUOUS
10
150.0715559999999869
20
-129.1345739999999864
11
150.1644220000000018
21
-129.3083149999999932
0
LINE
8
BLACK
6
CONTINUOUS
10
150.1644220000000018
20
-129.3083149999999932
11
150.2893990000000031
21
-129.4606009999999969
0
LINE
8
BLACK
6
CONTINUOUS
10
150.2893990000000031
20
-129.4606009999999969
11
150.4416850000000068
21
-129.5855779999999982
0
LINE
8
BLACK
6
CONTINUOUS
10
150.4416850000000068
20
-129.5855779999999982
11
150.6154259999999852
21
-129.6784439999999847
0
LINE
8
BLACK
6
CONTINUOUS
10
150.6154259999999852
20
-129.6784439999999847
11
150.8039459999999963
21
-129.7356309999999837
0
LINE
8
BLACK
6
CONTINUOUS
10
150.8039459999999963
20
-129.7356309999999837
11
151.
21
-129.7549410000000023
0
LINE
8
BLACK
6
CONTINUOUS
10
151.
20
-129.7549410000000023
11
151.1960540000000037
21
-129.7356309999999837
0
LINE
8
BLACK
6
CONTINUOUS
10
151.1960540000000037
20
-129.7356309999999837
11
151.3845739999999864
21
-129.6784439999999847
0
LINE
8
BLACK
6
CONTINUOUS
10
151.3845739999999864
20
-129.6784439999999847
11
151.5583149999999932
21
-129.5855779999999982
0
LINE
8
BLACK
6
CONTINUOUS
10
151.5583149999999932
20
-129.5855779999999982
11
151.7106009999999969
21
-129.4606009999999969
0
LINE
8
BLACK
6
CONTINUOUS
10
151.7106009999999969
20
-129.4606009999999969
11
151.8355779999999982
21
-129.3083149999999932
0
LINE
8
BLACK
6
CONTINUOUS
10
151.8355779999999982
20
-129.3083149999999932
11
151.9284439999999847
21
-129.1345739999999864
0
LINE
8
BLACK
6
CONTINUOUS
10
151.9284439999999847
20
-129.1345739999999864
11
151.9856309999999837
21
-128.9460540000000037
0
LINE
8
BLACK
6
CONTINUOUS
10
151.9856309999999837
20
-128.9460540000000037
11
152.0049410000000023
21
-128.75
0
LINE
8
BLACK
6
CONTINUOUS
10
152.0049410000000023
20
-128.75
11
151.9856309999999837
21
-128.5539459999999963
0
LINE
8
BLACK
6
CONTINUOUS
10
151.9856309999999837
20
-128.5539459999999963
11
151.9284439999999847
21
-128.3654259999999852
0
LINE
8
BLACK
6
CONTINUOUS
10
151.9284439999999847
20
-128.3654259999999852
11
151.8355779999999982
21
-128.1916850000000068
0
LINE
8
BLACK
6
CONTINUOUS
10
151.8355779999999982
20
-128.1916850000000068
11
151.7106009999999969
21
-128.0393990000000031
0
LINE
8
BLACK
6
CONTINUOUS
10
151.7106009999999969
20
-128.0393990000000031
11
151.5583149999999932
21
-127.9144219999999876
0
LINE
8
BLACK
6
CONTINUOUS
10
151.5583149999999932
20
-127.9144219999999876
11
151.3845739999999864
21
-127.8215560000000011
0
LINE
8
BLACK
6
CONTINUOUS
10
151.3845739999999864
20
-127.8215560000000011
11
151.1960540000000037
21
-127.7643689999999879
0
LINE
8
BLACK
6
CONTINUOUS
10
151.1960540000000037
20
-127.7643689999999879
11
151.
21
-127.7450589999999977
0
LINE
8
BLACK
6
CONTINUOUS
10
151.
20
-127.7450589999999977
11
150.8039459999999963
21
-127.7643689999999879
0
LINE
8
BLACK
6
CONTINUOUS
10
150.8039459999999963
20
-127.7643689999999879
11
150.6154259999999852
21
-127.8215560000000011
0
LINE
8
BLACK
6
CONTINUOUS
10
150.6154259999999852
20
-127.8215560000000011
11
150.4416850000000068
21
-127.9144219999999876
0
LINE
8
BLACK
6
CONTINUOUS
10
150.4416850000000068
20
-127.9144219999999876
11
150.2893990000000031
21
-128.0393990000000031
0
LINE
8
BLACK
6
CONTINUOUS
10
150.2893990000000031
20
-128.0393990000000031
11
150.1644220000000018
21
-128.1916850000000068
0
LINE
8
BLACK
6
CONTINUOUS
10
150.1644220000000018
20
-128.1916850000000068
11
150.0715559999999869
21
-128.3654259999999852
0
LINE
8
BLACK
6
CONTINUOUS
10
150.0715559999999869
20
-128.3654259999999852
11
150.0143689999999879
21
-128.5539459999999963
0
LINE
8
BLACK
6
CONTINUOUS
10
150.0143689999999879
20
-128.5539459999999963
11
149.9950589999999977
21
-128.75
0
LINE
8
BLACK
6
CONTINUOUS
10
149.9950589999999977
20
-128.75
11
150.0143689999999879
21
-128.9460540000000037
0
LINE
8
BLACK
6
CONTINUOUS
10
129.9784239999999897
20
-118.8957109999999915
11
130.184931000000006
21
-118.9757129999999989
0
LINE
8
BLACK
6
CONTINUOUS
10
130.184931000000006
20
-118.9757129999999989
11
130.3732229999999959
21
-119.0922979999999995
0
LINE
8
BLACK
6
CONTINUOUS
10
130.3732229999999959
20
-119.0922979999999995
11
130.5368859999999813
21
-119.2414969999999954
0
LINE
8
BLACK
6
CONTINUOUS
10
130.5368859999999813
20
-119.2414969999999954
11
130.6703469999999925
21
-119.4182279999999992
0
LINE
8
BLACK
6
CONTINUOUS
10
130.6703469999999925
20
-119.4182279999999992
11
130.769061999999991
21
-119.6164729999999992
0
LINE
8
BLACK
6
CONTINUOUS
10
130.769061999999991
20
-119.6164729999999992
11
130.8296679999999981
21
-119.8294819999999987
0
LINE
8
BLACK
6
CONTINUOUS
10
130.8296679999999981
20
-119.8294819999999987
11
130.8501019999999926
21
-120.0499999999999972
0
LINE
8
BLACK
6
CONTINUOUS
10
130.8501019999999926
20
-120.0499999999999972
11
130.8296679999999981
21
-120.2705179999999956
0
LINE
8
BLACK
6
CONTINUOUS
10
130.8296679999999981
20
-120.2705179999999956
11
130.769061999999991
21
-120.4835269999999952
0
LINE
8
BLACK
6
CONTINUOUS
10
130.769061999999991
20
-120.4835269999999952
11
130.6703469999999925
21
-120.6817719999999952
0
LINE
8
BLACK
6
CONTINUOUS
10
130.6703469999999925
20
-120.6817719999999952
11
130.5368859999999813
21
-120.8585029999999989
0
LINE
8
BLACK
6
CONTINUOUS
10
130.5368859999999813
20
-120.8585029999999989
11
130.3732229999999959
21
-121.0077019999999948
0
LINE
8
BLACK
6
CONTINUOUS
10
130.3732229999999959
20
-121.0077019999999948
11
130.184931000000006
21
-121.1242869999999954
0
LINE
8
BLACK
6
CONTINUOUS
10
130.184931000000006
20
-121.1242869999999954
11
129.9784239999999897
21
-121.2042889999999886
0
LINE
8
BLACK
6
CONTINUOUS
10
129.9784239999999897
20
-121.2042889999999886
11
129.7607309999999927
21
-121.2449829999999906
0
LINE
8
BLACK
6
CONTINUOUS
10
129.7607309999999927
20
-121.2449829999999906
11
129.5392689999999902
21
-121.2449829999999906
0
LINE
8
BLACK
6
CONTINUOUS
10
129.5392689999999902
20
-121.2449829999999906
11
129.3215759999999932
21
-121.2042889999999886
0
LINE
8
BLACK
6
CONTINUOUS
10
129.3215759999999932
20
-121.2042889999999886
11
129.1150690000000054
21
-121.1242869999999954
0
LINE
8
BLACK
6
CONTINUOUS
10
129.1150690000000054
20
-121.1242869999999954
11
128.9267769999999871
21
-121.0077019999999948
0
LINE
8
BLACK
6
CONTINUOUS
10
128.9267769999999871
20
-121.0077019999999948
11
128.7631140000000016
21
-120.8585029999999989
0
LINE
8
BLACK
6
CONTINUOUS
10
128.7631140000000016
20
-120.8585029999999989
11
128.6296529999999905
21
-120.6817719999999952
0
LINE
8
BLACK
6
CONTINUOUS
10
128.6296529999999905
20
-120.6817719999999952
11
128.5309379999999919
21
-120.4835269999999952
0
LINE
8
BLACK
6
CONTINUOUS
10
128.5309379999999919
20
-120.4835269999999952
11
128.4703319999999849
21
-120.2705179999999956
0
LINE
8
BLACK
6
CONTINUOUS
10
128.4703319999999849
20
-120.2705179999999956
11
128.4498979999999904
21
-120.0499999999999972
0
LINE
8
BLACK
6
CONTINUOUS
10
128.4498979999999904
20
-120.0499999999999972
11
128.4703319999999849
21
-119.8294819999999987
0
LINE
8
BLACK
6
CONTINUOUS
10
128.4703319999999849
20
-119.8294819999999987
11
128.5309379999999919
21
-119.6164729999999992
0
LINE
8
BLACK
6
CONTINUOUS
10
128.5309379999999919
20
-119.6164729999999992
11
128.6296529999999905
21
-119.4182279999999992
0
LINE
8
BLACK
6
CONTINUOUS
10
128.6296529999999905
20
-119.4182279999999992
11
128.7631140000000016
21
-119.2414969999999954
0
LINE
8
BLACK
6
CONTINUOUS
10
128.7631140000000016
20
-119.2414969999999954
11
128.9267769999999871
21
-119.0922979999999995
0
LINE
8
BLACK
6
CONTINUOUS
10
128.9267769999999871
20
-119.0922979999999995
11
129.1150690000000054
21
-118.9757129999999989
0
LINE
8
BLACK
6
CONTINUOUS
10
129.1150690000000054
20
-118.9757129999999989
11
129.3215759999999932
21
-118.8957109999999915
0
LINE
8
BLACK
6
CONTINUOUS
10
129.3215759999999932
20
-118.8957109999999915
11
129.5392689999999902
21
-118.8550169999999895
0
LINE
8
BLACK
6
CONTINUOUS
10
129.5392689999999902
20
-118.8550169999999895
11
129.7607309999999927
21
-118.8550169999999895
0
LINE
8
BLACK
6
CONTINUOUS
10
129.7607309999999927
20
-118.8550169999999895
11
129.9784239999999897
21
-118.8957109999999915
0
LINE
8
BLACK
6
CONTINUOUS
10
128.6643689999999935
20
-120.2460540000000009
11
128.7215559999999925
21
-120.4345739999999978
0
LINE
8
BLACK
6
CONTINUOUS
10
128.7215559999999925
20
-120.4345739999999978
11
128.8144220000000075
21
-120.6083149999999904
0
LINE
8
BLACK
6
CONTINUOUS
10
128.8144220000000075
20
-120.6083149999999904
11
128.9393989999999803
21
-120.7606009999999941
0
LINE
8
BLACK
6
CONTINUOUS
10
128.9393989999999803
20
-120.7606009999999941
11
129.091684999999984
21
-120.8855779999999953
0
LINE
8
BLACK
6
CONTINUOUS
10
129.091684999999984
20
-120.8855779999999953
11
129.2654259999999908
21
-120.9784439999999961
0
LINE
8
BLACK
6
CONTINUOUS
10
129.2654259999999908
20
-120.9784439999999961
11
129.453946000000002
21
-121.0356309999999951
0
LINE
8
BLACK
6
CONTINUOUS
10
129.453946000000002
20
-121.0356309999999951
11
129.6500000000000057
21
-121.0549409999999995
0
LINE
8
BLACK
6
CONTINUOUS
10
129.6500000000000057
20
-121.0549409999999995
11
129.846053999999981
21
-121.0356309999999951
0
LINE
8
BLACK
6
CONTINUOUS
10
129.846053999999981
20
-121.0356309999999951
11
130.0345739999999921
21
-120.9784439999999961
0
LINE
8
BLACK
6
CONTINUOUS
10
130.0345739999999921
20
-120.9784439999999961
11
130.2083149999999989
21
-120.8855779999999953
0
LINE
8
BLACK
6
CONTINUOUS
10
130.2083149999999989
20
-120.8855779999999953
11
130.3606010000000026
21
-120.7606009999999941
0
LINE
8
BLACK
6
CONTINUOUS
10
130.3606010000000026
20
-120.7606009999999941
11
130.4855780000000038
21
-120.6083149999999904
0
LINE
8
BLACK
6
CONTINUOUS
10
130.4855780000000038
20
-120.6083149999999904
11
130.5784439999999904
21
-120.4345739999999978
0
LINE
8
BLACK
6
CONTINUOUS
10
130.5784439999999904
20
-120.4345739999999978
11
130.6356309999999894
21
-120.2460540000000009
0
LINE
8
BLACK
6
CONTINUOUS
10
130.6356309999999894
20
-120.2460540000000009
11
130.654941000000008
21
-120.0499999999999972
0
LINE
8
BLACK
6
CONTINUOUS
10
130.654941000000008
20
-120.0499999999999972
11
130.6356309999999894
21
-119.8539459999999934
0
LINE
8
BLACK
6
CONTINUOUS
10
130.6356309999999894
20
-119.8539459999999934
11
130.5784439999999904
21
-119.6654259999999965
0
LINE
8
BLACK
6
CONTINUOUS
10
130.5784439999999904
20
-119.6654259999999965
11
130.4855780000000038
21
-119.4916849999999897
0
LINE
8
BLACK
6
CONTINUOUS
10
130.4855780000000038
20
-119.4916849999999897
11
130.3606010000000026
21
-119.3393990000000002
0
LINE
8
BLACK
6
CONTINUOUS
10
130.3606010000000026
20
-119.3393990000000002
11
130.2083149999999989
21
-119.214421999999999
0
LINE
8
BLACK
6
CONTINUOUS
10
130.2083149999999989
20
-119.214421999999999
11
130.0345739999999921
21
-119.1215559999999982
0
LINE
8
BLACK
6
CONTINUOUS
10
130.0345739999999921
20
-119.1215559999999982
11
129.846053999999981
21
-119.0643689999999992
0
LINE
8
BLACK
6
CONTINUOUS
10
129.846053999999981
20
-119.0643689999999992
11
129.6500000000000057
21
-119.0450589999999949
0
LINE
8
BLACK
6
CONTINUOUS
10
129.6500000000000057
20
-119.0450589999999949
11
129.453946000000002
21
-119.0643689999999992
0
LINE
8
BLACK
6
CONTINUOUS
10
129.453946000000002
20
-119.0643689999999992
11
129.2654259999999908
21
-119.1215559999999982
0
LINE
8
BLACK
6
CONTINUOUS
10
129.2654259999999908
20
-119.1215559999999982
11
129.091684999999984
21
-119.214421999999999
0
LINE
8
BLACK
6
CONTINUOUS
10
129.091684999999984
20
-119.214421999999999
11
128.9393989999999803
21
-119.3393990000000002
0
LINE
8
BLACK
6
CONTINUOUS
10
128.9393989999999803
20
-119.3393990000000002
11
128.8144220000000075
21
-119.4916849999999897
0
LINE
8
BLACK
6
CONTINUOUS
10
128.8144220000000075
20
-119.4916849999999897
11
128.7215559999999925
21
-119.6654259999999965
0
LINE
8
BLACK
6
CONTINUOUS
10
128.7215559999999925
20
-119.6654259999999965
11
128.6643689999999935
21
-119.8539459999999934
0
LINE
8
BLACK
6
CONTINUOUS
10
128.6643689999999935
20
-119.8539459999999934
11
128.6450590000000034
21
-120.0499999999999972
0
LINE
8
BLACK
6
CONTINUOUS
10
128.6450590000000034
20
-120.0499999999999972
11
128.6643689999999935
21
-120.2460540000000009
0
LINE
8
BLACK
6
CONTINUOUS
10
82.8284239999999983
20
-91.9457110000000029
11
83.0349310000000003
21
-92.0257129999999961
0
LINE
8
BLACK
6
CONTINUOUS
10
83.0349310000000003
20
-92.0257129999999961
11
83.2232229999999902
21
-92.1422979999999967
0
LINE
8
BLACK
6
CONTINUOUS
10
83.2232229999999902
20
-92.1422979999999967
11
83.3868859999999898
21
-92.2914969999999926
0
LINE
8
BLACK
6
CONTINUOUS
10
83.3868859999999898
20
-92.2914969999999926
11
83.520347000000001
21
-92.4682279999999963
0
LINE
8
BLACK
6
CONTINUOUS
10
83.520347000000001
20
-92.4682279999999963
11
83.6190619999999996
21
-92.6664729999999963
0
LINE
8
BLACK
6
CONTINUOUS
10
83.6190619999999996
20
-92.6664729999999963
11
83.6796679999999924
21
-92.8794819999999959
0
LINE
8
BLACK
6
CONTINUOUS
10
83.6796679999999924
20
-92.8794819999999959
11
83.7001020000000011
21
-93.0999999999999943
0
LINE
8
BLACK
6
CONTINUOUS
10
83.7001020000000011
20
-93.0999999999999943
11
83.6796679999999924
21
-93.3205179999999928
0
LINE
8
BLACK
6
CONTINUOUS
10
83.6796679999999924
20
-93.3205179999999928
11
83.6190619999999996
21
-93.5335269999999923
0
LINE
8
BLACK
6
CONTINUOUS
10
83.6190619999999996
20
-93.5335269999999923
11
83.520347000000001
21
-93.7317719999999923
0
LINE
8
BLACK
6
CONTINUOUS
10
83.520347000000001
20
-93.7317719999999923
11
83.3868859999999898
21
-93.9085029999999961
0
LINE
8
BLACK
6
CONTINUOUS
10
83.3868859999999898
20
-93.9085029999999961
11
83.2232229999999902
21
-94.0577019999999919
0
LINE
8
BLACK
6
CONTINUOUS
10
83.2232229999999902
20
-94.0577019999999919
11
83.0349310000000003
21
-94.1742869999999925
0
LINE
8
BLACK
6
CONTINUOUS
10
83.0349310000000003
20
-94.1742869999999925
11
82.8284239999999983
21
-94.254289
0
LINE
8
BLACK
6
CONTINUOUS
10
82.8284239999999983
20
-94.254289
11
82.6107310000000012
21
-94.294983000000002
0
LINE
8
BLACK
6
CONTINUOUS
10
82.6107310000000012
20
-94.294983000000002
11
82.3892689999999988
21
-94.294983000000002
0
LINE
8
BLACK
6
CONTINUOUS
10
82.3892689999999988
20
-94.294983000000002
11
82.1715760000000017
21
-94.254289
0
LINE
8
BLACK
6
CONTINUOUS
10
82.1715760000000017
20
-94.254289
11
81.9650689999999997
21
-94.1742869999999925
0
LINE
8
BLACK
6
CONTINUOUS
10
81.9650689999999997
20
-94.1742869999999925
11
81.7767769999999956
21
-94.0577019999999919
0
LINE
8
BLACK
6
CONTINUOUS
10
81.7767769999999956
20
-94.0577019999999919
11
81.6131139999999959
21
-93.9085029999999961
0
LINE
8
BLACK
6
CONTINUOUS
10
81.6131139999999959
20
-93.9085029999999961
11
81.479652999999999
21
-93.7317719999999923
0
LINE
8
BLACK
6
CONTINUOUS
10
81.479652999999999
20
-93.7317719999999923
11
81.3809380000000004
21
-93.5335269999999923
0
LINE
8
BLACK
6
CONTINUOUS
10
81.3809380000000004
20
-93.5335269999999923
11
81.3203319999999934
21
-93.3205179999999928
0
LINE
8
BLACK
6
CONTINUOUS
10
81.3203319999999934
20
-93.3205179999999928
11
81.2998979999999989
21
-93.0999999999999943
0
LINE
8
BLACK
6
CONTINUOUS
10
81.2998979999999989
20
-93.0999999999999943
11
81.3203319999999934
21
-92.8794819999999959
0
LINE
8
BLACK
6
CONTINUOUS
10
81.3203319999999934
20
-92.8794819999999959
11
81.3809380000000004
21
-92.6664729999999963
0
LINE
8
BLACK
6
CONTINUOUS
10
81.3809380000000004
20
-92.6664729999999963
11
81.479652999999999
21
-92.4682279999999963
0
LINE
8
BLACK
6
CONTINUOUS
10
81.479652999999999
20
-92.4682279999999963
11
81.6131139999999959
21
-92.2914969999999926
0
LINE
8
BLACK
6
CONTINUOUS
10
81.6131139999999959
20
-92.2914969999999926
11
81.7767769999999956
21
-92.1422979999999967
0
LINE
8
BLACK
6
CONTINUOUS
10
81.7767769999999956
20
-92.1422979999999967
11
81.9650689999999997
21
-92.0257129999999961
0
LINE
8
BLACK
6
CONTINUOUS
10
81.9650689999999997
20
-92.0257129999999961
11
82.1715760000000017
21
-91.9457110000000029
0
LINE
8
BLACK
6
CONTINUOUS
10
82.1715760000000017
20
-91.9457110000000029
11
82.3892689999999988
21
-91.9050170000000008
0
LINE
8
BLACK
6
CONTINUOUS
10
82.3892689999999988
20
-91.9050170000000008
11
82.6107310000000012
21
-91.9050170000000008
0
LINE
8
BLACK
6
CONTINUOUS
10
82.6107310000000012
20
-91.9050170000000008
11
82.8284239999999983
21
-91.9457110000000029
0
LINE
8
BLACK
6
CONTINUOUS
10
81.5143690000000021
20
-93.296053999999998
11
81.5715560000000011
21
-93.484573999999995
0
LINE
8
BLACK
6
CONTINUOUS
10
81.5715560000000011
20
-93.484573999999995
11
81.6644220000000018
21
-93.6583150000000018
0
LINE
8
BLACK
6
CONTINUOUS
10
81.6644220000000018
20
-93.6583150000000018
11
81.7893990000000031
21
-93.8106009999999912
0
LINE
8
BLACK
6
CONTINUOUS
10
81.7893990000000031
20
-93.8106009999999912
11
81.9416849999999926
21
-93.9355779999999925
0
LINE
8
BLACK
6
CONTINUOUS
10
81.9416849999999926
20
-93.9355779999999925
11
82.1154259999999994
21
-94.0284439999999933
0
LINE
8
BLACK
6
CONTINUOUS
10
82.1154259999999994
20
-94.0284439999999933
11
82.3039459999999963
21
-94.0856309999999922
0
LINE
8
BLACK
6
CONTINUOUS
10
82.3039459999999963
20
-94.0856309999999922
11
82.5
21
-94.1049409999999966
0
LINE
8
BLACK
6
CONTINUOUS
10
82.5
20
-94.1049409999999966
11
82.6960539999999895
21
-94.0856309999999922
0
LINE
8
BLACK
6
CONTINUOUS
10
82.6960539999999895
20
-94.0856309999999922
11
82.8845740000000006
21
-94.0284439999999933
0
LINE
8
BLACK
6
CONTINUOUS
10
82.8845740000000006
20
-94.0284439999999933
11
83.0583149999999932
21
-93.9355779999999925
0
LINE
8
BLACK
6
CONTINUOUS
10
83.0583149999999932
20
-93.9355779999999925
11
83.2106009999999969
21
-93.8106009999999912
0
LINE
8
BLACK
6
CONTINUOUS
10
83.2106009999999969
20
-93.8106009999999912
11
83.3355779999999982
21
-93.6583150000000018
0
LINE
8
BLACK
6
CONTINUOUS
10
83.3355779999999982
20
-93.6583150000000018
11
83.4284439999999989
21
-93.484573999999995
0
LINE
8
BLACK
6
CONTINUOUS
10
83.4284439999999989
20
-93.484573999999995
11
83.4856309999999979
21
-93.296053999999998
0
LINE
8
BLACK
6
CONTINUOUS
10
83.4856309999999979
20
-93.296053999999998
11
83.5049410000000023
21
-93.0999999999999943
0
LINE
8
BLACK
6
CONTINUOUS
10
83.5049410000000023
20
-93.0999999999999943
11
83.4856309999999979
21
-92.9039459999999906
0
LINE
8
BLACK
6
CONTINUOUS
10
83.4856309999999979
20
-92.9039459999999906
11
83.4284439999999989
21
-92.7154259999999937
0
LINE
8
BLACK
6
CONTINUOUS
10
83.4284439999999989
20
-92.7154259999999937
11
83.3355779999999982
21
-92.5416850000000011
0
LINE
8
BLACK
6
CONTINUOUS
10
83.3355779999999982
20
-92.5416850000000011
11
83.2106009999999969
21
-92.3893989999999974
0
LINE
8
BLACK
6
CONTINUOUS
10
83.2106009999999969
20
-92.3893989999999974
11
83.0583149999999932
21
-92.2644219999999962
0
LINE
8
BLACK
6
CONTINUOUS
10
83.0583149999999932
20
-92.2644219999999962
11
82.8845740000000006
21
-92.1715559999999954
0
LINE
8
BLACK
6
CONTINUOUS
10
82.8845740000000006
20
-92.1715559999999954
11
82.6960539999999895
21
-92.1143689999999964
0
LINE
8
BLACK
6
CONTINUOUS
10
82.6960539999999895
20
-92.1143689999999964
11
82.5
21
-92.095058999999992
0
LINE
8
BLACK
6
CONTINUOUS
10
82.5
20
-92.095058999999992
11
82.3039459999999963
21
-92.1143689999999964
0
LINE
8
BLACK
6
CONTINUOUS
10
82.3039459999999963
20
-92.1143689999999964
11
82.1154259999999994
21
-92.1715559999999954
0
LINE
8
BLACK
6
CONTINUOUS
10
82.1154259999999994
20
-92.1715559999999954
11
81.9416849999999926
21
-92.2644219999999962
0
LINE
8
BLACK
6
CONTINUOUS
10
81.9416849999999926
20
-92.2644219999999962
11
81.7893990000000031
21
-92.3893989999999974
0
LINE
8
BLACK
6
CONTINUOUS
10
81.7893990000000031
20
-92.3893989999999974
11
81.6644220000000018
21
-92.5416850000000011
0
LINE
8
BLACK
6
CONTINUOUS
10
81.6644220000000018
20
-92.5416850000000011
11
81.5715560000000011
21
-92.7154259999999937
0
LINE
8
BLACK
6
CONTINUOUS
10
81.5715560000000011
20
-92.7154259999999937
11
81.5143690000000021
21
-92.9039459999999906
0
LINE
8
BLACK
6
CONTINUOUS
10
81.5143690000000021
20
-92.9039459999999906
11
81.4950589999999977
21
-93.0999999999999943
0
LINE
8
BLACK
6
CONTINUOUS
10
81.4950589999999977
20
-93.0999999999999943
11
81.5143690000000021
21
-93.296053999999998
0
LINE
8
BLACK
6
CONTINUOUS
10
140.3284239999999841
20
-75.3493110000000001
11
140.5349310000000003
21
-75.4293129999999934
0
LINE
8
BLACK
6
CONTINUOUS
10
140.5349310000000003
20
-75.4293129999999934
11
140.7232229999999902
21
-75.545897999999994
0
LINE
8
BLACK
6
CONTINUOUS
10
140.7232229999999902
20
-75.545897999999994
11
140.8868860000000041
21
-75.6950969999999899
0
LINE
8
BLACK
6
CONTINUOUS
10
140.8868860000000041
20
-75.6950969999999899
11
141.0203469999999868
21
-75.8718279999999936
0
LINE
8
BLACK
6
CONTINUOUS
10
141.0203469999999868
20
-75.8718279999999936
11
141.1190619999999853
21
-76.0700729999999936
0
LINE
8
BLACK
6
CONTINUOUS
10
141.1190619999999853
20
-76.0700729999999936
11
141.1796679999999924
21
-76.2830819999999932
0
LINE
8
BLACK
6
CONTINUOUS
10
141.1796679999999924
20
-76.2830819999999932
11
141.2001019999999869
21
-76.5035999999999916
0
LINE
8
BLACK
6
CONTINUOUS
10
141.2001019999999869
20
-76.5035999999999916
11
141.1796679999999924
21
-76.72411799999999
0
LINE
8
BLACK
6
CONTINUOUS
10
141.1796679999999924
20
-76.72411799999999
11
141.1190619999999853
21
-76.9371269999999896
0
LINE
8
BLACK
6
CONTINUOUS
10
141.1190619999999853
20
-76.9371269999999896
11
141.0203469999999868
21
-77.1353719999999896
0
LINE
8
BLACK
6
CONTINUOUS
10
141.0203469999999868
20
-77.1353719999999896
11
140.8868860000000041
21
-77.3121029999999934
0
LINE
8
BLACK
6
CONTINUOUS
10
140.8868860000000041
20
-77.3121029999999934
11
140.7232229999999902
21
-77.4613020000000034
0
LINE
8
BLACK
6
CONTINUOUS
10
140.7232229999999902
20
-77.4613020000000034
11
140.5349310000000003
21
-77.5778869999999898
0
LINE
8
BLACK
6
CONTINUOUS
10
140.5349310000000003
20
-77.5778869999999898
11
140.3284239999999841
21
-77.6578889999999973
0
LINE
8
BLACK
6
CONTINUOUS
10
140.3284239999999841
20
-77.6578889999999973
11
140.110730999999987
21
-77.6985829999999993
0
LINE
8
BLACK
6
CONTINUOUS
10
140.110730999999987
20
-77.6985829999999993
11
139.8892689999999845
21
-77.6985829999999993
0
LINE
8
BLACK
6
CONTINUOUS
10
139.8892689999999845
20
-77.6985829999999993
11
139.6715759999999875
21
-77.6578889999999973
0
LINE
8
BLACK
6
CONTINUOUS
10
139.6715759999999875
20
-77.6578889999999973
11
139.4650689999999997
21
-77.5778869999999898
0
LINE
8
BLACK
6
CONTINUOUS
10
139.4650689999999997
20
-77.5778869999999898
11
139.2767769999999814
21
-77.4613020000000034
0
LINE
8
BLACK
6
CONTINUOUS
10
139.2767769999999814
20
-77.4613020000000034
11
139.1131139999999959
21
-77.3121029999999934
0
LINE
8
BLACK
6
CONTINUOUS
10
139.1131139999999959
20
-77.3121029999999934
11
138.9796529999999848
21
-77.1353719999999896
0
LINE
8
BLACK
6
CONTINUOUS
10
138.9796529999999848
20
-77.1353719999999896
11
138.8809379999999862
21
-76.9371269999999896
0
LINE
8
BLACK
6
CONTINUOUS
10
138.8809379999999862
20
-76.9371269999999896
11
138.8203320000000076
21
-76.72411799999999
0
LINE
8
BLACK
6
CONTINUOUS
10
138.8203320000000076
20
-76.72411799999999
11
138.7998979999999847
21
-76.5035999999999916
0
LINE
8
BLACK
6
CONTINUOUS
10
138.7998979999999847
20
-76.5035999999999916
11
138.8203320000000076
21
-76.2830819999999932
0
LINE
8
BLACK
6
CONTINUOUS
10
138.8203320000000076
20
-76.2830819999999932
11
138.8809379999999862
21
-76.0700729999999936
0
LINE
8
BLACK
6
CONTINUOUS
10
138.8809379999999862
20
-76.0700729999999936
11
138.9796529999999848
21
-75.8718279999999936
0
LINE
8
BLACK
6
CONTINUOUS
10
138.9796529999999848
20
-75.8718279999999936
11
139.1131139999999959
21
-75.6950969999999899
0
LINE
8
BLACK
6
CONTINUOUS
10
139.1131139999999959
20
-75.6950969999999899
11
139.2767769999999814
21
-75.545897999999994
0
LINE
8
BLACK
6
CONTINUOUS
10
139.2767769999999814
20
-75.545897999999994
11
139.4650689999999997
21
-75.4293129999999934
0
LINE
8
BLACK
6
CONTINUOUS
10
139.4650689999999997
20
-75.4293129999999934
11
139.6715759999999875
21
-75.3493110000000001
0
LINE
8
BLACK
6
CONTINUOUS
10
139.6715759999999875
20
-75.3493110000000001
11
139.8892689999999845
21
-75.3086169999999981
0
LINE
8
BLACK
6
CONTINUOUS
10
139.8892689999999845
20
-75.3086169999999981
11
140.110730999999987
21
-75.3086169999999981
0
LINE
8
BLACK
6
CONTINUOUS
10
140.110730999999987
20
-75.3086169999999981
11
140.3284239999999841
21
-75.3493110000000001
0
LINE
8
BLACK
6
CONTINUOUS
10
139.0143689999999879
20
-76.6996539999999953
11
139.0715559999999869
21
-76.8881739999999922
0
LINE
8
BLACK
6
CONTINUOUS
10
139.0715559999999869
20
-76.8881739999999922
11
139.1644220000000018
21
-77.0619149999999991
0
LINE
8
BLACK
6
CONTINUOUS
10
139.1644220000000018
20
-77.0619149999999991
11
139.2893990000000031
21
-77.2142010000000028
0
LINE
8
BLACK
6
CONTINUOUS
10
139.2893990000000031
20
-77.2142010000000028
11
139.4416850000000068
21
-77.3391779999999898
0
LINE
8
BLACK
6
CONTINUOUS
10
139.4416850000000068
20
-77.3391779999999898
11
139.6154259999999852
21
-77.4320439999999905
0
LINE
8
BLACK
6
CONTINUOUS
10
139.6154259999999852
20
-77.4320439999999905
11
139.8039459999999963
21
-77.4892309999999895
0
LINE
8
BLACK
6
CONTINUOUS
10
139.8039459999999963
20
-77.4892309999999895
11
140.
21
-77.5085409999999939
0
LINE
8
BLACK
6
CONTINUOUS
10
140.
20
-77.5085409999999939
11
140.1960540000000037
21
-77.4892309999999895
0
LINE
8
BLACK
6
CONTINUOUS
10
140.1960540000000037
20
-77.4892309999999895
11
140.3845739999999864
21
-77.4320439999999905
0
LINE
8
BLACK
6
CONTINUOUS
10
140.3845739999999864
20
-77.4320439999999905
11
140.5583149999999932
21
-77.3391779999999898
0
LINE
8
BLACK
6
CONTINUOUS
10
140.5583149999999932
20
-77.3391779999999898
11
140.7106009999999969
21
-77.2142010000000028
0
LINE
8
BLACK
6
CONTINUOUS
10
140.7106009999999969
20
-77.2142010000000028
11
140.8355779999999982
21
-77.0619149999999991
0
LINE
8
BLACK
6
CONTINUOUS
10
140.8355779999999982
20
-77.0619149999999991
11
140.9284439999999847
21
-76.8881739999999922
0
LINE
8
BLACK
6
CONTINUOUS
10
140.9284439999999847
20
-76.8881739999999922
11
140.9856309999999837
21
-76.6996539999999953
0
LINE
8
BLACK
6
CONTINUOUS
10
140.9856309999999837
20
-76.6996539999999953
11
141.0049410000000023
21
-76.5035999999999916
0
LINE
8
BLACK
6
CONTINUOUS
10
141.0049410000000023
20
-76.5035999999999916
11
140.9856309999999837
21
-76.3075460000000021
0
LINE
8
BLACK
6
CONTINUOUS
10
140.9856309999999837
20
-76.3075460000000021
11
140.9284439999999847
21
-76.119025999999991
0
LINE
8
BLACK
6
CONTINUOUS
10
140.9284439999999847
20
-76.119025999999991
11
140.8355779999999982
21
-75.9452849999999984
0
LINE
8
BLACK
6
CONTINUOUS
10
140.8355779999999982
20
-75.9452849999999984
11
140.7106009999999969
21
-75.7929989999999947
0
LINE
8
BLACK
6
CONTINUOUS
10
140.7106009999999969
20
-75.7929989999999947
11
140.5583149999999932
21
-75.6680219999999935
0
LINE
8
BLACK
6
CONTINUOUS
10
140.5583149999999932
20
-75.6680219999999935
11
140.3845739999999864
21
-75.5751559999999927
0
LINE
8
BLACK
6
CONTINUOUS
10
140.3845739999999864
20
-75.5751559999999927
11
140.1960540000000037
21
-75.5179689999999937
0
LINE
8
BLACK
6
CONTINUOUS
10
140.1960540000000037
20
-75.5179689999999937
11
140.
21
-75.4986590000000035
0
LINE
8
BLACK
6
CONTINUOUS
10
140.
20
-75.4986590000000035
11
139.8039459999999963
21
-75.5179689999999937
0
LINE
8
BLACK
6
CONTINUOUS
10
139.8039459999999963
20
-75.5179689999999937
11
139.6154259999999852
21
-75.5751559999999927
0
LINE
8
BLACK
6
CONTINUOUS
10
139.6154259999999852
20
-75.5751559999999927
11
139.4416850000000068
21
-75.6680219999999935
0
LINE
8
BLACK
6
CONTINUOUS
10
139.4416850000000068
20
-75.6680219999999935
11
139.2893990000000031
21
-75.7929989999999947
0
LINE
8
BLACK
6
CONTINUOUS
10
139.2893990000000031
20
-75.7929989999999947
11
139.1644220000000018
21
-75.9452849999999984
0
LINE
8
BLACK
6
CONTINUOUS
10
139.1644220000000018
20
-75.9452849999999984
11
139.0715559999999869
21
-76.119025999999991
0
LINE
8
BLACK
6
CONTINUOUS
10
139.0715559999999869
20
-76.119025999999991
11
139.0143689999999879
21
-76.3075460000000021
0
LINE
8
BLACK
6
CONTINUOUS
10
139.0143689999999879
20
-76.3075460000000021
11
138.9950589999999977
21
-76.5035999999999916
0
LINE
8
BLACK
6
CONTINUOUS
10
138.9950589999999977
20
-76.5035999999999916
11
139.0143689999999879
21
-76.6996539999999953
0
LINE
8
BLACK
6
CONTINUOUS
10
82.8284239999999983
20
-72.870711
11
83.0349310000000003
21
-72.9507129999999933
0
LINE
8
BLACK
6
CONTINUOUS
10
83.0349310000000003
20
-72.9507129999999933
11
83.2232229999999902
21
-73.0672979999999939
0
LINE
8
BLACK
6
CONTINUOUS
10
83.2232229999999902
20
-73.0672979999999939
11
83.3868859999999898
21
-73.2164969999999897
0
LINE
8
BLACK
6
CONTINUOUS
10
83.3868859999999898
20
-73.2164969999999897
11
83.520347000000001
21
-73.3932279999999935
0
LINE
8
BLACK
6
CONTINUOUS
10
83.520347000000001
20
-73.3932279999999935
11
83.6190619999999996
21
-73.5914729999999935
0
LINE
8
BLACK
6
CONTINUOUS
10
83.6190619999999996
20
-73.5914729999999935
11
83.6796679999999924
21
-73.804481999999993
0
LINE
8
BLACK
6
CONTINUOUS
10
83.6796679999999924
20
-73.804481999999993
11
83.7001020000000011
21
-74.0249999999999915
0
LINE
8
BLACK
6
CONTINUOUS
10
83.7001020000000011
20
-74.0249999999999915
11
83.6796679999999924
21
-74.2455179999999899
0
LINE
8
BLACK
6
CONTINUOUS
10
83.6796679999999924
20
-74.2455179999999899
11
83.6190619999999996
21
-74.4585270000000037
0
LINE
8
BLACK
6
CONTINUOUS
10
83.6190619999999996
20
-74.4585270000000037
11
83.520347000000001
21
-74.6567720000000037
0
LINE
8
BLACK
6
CONTINUOUS
10
83.520347000000001
20
-74.6567720000000037
11
83.3868859999999898
21
-74.8335029999999932
0
LINE
8
BLACK
6
CONTINUOUS
10
83.3868859999999898
20
-74.8335029999999932
11
83.2232229999999902
21
-74.9827020000000033
0
LINE
8
BLACK
6
CONTINUOUS
10
83.2232229999999902
20
-74.9827020000000033
11
83.0349310000000003
21
-75.0992869999999897
0
LINE
8
BLACK
6
CONTINUOUS
10
83.0349310000000003
20
-75.0992869999999897
11
82.8284239999999983
21
-75.1792889999999971
0
LINE
8
BLACK
6
CONTINUOUS
10
82.8284239999999983
20
-75.1792889999999971
11
82.6107310000000012
21
-75.2199829999999992
0
LINE
8
BLACK
6
CONTINUOUS
10
82.6107310000000012
20
-75.2199829999999992
11
82.3892689999999988
21
-75.2199829999999992
0
LINE
8
BLACK
6
CONTINUOUS
10
82.3892689999999988
20
-75.2199829999999992
11
82.1715760000000017
21
-75.1792889999999971
0
LINE
8
BLACK
6
CONTINUOUS
10
82.1715760000000017
20
-75.1792889999999971
11
81.9650689999999997
21
-75.0992869999999897
0
LINE
8
BLACK
6
CONTINUOUS
10
81.9650689999999997
20
-75.0992869999999897
11
81.7767769999999956
21
-74.9827020000000033
0
LINE
8
BLACK
6
CONTINUOUS
10
81.7767769999999956
20
-74.9827020000000033
11
81.6131139999999959
21
-74.8335029999999932
0
LINE
8
BLACK
6
CONTINUOUS
10
81.6131139999999959
20
-74.8335029999999932
11
81.479652999999999
21
-74.6567720000000037
0
LINE
8
BLACK
6
CONTINUOUS
10
81.479652999999999
20
-74.6567720000000037
11
81.3809380000000004
21
-74.4585270000000037
0
LINE
8
BLACK
6
CONTINUOUS
10
81.3809380000000004
20
-74.4585270000000037
11
81.3203319999999934
21
-74.2455179999999899
0
LINE
8
BLACK
6
CONTINUOUS
10
81.3203319999999934
20
-74.2455179999999899
11
81.2998979999999989
21
-74.0249999999999915
0
LINE
8
BLACK
6
CONTINUOUS
10
81.2998979999999989
20
-74.0249999999999915
11
81.3203319999999934
21
-73.804481999999993
0
LINE
8
BLACK
6
CONTINUOUS
10
81.3203319999999934
20
-73.804481999999993
11
81.3809380000000004
21
-73.5914729999999935
0
LINE
8
BLACK
6
CONTINUOUS
10
81.3809380000000004
20
-73.5914729999999935
11
81.479652999999999
21
-73.3932279999999935
0
LINE
8
BLACK
6
CONTINUOUS
10
81.479652999999999
20
-73.3932279999999935
11
81.6131139999999959
21
-73.2164969999999897
0
LINE
8
BLACK
6
CONTINUOUS
10
81.6131139999999959
20
-73.2164969999999897
11
81.7767769999999956
21
-73.0672979999999939
0
LINE
8
BLACK
6
CONTINUOUS
10
81.7767769999999956
20
-73.0672979999999939
11
81.9650689999999997
21
-72.9507129999999933
0
LINE
8
BLACK
6
CONTINUOUS
10
81.9650689999999997
20
-72.9507129999999933
11
82.1715760000000017
21
-72.870711
0
LINE
8
BLACK
6
CONTINUOUS
10
82.1715760000000017
20
-72.870711
11
82.3892689999999988
21
-72.830016999999998
0
LINE
8
BLACK
6
CONTINUOUS
10
82.3892689999999988
20
-72.830016999999998
11
82.6107310000000012
21
-72.830016999999998
0
LINE
8
BLACK
6
CONTINUOUS
10
82.6107310000000012
20
-72.830016999999998
11
82.8284239999999983
21
-72.870711
0
LINE
8
BLACK
6
CONTINUOUS
10
81.5143690000000021
20
-74.2210539999999952
11
81.5715560000000011
21
-74.4095739999999921
0
LINE
8
BLACK
6
CONTINUOUS
10
81.5715560000000011
20
-74.4095739999999921
11
81.6644220000000018
21
-74.5833149999999989
0
LINE
8
BLACK
6
CONTINUOUS
10
81.6644220000000018
20
-74.5833149999999989
11
81.7893990000000031
21
-74.7356010000000026
0
LINE
8
BLACK
6
CONTINUOUS
10
81.7893990000000031
20
-74.7356010000000026
11
81.9416849999999926
21
-74.8605779999999896
0
LINE
8
BLACK
6
CONTINUOUS
10
81.9416849999999926
20
-74.8605779999999896
11
82.1154259999999994
21
-74.9534439999999904
0
LINE
8
BLACK
6
CONTINUOUS
10
82.1154259999999994
20
-74.9534439999999904
11
82.3039459999999963
21
-75.0106310000000036
0
LINE
8
BLACK
6
CONTINUOUS
10
82.3039459999999963
20
-75.0106310000000036
11
82.5
21
-75.0299409999999938
0
LINE
8
BLACK
6
CONTINUOUS
10
82.5
20
-75.0299409999999938
11
82.6960539999999895
21
-75.0106310000000036
0
LINE
8
BLACK
6
CONTINUOUS
10
82.6960539999999895
20
-75.0106310000000036
11
82.8845740000000006
21
-74.9534439999999904
0
LINE
8
BLACK
6
CONTINUOUS
10
82.8845740000000006
20
-74.9534439999999904
11
83.0583149999999932
21
-74.8605779999999896
0
LINE
8
BLACK
6
CONTINUOUS
10
83.0583149999999932
20
-74.8605779999999896
11
83.2106009999999969
21
-74.7356010000000026
0
LINE
8
BLACK
6
CONTINUOUS
10
83.2106009999999969
20
-74.7356010000000026
11
83.3355779999999982
21
-74.5833149999999989
0
LINE
8
BLACK
6
CONTINUOUS
10
83.3355779999999982
20
-74.5833149999999989
11
83.4284439999999989
21
-74.4095739999999921
0
LINE
8
BLACK
6
CONTINUOUS
10
83.4284439999999989
20
-74.4095739999999921
11
83.4856309999999979
21
-74.2210539999999952
0
LINE
8
BLACK
6
CONTINUOUS
10
83.4856309999999979
20
-74.2210539999999952
11
83.5049410000000023
21
-74.0249999999999915
0
LINE
8
BLACK
6
CONTINUOUS
10
83.5049410000000023
20
-74.0249999999999915
11
83.4856309999999979
21
-73.828946000000002
0
LINE
8
BLACK
6
CONTINUOUS
10
83.4856309999999979
20
-73.828946000000002
11
83.4284439999999989
21
-73.6404259999999908
0
LINE
8
BLACK
6
CONTINUOUS
10
83.4284439999999989
20
-73.6404259999999908
11
83.3355779999999982
21
-73.4666849999999982
0
LINE
8
BLACK
6
CONTINUOUS
10
83.3355779999999982
20
-73.4666849999999982
11
83.2106009999999969
21
-73.3143989999999945
0
LINE
8
BLACK
6
CONTINUOUS
10
83.2106009999999969
20
-73.3143989999999945
11
83.0583149999999932
21
-73.1894219999999933
0
LINE
8
BLACK
6
CONTINUOUS
10
83.0583149999999932
20
-73.1894219999999933
11
82.8845740000000006
21
-73.0965559999999925
0
LINE
8
BLACK
6
CONTINUOUS
10
82.8845740000000006
20
-73.0965559999999925
11
82.6960539999999895
21
-73.0393689999999935
0
LINE
8
BLACK
6
CONTINUOUS
10
82.6960539999999895
20
-73.0393689999999935
11
82.5
21
-73.0200590000000034
0
LINE
8
BLACK
6
CONTINUOUS
10
82.5
20
-73.0200590000000034
11
82.3039459999999963
21
-73.0393689999999935
0
LINE
8
BLACK
6
CONTINUOUS
10
82.3039459999999963
20
-73.0393689999999935
11
82.1154259999999994
21
-73.0965559999999925
0
LINE
8
BLACK
6
CONTINUOUS
10
82.1154259999999994
20
-73.0965559999999925
11
81.9416849999999926
21
-73.1894219999999933
0
LINE
8
BLACK
6
CONTINUOUS
10
81.9416849999999926
20
-73.1894219999999933
11
81.7893990000000031
21
-73.3143989999999945
0
LINE
8
BLACK
6
CONTINUOUS
10
81.7893990000000031
20
-73.3143989999999945
11
81.6644220000000018
21
-73.4666849999999982
0
LINE
8
BLACK
6
CONTINUOUS
10
81.6644220000000018
20
-73.4666849999999982
11
81.5715560000000011
21
-73.6404259999999908
0
LINE
8
BLACK
6
CONTINUOUS
10
81.5715560000000011
20
-73.6404259999999908
11
81.5143690000000021
21
-73.828946000000002
0
LINE
8
BLACK
6
CONTINUOUS
10
81.5143690000000021
20
-73.828946000000002
11
81.4950589999999977
21
-74.0249999999999915
0
LINE
8
BLACK
6
CONTINUOUS
10
81.4950589999999977
20
-74.0249999999999915
11
81.5143690000000021
21
-74.2210539999999952
0
LINE
8
BLACK
6
CONTINUOUS
10
110.7785529999999881
20
-49.3964469999999949
11
119.3035529999999937
21
-49.3964469999999949
0
LINE
8
BLACK
6
CONTINUOUS
10
119.3035529999999937
20
-49.3964469999999949
11
119.3035569999999979
21
-49.3964479999999995
0
LINE
8
BLACK
6
CONTINUOUS
10
119.3035569999999979
20
-49.3964479999999995
11
119.4370629999999949
21
-49.4114799999999974
0
LINE
8
BLACK
6
CONTINUOUS
10
119.4370629999999949
20
-49.4114799999999974
11
119.5638879999999915
21
-49.4558509999999956
0
LINE
8
BLACK
6
CONTINUOUS
10
119.5638879999999915
20
-49.4558509999999956
11
119.6776579999999939
21
-49.5273329999999987
0
LINE
8
BLACK
6
CONTINUOUS
10
119.6776579999999939
20
-49.5273329999999987
11
119.7726669999999984
21
-49.6223419999999962
0
LINE
8
BLACK
6
CONTINUOUS
10
119.7726669999999984
20
-49.6223419999999962
11
119.8441490000000016
21
-49.7361119999999985
0
LINE
8
BLACK
6
CONTINUOUS
10
119.8441490000000016
20
-49.7361119999999985
11
119.8885199999999998
21
-49.8629369999999952
0
LINE
8
BLACK
6
CONTINUOUS
10
119.8885199999999998
20
-49.8629369999999952
11
119.9035509999999931
21
-49.9964419999999947
0
LINE
8
BLACK
6
CONTINUOUS
10
119.9035509999999931
20
-49.9964419999999947
11
119.9035529999999881
21
-49.9964469999999963
0
LINE
8
BLACK
6
CONTINUOUS
10
119.9035529999999881
20
-49.9964469999999963
11
119.9035529999999881
21
-55.3350369999999998
0
LINE
8
BLACK
6
CONTINUOUS
10
119.9035529999999881
20
-55.3350369999999998
11
119.9035549999999972
21
-55.3350369999999998
0
LINE
8
BLACK
6
CONTINUOUS
10
119.9035549999999972
20
-55.3350369999999998
11
119.9035590000000013
21
-55.3876969999999957
0
LINE
8
BLACK
6
CONTINUOUS
10
119.9035590000000013
20
-55.3876969999999957
11
119.9308240000000012
21
-55.4894279999999966
0
LINE
8
BLACK
6
CONTINUOUS
10
119.9308240000000012
20
-55.4894279999999966
11
119.9834879999999941
21
-55.5806380000000004
0
LINE
8
BLACK
6
CONTINUOUS
10
119.9834879999999941
20
-55.5806380000000004
11
120.0579609999999917
21
-55.655110999999998
0
LINE
8
BLACK
6
CONTINUOUS
10
120.0579609999999917
20
-55.655110999999998
11
120.149169999999998
21
-55.707774999999998
0
LINE
8
BLACK
6
CONTINUOUS
10
120.149169999999998
20
-55.707774999999998
11
120.2509009999999989
21
-55.7350409999999954
0
LINE
8
BLACK
6
CONTINUOUS
10
120.2509009999999989
20
-55.7350409999999954
11
120.3035619999999994
21
-55.7350449999999995
0
LINE
8
BLACK
6
CONTINUOUS
10
120.3035619999999994
20
-55.7350449999999995
11
120.3035659999999893
21
-55.735045999999997
0
LINE
8
BLACK
6
CONTINUOUS
10
120.3035659999999893
20
-55.735045999999997
11
129.8285529999999994
21
-55.735045999999997
0
LINE
8
BLACK
6
CONTINUOUS
10
129.8285529999999994
20
-55.735045999999997
11
138.3535530000000051
21
-55.735045999999997
0
LINE
8
BLACK
6
CONTINUOUS
10
138.3535530000000051
20
-55.735045999999997
11
138.353556999999995
21
-55.7350469999999945
0
LINE
8
BLACK
6
CONTINUOUS
10
138.353556999999995
20
-55.7350469999999945
11
138.4870630000000062
21
-55.7500789999999995
0
LINE
8
BLACK
6
CONTINUOUS
10
138.4870630000000062
20
-55.7500789999999995
11
138.6138880000000029
21
-55.7944490000000002
0
LINE
8
BLACK
6
CONTINUOUS
10
138.6138880000000029
20
-55.7944490000000002
11
138.727657999999991
21
-55.8659320000000008
0
LINE
8
BLACK
6
CONTINUOUS
10
138.727657999999991
20
-55.8659320000000008
11
138.8226679999999931
21
-55.9609409999999983
0
LINE
8
BLACK
6
CONTINUOUS
10
138.8226679999999931
20
-55.9609409999999983
11
138.8941499999999962
21
-56.0747110000000006
0
LINE
8
BLACK
6
CONTINUOUS
10
138.8941499999999962
20
-56.0747110000000006
11
138.9385209999999802
21
-56.2015359999999973
0
LINE
8
BLACK
6
CONTINUOUS
10
138.9385209999999802
20
-56.2015359999999973
11
138.9535539999999969
21
-56.335054999999997
0
LINE
8
BLACK
6
CONTINUOUS
10
138.9535539999999969
20
-56.335054999999997
11
138.9535529999999994
21
-56.335054999999997
0
LINE
8
BLACK
6
CONTINUOUS
10
138.9535529999999994
20
-56.335054999999997
11
138.9535529999999994
21
-57.8350369999999998
0
LINE
8
BLACK
6
CONTINUOUS
10
138.9535529999999994
20
-57.8350369999999998
11
138.9535539999999969
21
-57.8350369999999998
0
LINE
8
BLACK
6
CONTINUOUS
10
138.9535539999999969
20
-57.8350369999999998
11
138.9535579999999868
21
-57.8876980000000003
0
LINE
8
BLACK
6
CONTINUOUS
10
138.9535579999999868
20
-57.8876980000000003
11
138.9808229999999867
21
-57.9894289999999941
0
LINE
8
BLACK
6
CONTINUOUS
10
138.9808229999999867
20
-57.9894289999999941
11
139.0334869999999796
21
-58.0806389999999979
0
LINE
8
BLACK
6
CONTINUOUS
10
139.0334869999999796
20
-58.0806389999999979
11
139.1079609999999889
21
-58.1551119999999955
0
LINE
8
BLACK
6
CONTINUOUS
10
139.1079609999999889
20
-58.1551119999999955
11
139.199169999999981
21
-58.2077759999999955
0
LINE
8
BLACK
6
CONTINUOUS
10
139.199169999999981
20
-58.2077759999999955
11
139.3009020000000078
21
-58.235042
0
LINE
8
BLACK
6
CONTINUOUS
10
139.3009020000000078
20
-58.235042
11
139.3535619999999824
21
-58.235045999999997
0
LINE
8
BLACK
6
CONTINUOUS
10
139.3535619999999824
20
-58.235045999999997
11
148.8784220000000005
21
-58.235045999999997
0
LINE
8
BLACK
6
CONTINUOUS
10
148.8784220000000005
20
-58.235045999999997
11
157.8996109999999931
21
-58.2000010000000003
0
LINE
8
BLACK
6
CONTINUOUS
10
157.8996109999999931
20
-58.2000010000000003
11
157.8998049999999864
21
-58.2000630000000001
0
LINE
8
BLACK
6
CONTINUOUS
10
157.8998049999999864
20
-58.2000630000000001
11
157.9000000000000057
21
-58.1999999999999957
0
LINE
8
BLACK
6
CONTINUOUS
10
157.9000000000000057
20
-58.1999999999999957
11
158.8950499999999977
21
-58.1999999999999957
0
LINE
8
BLACK
6
CONTINUOUS
10
158.8950499999999977
20
-58.1999999999999957
11
183.3949999999999818
21
-58.1999999999999957
0
LINE
8
BLACK
6
CONTINUOUS
10
183.3949999999999818
20
-58.1999999999999957
11
183.5285069999999905
21
-58.2150449999999964
0
LINE
8
BLACK
6
CONTINUOUS
10
183.5285069999999905
20
-58.2150449999999964
11
183.6553179999999941
21
-58.2594239999999957
0
LINE
8
BLACK
6
CONTINUOUS
10
183.6553179999999941
20
-58.2594239999999957
11
183.7690719999999942
21
-58.3309110000000004
0
LINE
8
BLACK
6
CONTINUOUS
10
183.7690719999999942
20
-58.3309110000000004
11
183.8640629999999874
21
-58.4259219999999999
0
LINE
8
BLACK
6
CONTINUOUS
10
183.8640629999999874
20
-58.4259219999999999
11
183.935528000000005
21
-58.5396900000000002
0
LINE
8
BLACK
6
CONTINUOUS
10
183.935528000000005
20
-58.5396900000000002
11
183.9798820000000035
21
-58.6665099999999953
0
LINE
8
BLACK
6
CONTINUOUS
10
183.9798820000000035
20
-58.6665099999999953
11
183.9948719999999867
21
-58.7997719999999973
0
LINE
8
BLACK
6
CONTINUOUS
10
183.9948719999999867
20
-58.7997719999999973
11
183.9949459999999988
21
-58.7999999999999972
0
LINE
8
BLACK
6
CONTINUOUS
10
183.9949459999999988
20
-58.7999999999999972
11
183.9949989999999787
21
-104.3999659999999921
0
LINE
8
BLACK
6
CONTINUOUS
10
183.9949989999999787
20
-104.3999659999999921
11
183.9999990000000025
21
-105.8996659999999963
0
LINE
8
BLACK
6
CONTINUOUS
10
183.9999990000000025
20
-105.8996659999999963
11
183.9999449999999968
21
-105.8998319999999893
0
LINE
8
BLACK
6
CONTINUOUS
10
183.9999449999999968
20
-105.8998319999999893
11
184.
21
-105.8999999999999915
0
LINE
8
BLACK
6
CONTINUOUS
10
184.
20
-105.8999999999999915
11
184.
21
-118.3999999999999915
0
LINE
8
BLACK
6
CONTINUOUS
10
184.
20
-118.3999999999999915
11
183.9999430000000018
21
-118.4001749999999902
0
LINE
8
BLACK
6
CONTINUOUS
10
183.9999430000000018
20
-118.4001749999999902
11
183.9981190000000026
21
-118.934944999999999
0
LINE
8
BLACK
6
CONTINUOUS
10
183.9981190000000026
20
-118.934944999999999
11
183.9599800000000016
21
-119.4715739999999897
0
LINE
8
BLACK
6
CONTINUOUS
10
183.9599800000000016
20
-119.4715739999999897
11
183.8857119999999838
21
-120.0044070000000005
0
LINE
8
BLACK
6
CONTINUOUS
10
183.8857119999999838
20
-120.0044070000000005
11
183.7756519999999796
21
-120.5310119999999898
0
LINE
8
BLACK
6
CONTINUOUS
10
183.7756519999999796
20
-120.5310119999999898
11
183.6303029999999978
21
-121.0489879999999943
0
LINE
8
BLACK
6
CONTINUOUS
10
183.6303029999999978
20
-121.0489879999999943
11
183.4503279999999847
21
-121.555973999999992
0
LINE
8
BLACK
6
CONTINUOUS
10
183.4503279999999847
20
-121.555973999999992
11
183.2365460000000041
21
-122.0496579999999938
0
LINE
8
BLACK
6
CONTINUOUS
10
183.2365460000000041
20
-122.0496579999999938
11
182.9899340000000052
21
-122.527788000000001
0
LINE
8
BLACK
6
CONTINUOUS
10
182.9899340000000052
20
-122.527788000000001
11
182.7116149999999948
21
-122.9881839999999897
0
LINE
8
BLACK
6
CONTINUOUS
10
182.7116149999999948
20
-122.9881839999999897
11
182.4028589999999781
21
-123.4287470000000013
0
LINE
8
BLACK
6
CONTINUOUS
10
182.4028589999999781
20
-123.4287470000000013
11
182.0650739999999814
21
-123.8474679999999921
0
LINE
8
BLACK
6
CONTINUOUS
10
182.0650739999999814
20
-123.8474679999999921
11
182.0650859999999795
21
-123.8474779999999953
0
LINE
8
BLACK
6
CONTINUOUS
10
182.0650859999999795
20
-123.8474779999999953
11
182.0644649999999842
21
-123.8478989999999982
0
LINE
8
BLACK
6
CONTINUOUS
10
182.0644649999999842
20
-123.8478989999999982
11
182.0642139999999927
21
-123.8484749999999934
0
LINE
8
BLACK
6
CONTINUOUS
10
182.0642139999999927
20
-123.8484749999999934
11
181.7500749999999812
21
-124.2024609999999996
0
LINE
8
BLACK
6
CONTINUOUS
10
181.7500749999999812
20
-124.2024609999999996
11
160.4659110000000055
21
-149.4577390000000037
0
LINE
8
BLACK
6
CONTINUOUS
10
160.4659110000000055
20
-149.4577390000000037
11
160.4658049999999889
21
-149.4578039999999817
0
LINE
8
BLACK
6
CONTINUOUS
10
160.4658049999999889
20
-149.4578039999999817
11
160.3687070000000006
21
-149.5501840000000016
0
LINE
8
BLACK
6
CONTINUOUS
10
160.3687070000000006
20
-149.5501840000000016
11
160.2531960000000026
21
-149.6188129999999887
0
LINE
8
BLACK
6
CONTINUOUS
10
160.2531960000000026
20
-149.6188129999999887
11
160.1253089999999872
21
-149.6600169999999821
0
LINE
8
BLACK
6
CONTINUOUS
10
160.1253089999999872
20
-149.6600169999999821
11
159.9914599999999893
21
-149.6717319999999916
0
LINE
8
BLACK
6
CONTINUOUS
10
159.9914599999999893
20
-149.6717319999999916
11
159.8583610000000022
21
-149.6533689999999979
0
LINE
8
BLACK
6
CONTINUOUS
10
159.8583610000000022
20
-149.6533689999999979
11
159.7326840000000061
21
-149.6058490000000063
0
LINE
8
BLACK
6
CONTINUOUS
10
159.7326840000000061
20
-149.6058490000000063
11
159.6207330000000013
21
-149.5315549999999973
0
LINE
8
BLACK
6
CONTINUOUS
10
159.6207330000000013
20
-149.5315549999999973
11
159.6207519999999818
21
-149.5315319999999986
0
LINE
8
BLACK
6
CONTINUOUS
10
159.6207519999999818
20
-149.5315319999999986
11
159.6207509999999843
21
-149.5315310000000011
0
LINE
8
BLACK
6
CONTINUOUS
10
159.6207509999999843
20
-149.5315310000000011
11
159.4358019999999954
21
-149.376671999999985
0
LINE
8
BLACK
6
CONTINUOUS
10
159.4358019999999954
20
-149.376671999999985
11
159.4357669999999985
21
-149.3766159999999843
0
LINE
8
BLACK
6
CONTINUOUS
10
159.4357669999999985
20
-149.3766159999999843
11
159.4357069999999794
21
-149.376591999999988
0
LINE
8
BLACK
6
CONTINUOUS
10
159.4357069999999794
20
-149.376591999999988
11
145.8418130000000019
21
-137.9655109999999922
0
LINE
8
BLACK
6
CONTINUOUS
10
145.8418130000000019
20
-137.9655109999999922
11
145.7774069999999824
21
-137.9204100000000039
0
LINE
8
BLACK
6
CONTINUOUS
10
145.7774069999999824
20
-137.9204100000000039
11
145.6337259999999958
21
-137.8374519999999848
0
LINE
8
BLACK
6
CONTINUOUS
10
145.6337259999999958
20
-137.8374519999999848
11
145.4833610000000022
21
-137.7673360000000002
0
LINE
8
BLACK
6
CONTINUOUS
10
145.4833610000000022
20
-137.7673360000000002
11
145.4054079999999942
21
-137.7389650000000074
0
LINE
8
BLACK
6
CONTINUOUS
10
145.4054079999999942
20
-137.7389650000000074
11
145.4054089999999917
21
-137.7389650000000074
0
LINE
8
BLACK
6
CONTINUOUS
10
145.4054089999999917
20
-137.7389650000000074
11
145.4054069999999967
21
-137.7389639999999815
0
LINE
8
BLACK
6
CONTINUOUS
10
145.4054069999999967
20
-137.7389639999999815
11
145.4054059999999993
21
-137.7389639999999815
0
LINE
8
BLACK
6
CONTINUOUS
10
145.4054059999999993
20
-137.7389639999999815
11
127.8795779999999951
21
-131.3600840000000005
0
LINE
8
BLACK
6
CONTINUOUS
10
127.8795779999999951
20
-131.3600840000000005
11
127.8035879999999906
21
-131.3397199999999998
0
LINE
8
BLACK
6
CONTINUOUS
10
127.8035879999999906
20
-131.3397199999999998
11
127.640199999999993
21
-131.3109059999999886
0
LINE
8
BLACK
6
CONTINUOUS
10
127.640199999999993
20
-131.3109059999999886
11
127.4749219999999923
21
-131.2964460000000031
0
LINE
8
BLACK
6
CONTINUOUS
10
127.4749219999999923
20
-131.2964460000000031
11
127.391966999999994
21
-131.2964470000000006
0
LINE
8
BLACK
6
CONTINUOUS
10
127.391966999999994
20
-131.2964470000000006
11
127.391964999999999
21
-131.2964460000000031
0
LINE
8
BLACK
6
CONTINUOUS
10
127.391964999999999
20
-131.2964460000000031
11
127.391964999999999
21
-131.2964470000000006
0
LINE
8
BLACK
6
CONTINUOUS
10
127.391964999999999
20
-131.2964470000000006
11
118.0644439999999946
21
-131.2964470000000006
0
LINE
8
BLACK
6
CONTINUOUS
10
118.0644439999999946
20
-131.2964470000000006
11
109.3705839999999938
21
-131.2964470000000006
0
LINE
8
BLACK
6
CONTINUOUS
10
109.3705839999999938
20
-131.2964470000000006
11
109.3705819999999989
21
-131.2964460000000031
0
LINE
8
BLACK
6
CONTINUOUS
10
109.3705819999999989
20
-131.2964460000000031
11
109.3705810000000014
21
-131.2964470000000006
0
LINE
8
BLACK
6
CONTINUOUS
10
109.3705810000000014
20
-131.2964470000000006
11
109.2543309999999934
21
-131.2850750000000062
0
LINE
8
BLACK
6
CONTINUOUS
10
109.2543309999999934
20
-131.2850750000000062
11
109.142485999999991
21
-131.2513959999999997
0
LINE
8
BLACK
6
CONTINUOUS
10
109.142485999999991
20
-131.2513959999999997
11
109.0392859999999899
21
-131.1966869999999972
0
LINE
8
BLACK
6
CONTINUOUS
10
109.0392859999999899
20
-131.1966869999999972
11
108.948639
21
-131.1230209999999943
0
LINE
8
BLACK
6
CONTINUOUS
10
108.948639
20
-131.1230209999999943
11
108.873981999999998
21
-131.0331899999999905
0
LINE
8
BLACK
6
CONTINUOUS
10
108.873981999999998
20
-131.0331899999999905
11
108.8181429999999921
21
-130.93059599999998
0
LINE
8
BLACK
6
CONTINUOUS
10
108.8181429999999921
20
-130.93059599999998
11
108.8181560000000019
21
-130.9305909999999926
0
LINE
8
BLACK
6
CONTINUOUS
10
108.8181560000000019
20
-130.9305909999999926
11
108.8181549999999902
21
-130.9305860000000052
0
LINE
8
BLACK
6
CONTINUOUS
10
108.8181549999999902
20
-130.9305860000000052
11
108.8181529999999952
21
-130.9305839999999819
0
LINE
8
BLACK
6
CONTINUOUS
10
108.8181529999999952
20
-130.9305839999999819
11
100.7907009999999985
21
-111.9903549999999939
0
LINE
8
BLACK
6
CONTINUOUS
10
100.7907009999999985
20
-111.9903549999999939
11
100.7906949999999995
21
-111.9902919999999966
0
LINE
8
BLACK
6
CONTINUOUS
10
100.7906949999999995
20
-111.9902919999999966
11
100.7723469999999963
21
-111.9470859999999988
0
LINE
8
BLACK
6
CONTINUOUS
10
100.7723469999999963
20
-111.9470859999999988
11
100.7165820000000025
21
-111.871389999999991
0
LINE
8
BLACK
6
CONTINUOUS
10
100.7165820000000025
20
-111.871389999999991
11
100.6447879999999913
21
-111.8106849999999923
0
LINE
8
BLACK
6
CONTINUOUS
10
100.6447879999999913
20
-111.8106849999999923
11
100.5608769999999907
21
-111.7682769999999977
0
LINE
8
BLACK
6
CONTINUOUS
10
100.5608769999999907
20
-111.7682769999999977
11
100.4694199999999995
21
-111.7464779999999962
0
LINE
8
BLACK
6
CONTINUOUS
10
100.4694199999999995
20
-111.7464779999999962
11
100.4224099999999993
21
-111.7464469999999892
0
LINE
8
BLACK
6
CONTINUOUS
10
100.4224099999999993
20
-111.7464469999999892
11
100.4224059999999952
21
-111.7464459999999917
0
LINE
8
BLACK
6
CONTINUOUS
10
100.4224059999999952
20
-111.7464459999999917
11
91.7285529999999909
21
-111.7464459999999917
0
LINE
8
BLACK
6
CONTINUOUS
10
91.7285529999999909
20
-111.7464459999999917
11
82.2035529999999994
21
-111.7464459999999917
0
LINE
8
BLACK
6
CONTINUOUS
10
82.2035529999999994
20
-111.7464459999999917
11
82.2035379999999947
21
-111.7464409999999901
0
LINE
8
BLACK
6
CONTINUOUS
10
82.2035379999999947
20
-111.7464409999999901
11
82.2035219999999924
21
-111.7464459999999917
0
LINE
8
BLACK
6
CONTINUOUS
10
82.2035219999999924
20
-111.7464459999999917
11
82.2035219999999924
21
-111.746454
0
LINE
8
BLACK
6
CONTINUOUS
10
82.2035219999999924
20
-111.746454
11
82.1508619999999894
21
-111.7464409999999901
0
LINE
8
BLACK
6
CONTINUOUS
10
82.1508619999999894
20
-111.7464409999999901
11
82.0491229999999945
21
-111.7736790000000013
0
LINE
8
BLACK
6
CONTINUOUS
10
82.0491229999999945
20
-111.7736790000000013
11
81.9579069999999916
21
-111.8263299999999987
0
LINE
8
BLACK
6
CONTINUOUS
10
81.9579069999999916
20
-111.8263299999999987
11
81.8834329999999966
21
-111.9008029999999962
0
LINE
8
BLACK
6
CONTINUOUS
10
81.8834329999999966
20
-111.9008029999999962
11
81.8307810000000018
21
-111.9920189999999991
0
LINE
8
BLACK
6
CONTINUOUS
10
81.8307810000000018
20
-111.9920189999999991
11
81.8035409999999956
21
-112.0937569999999965
0
LINE
8
BLACK
6
CONTINUOUS
10
81.8035409999999956
20
-112.0937569999999965
11
81.8035539999999912
21
-112.1464179999999971
0
LINE
8
BLACK
6
CONTINUOUS
10
81.8035539999999912
20
-112.1464179999999971
11
81.8035489999999896
21
-112.1464330000000018
0
LINE
8
BLACK
6
CONTINUOUS
10
81.8035489999999896
20
-112.1464330000000018
11
81.8035539999999912
21
-112.1464459999999974
0
LINE
8
BLACK
6
CONTINUOUS
10
81.8035539999999912
20
-112.1464459999999974
11
81.8035539999999912
21
-123.1464469999999949
0
LINE
8
BLACK
6
CONTINUOUS
10
81.8035539999999912
20
-123.1464469999999949
11
81.8035489999999896
21
-123.1464599999999905
0
LINE
8
BLACK
6
CONTINUOUS
10
81.8035489999999896
20
-123.1464599999999905
11
81.8035539999999912
21
-123.1464759999999927
0
LINE
8
BLACK
6
CONTINUOUS
10
81.8035539999999912
20
-123.1464759999999927
11
81.7884789999999953
21
-123.2799679999999967
0
LINE
8
BLACK
6
CONTINUOUS
10
81.7884789999999953
20
-123.2799679999999967
11
81.7440879999999908
21
-123.406762999999998
0
LINE
8
BLACK
6
CONTINUOUS
10
81.7440879999999908
20
-123.406762999999998
11
81.6726060000000018
21
-123.5205069999999949
0
LINE
8
BLACK
6
CONTINUOUS
10
81.6726060000000018
20
-123.5205069999999949
11
81.5776129999999995
21
-123.6155009999999947
0
LINE
8
BLACK
6
CONTINUOUS
10
81.5776129999999995
20
-123.6155009999999947
11
81.4638709999999975
21
-123.6869849999999929
0
LINE
8
BLACK
6
CONTINUOUS
10
81.4638709999999975
20
-123.6869849999999929
11
81.3370769999999936
21
-123.7313769999999948
0
LINE
8
BLACK
6
CONTINUOUS
10
81.3370769999999936
20
-123.7313769999999948
11
81.2035849999999897
21
-123.746454
0
LINE
8
BLACK
6
CONTINUOUS
10
81.2035849999999897
20
-123.746454
11
81.2035849999999897
21
-123.7464469999999892
0
LINE
8
BLACK
6
CONTINUOUS
10
81.2035849999999897
20
-123.7464469999999892
11
81.20356799999999
21
-123.7464419999999876
0
LINE
8
BLACK
6
CONTINUOUS
10
81.20356799999999
20
-123.7464419999999876
11
81.2035539999999969
21
-123.7464469999999892
0
LINE
8
BLACK
6
CONTINUOUS
10
81.2035539999999969
20
-123.7464469999999892
11
72.6785529999999937
21
-123.7464469999999892
0
LINE
8
BLACK
6
CONTINUOUS
10
72.6785529999999937
20
-123.7464469999999892
11
64.1535530000000023
21
-123.7464469999999892
0
LINE
8
BLACK
6
CONTINUOUS
10
64.1535530000000023
20
-123.7464469999999892
11
64.1535480000000007
21
-123.7464449999999943
0
LINE
8
BLACK
6
CONTINUOUS
10
64.1535480000000007
20
-123.7464449999999943
11
64.1535439999999966
21
-123.7464469999999892
0
LINE
8
BLACK
6
CONTINUOUS
10
64.1535439999999966
20
-123.7464469999999892
11
64.0200379999999996
21
-123.7313939999999945
0
LINE
8
BLACK
6
CONTINUOUS
10
64.0200379999999996
20
-123.7313939999999945
11
63.8932280000000006
21
-123.6870129999999932
0
LINE
8
BLACK
6
CONTINUOUS
10
63.8932280000000006
20
-123.6870129999999932
11
63.7794709999999938
21
-123.6155309999999901
0
LINE
8
BLACK
6
CONTINUOUS
10
63.7794709999999938
20
-123.6155309999999901
11
63.684469
21
-123.5205289999999962
0
LINE
8
BLACK
6
CONTINUOUS
10
63.684469
20
-123.5205289999999962
11
63.6129869999999968
21
-123.4067719999999895
0
LINE
8
BLACK
6
CONTINUOUS
10
63.6129869999999968
20
-123.4067719999999895
11
63.5686059999999955
21
-123.2799619999999976
0
LINE
8
BLACK
6
CONTINUOUS
10
63.5686059999999955
20
-123.2799619999999976
11
63.5535529999999937
21
-123.1464560000000006
0
LINE
8
BLACK
6
CONTINUOUS
10
63.5535529999999937
20
-123.1464560000000006
11
63.5535539999999983
21
-123.146450999999999
0
LINE
8
BLACK
6
CONTINUOUS
10
63.5535539999999983
20
-123.146450999999999
11
63.5535529999999937
21
-123.1464469999999949
0
LINE
8
BLACK
6
CONTINUOUS
10
63.5535529999999937
20
-123.1464469999999949
11
63.5535529999999937
21
-67.9964480000000009
0
LINE
8
BLACK
6
CONTINUOUS
10
63.5535529999999937
20
-67.9964480000000009
11
63.5535539999999983
21
-67.9964429999999993
0
LINE
8
BLACK
6
CONTINUOUS
10
63.5535539999999983
20
-67.9964429999999993
11
63.5685849999999988
21
-67.8629320000000007
0
LINE
8
BLACK
6
CONTINUOUS
10
63.5685849999999988
20
-67.8629320000000007
11
63.6129519999999999
21
-67.7360999999999933
0
LINE
8
BLACK
6
CONTINUOUS
10
63.6129519999999999
20
-67.7360999999999933
11
63.6844289999999944
21
-67.6223209999999995
0
LINE
8
BLACK
6
CONTINUOUS
10
63.6844289999999944
20
-67.6223209999999995
11
63.7794329999999974
21
-67.5272999999999968
0
LINE
8
BLACK
6
CONTINUOUS
10
63.7794329999999974
20
-67.5272999999999968
11
63.8931989999999956
21
-67.4558009999999939
0
LINE
8
BLACK
6
CONTINUOUS
10
63.8931989999999956
20
-67.4558009999999939
11
64.0200219999999973
21
-67.4114100000000036
0
LINE
8
BLACK
6
CONTINUOUS
10
64.0200219999999973
20
-67.4114100000000036
11
64.1535439999999966
21
-67.3963529999999906
0
LINE
8
BLACK
6
CONTINUOUS
10
64.1535439999999966
20
-67.3963529999999906
11
64.1535439999999966
21
-67.3964469999999949
0
LINE
8
BLACK
6
CONTINUOUS
10
64.1535439999999966
20
-67.3964469999999949
11
64.1535480000000007
21
-67.3964479999999924
0
LINE
8
BLACK
6
CONTINUOUS
10
64.1535480000000007
20
-67.3964479999999924
11
64.1535530000000023
21
-67.3964469999999949
0
LINE
8
BLACK
6
CONTINUOUS
10
64.1535530000000023
20
-67.3964469999999949
11
72.6785529999999937
21
-67.3964469999999949
0
LINE
8
BLACK
6
CONTINUOUS
10
72.6785529999999937
20
-67.3964469999999949
11
82.2035529999999994
21
-67.3964469999999949
0
LINE
8
BLACK
6
CONTINUOUS
10
82.2035529999999994
20
-67.3964469999999949
11
82.2035569999999893
21
-67.3964479999999924
0
LINE
8
BLACK
6
CONTINUOUS
10
82.2035569999999893
20
-67.3964479999999924
11
82.2035619999999909
21
-67.3964469999999949
0
LINE
8
BLACK
6
CONTINUOUS
10
82.2035619999999909
20
-67.3964469999999949
11
82.2035619999999909
21
-67.396449000000004
0
LINE
8
BLACK
6
CONTINUOUS
10
82.2035619999999909
20
-67.396449000000004
11
82.20356799999999
21
-67.3964519999999965
0
LINE
8
BLACK
6
CONTINUOUS
10
82.20356799999999
20
-67.3964519999999965
11
82.2562240000000031
21
-67.3964560000000006
0
LINE
8
BLACK
6
CONTINUOUS
10
82.2562240000000031
20
-67.3964560000000006
11
82.3579589999999939
21
-67.3692029999999988
0
LINE
8
BLACK
6
CONTINUOUS
10
82.3579589999999939
20
-67.3692029999999988
11
82.4491730000000018
21
-67.3165439999999933
0
LINE
8
BLACK
6
CONTINUOUS
10
82.4491730000000018
20
-67.3165439999999933
11
82.5236459999999994
21
-67.2420690000000008
0
LINE
8
BLACK
6
CONTINUOUS
10
82.5236459999999994
20
-67.2420690000000008
11
82.5763039999999933
21
-67.1508549999999929
0
LINE
8
BLACK
6
CONTINUOUS
10
82.5763039999999933
20
-67.1508549999999929
11
82.6035559999999975
21
-67.0491200000000021
0
LINE
8
BLACK
6
CONTINUOUS
10
82.6035559999999975
20
-67.0491200000000021
11
82.6035519999999934
21
-66.9964580000000041
0
LINE
8
BLACK
6
CONTINUOUS
10
82.6035519999999934
20
-66.9964580000000041
11
82.6035540000000026
21
-66.9964499999999958
0
LINE
8
BLACK
6
CONTINUOUS
10
82.6035540000000026
20
-66.9964499999999958
11
82.6035529999999909
21
-66.9964470000000034
0
LINE
8
BLACK
6
CONTINUOUS
10
82.6035529999999909
20
-66.9964470000000034
11
82.6035529999999909
21
-55.9964469999999963
0
LINE
8
BLACK
6
CONTINUOUS
10
82.6035529999999909
20
-55.9964469999999963
11
82.603556999999995
21
-55.9964309999999941
0
LINE
8
BLACK
6
CONTINUOUS
10
82.603556999999995
20
-55.9964309999999941
11
82.6185649999999896
21
-55.8629429999999942
0
LINE
8
BLACK
6
CONTINUOUS
10
82.6185649999999896
20
-55.8629429999999942
11
82.6629250000000013
21
-55.7361019999999954
0
LINE
8
BLACK
6
CONTINUOUS
10
82.6629250000000013
20
-55.7361019999999954
11
82.7344069999999903
21
-55.6223189999999974
0
LINE
8
BLACK
6
CONTINUOUS
10
82.7344069999999903
20
-55.6223189999999974
11
82.829424000000003
21
-55.5273019999999988
0
LINE
8
BLACK
6
CONTINUOUS
10
82.829424000000003
20
-55.5273019999999988
11
82.943208999999996
21
-55.4558210000000003
0
LINE
8
BLACK
6
CONTINUOUS
10
82.943208999999996
20
-55.4558210000000003
11
83.0700499999999948
21
-55.4114629999999977
0
LINE
8
BLACK
6
CONTINUOUS
10
83.0700499999999948
20
-55.4114629999999977
11
83.2035079999999994
21
-55.3964609999999951
0
LINE
8
BLACK
6
CONTINUOUS
10
83.2035079999999994
20
-55.3964609999999951
11
83.2035529999999994
21
-55.3964469999999949
0
LINE
8
BLACK
6
CONTINUOUS
10
83.2035529999999994
20
-55.3964469999999949
11
91.7285529999999909
21
-55.3964469999999949
0
LINE
8
BLACK
6
CONTINUOUS
10
91.7285529999999909
20
-55.3964469999999949
11
101.2535539999999941
21
-55.3964469999999949
0
LINE
8
BLACK
6
CONTINUOUS
10
101.2535539999999941
20
-55.3964469999999949
11
101.2535749999999979
21
-55.3964529999999939
0
LINE
8
BLACK
6
CONTINUOUS
10
101.2535749999999979
20
-55.3964529999999939
11
101.3061840000000018
21
-55.3964399999999983
0
LINE
8
BLACK
6
CONTINUOUS
10
101.3061840000000018
20
-55.3964399999999983
11
101.4079119999999961
21
-55.3691600000000008
0
LINE
8
BLACK
6
CONTINUOUS
10
101.4079119999999961
20
-55.3691600000000008
11
101.4991189999999932
21
-55.3164889999999971
0
LINE
8
BLACK
6
CONTINUOUS
10
101.4991189999999932
20
-55.3164889999999971
11
101.5735919999999908
21
-55.2420139999999975
0
LINE
8
BLACK
6
CONTINUOUS
10
101.5735919999999908
20
-55.2420139999999975
11
101.626261999999997
21
-55.1508070000000004
0
LINE
8
BLACK
6
CONTINUOUS
10
101.626261999999997
20
-55.1508070000000004
11
101.6535409999999899
21
-55.049078999999999
0
LINE
8
BLACK
6
CONTINUOUS
10
101.6535409999999899
20
-55.049078999999999
11
101.6535530000000023
21
-54.9964499999999958
0
LINE
8
BLACK
6
CONTINUOUS
10
101.6535530000000023
20
-54.9964499999999958
11
101.6535530000000023
21
-54.9964469999999963
0
LINE
8
BLACK
6
CONTINUOUS
10
101.6535530000000023
20
-54.9964469999999963
11
101.6535530000000023
21
-49.9964469999999963
0
LINE
8
BLACK
6
CONTINUOUS
10
101.6535530000000023
20
-49.9964469999999963
11
101.6535569999999922
21
-49.9964310000000012
0
LINE
8
BLACK
6
CONTINUOUS
10
101.6535569999999922
20
-49.9964310000000012
11
101.668565000000001
21
-49.8629429999999942
0
LINE
8
BLACK
6
CONTINUOUS
10
101.668565000000001
20
-49.8629429999999942
11
101.7129249999999985
21
-49.7361019999999954
0
LINE
8
BLACK
6
CONTINUOUS
10
101.7129249999999985
20
-49.7361019999999954
11
101.7844070000000016
21
-49.6223189999999974
0
LINE
8
BLACK
6
CONTINUOUS
10
101.7844070000000016
20
-49.6223189999999974
11
101.8794240000000002
21
-49.5273019999999988
0
LINE
8
BLACK
6
CONTINUOUS
10
101.8794240000000002
20
-49.5273019999999988
11
101.9932089999999931
21
-49.4558210000000003
0
LINE
8
BLACK
6
CONTINUOUS
10
101.9932089999999931
20
-49.4558210000000003
11
102.120049999999992
21
-49.4114629999999977
0
LINE
8
BLACK
6
CONTINUOUS
10
102.120049999999992
20
-49.4114629999999977
11
102.2535079999999965
21
-49.3964609999999951
0
LINE
8
BLACK
6
CONTINUOUS
10
102.2535079999999965
20
-49.3964609999999951
11
102.2535529999999966
21
-49.3964469999999949
0
LINE
8
BLACK
6
CONTINUOUS
10
102.2535529999999966
20
-49.3964469999999949
11
110.7785529999999881
21
-49.3964469999999949
0
LINE
8
BLACK
6
CONTINUOUS
10
102.0991229999999916
20
-49.6236779999999982
11
102.0079059999999913
21
-49.6763289999999955
0
LINE
8
BLACK
6
CONTINUOUS
10
102.0079059999999913
20
-49.6763289999999955
11
101.9334319999999963
21
-49.7508020000000002
0
LINE
8
BLACK
6
CONTINUOUS
10
101.9334319999999963
20
-49.7508020000000002
11
101.8807800000000015
21
-49.8420190000000005
0
LINE
8
BLACK
6
CONTINUOUS
10
101.8807800000000015
20
-49.8420190000000005
11
101.8535399999999953
21
-49.943756999999998
0
LINE
8
BLACK
6
CONTINUOUS
10
101.8535399999999953
20
-49.943756999999998
11
101.8535529999999909
21
-49.9964179999999985
0
LINE
8
BLACK
6
CONTINUOUS
10
101.8535529999999909
20
-49.9964179999999985
11
101.8535479999999893
21
-49.9964329999999961
0
LINE
8
BLACK
6
CONTINUOUS
10
101.8535479999999893
20
-49.9964329999999961
11
101.8535529999999909
21
-49.9964469999999963
0
LINE
8
BLACK
6
CONTINUOUS
10
101.8535529999999909
20
-49.9964469999999963
11
101.8535529999999909
21
-54.9964469999999963
0
LINE
8
BLACK
6
CONTINUOUS
10
101.8535529999999909
20
-54.9964469999999963
11
101.853549000000001
21
-54.996457999999997
0
LINE
8
BLACK
6
CONTINUOUS
10
101.853549000000001
20
-54.996457999999997
11
101.8535539999999884
21
-54.9964759999999941
0
LINE
8
BLACK
6
CONTINUOUS
10
101.8535539999999884
20
-54.9964759999999941
11
101.8384789999999924
21
-55.1299679999999981
0
LINE
8
BLACK
6
CONTINUOUS
10
101.8384789999999924
20
-55.1299679999999981
11
101.7940880000000021
21
-55.2567629999999994
0
LINE
8
BLACK
6
CONTINUOUS
10
101.7940880000000021
20
-55.2567629999999994
11
101.722605999999999
21
-55.3705069999999964
0
LINE
8
BLACK
6
CONTINUOUS
10
101.722605999999999
20
-55.3705069999999964
11
101.6276129999999966
21
-55.4655009999999962
0
LINE
8
BLACK
6
CONTINUOUS
10
101.6276129999999966
20
-55.4655009999999962
11
101.5138709999999946
21
-55.5369849999999943
0
LINE
8
BLACK
6
CONTINUOUS
10
101.5138709999999946
20
-55.5369849999999943
11
101.3870769999999908
21
-55.5813769999999963
0
LINE
8
BLACK
6
CONTINUOUS
10
101.3870769999999908
20
-55.5813769999999963
11
101.2535850000000011
21
-55.5964539999999943
0
LINE
8
BLACK
6
CONTINUOUS
10
101.2535850000000011
20
-55.5964539999999943
11
101.2535850000000011
21
-55.5964469999999977
0
LINE
8
BLACK
6
CONTINUOUS
10
101.2535850000000011
20
-55.5964469999999977
11
101.2535680000000013
21
-55.5964419999999961
0
LINE
8
BLACK
6
CONTINUOUS
10
101.2535680000000013
20
-55.5964419999999961
11
101.2535539999999941
21
-55.5964469999999977
0
LINE
8
BLACK
6
CONTINUOUS
10
101.2535539999999941
20
-55.5964469999999977
11
91.7285529999999909
21
-55.5964469999999977
0
LINE
8
BLACK
6
CONTINUOUS
10
91.7285529999999909
20
-55.5964469999999977
11
83.2035529999999994
21
-55.5964469999999977
0
LINE
8
BLACK
6
CONTINUOUS
10
83.2035529999999994
20
-55.5964469999999977
11
83.2035379999999947
21
-55.5964419999999961
0
LINE
8
BLACK
6
CONTINUOUS
10
83.2035379999999947
20
-55.5964419999999961
11
83.2035219999999924
21
-55.5964469999999977
0
LINE
8
BLACK
6
CONTINUOUS
10
83.2035219999999924
20
-55.5964469999999977
11
83.2035219999999924
21
-55.5964529999999968
0
LINE
8
BLACK
6
CONTINUOUS
10
83.2035219999999924
20
-55.5964529999999968
11
83.1508619999999894
21
-55.5964399999999941
0
LINE
8
BLACK
6
CONTINUOUS
10
83.1508619999999894
20
-55.5964399999999941
11
83.0491229999999945
21
-55.6236779999999982
0
LINE
8
BLACK
6
CONTINUOUS
10
83.0491229999999945
20
-55.6236779999999982
11
82.9579059999999942
21
-55.6763289999999955
0
LINE
8
BLACK
6
CONTINUOUS
10
82.9579059999999942
20
-55.6763289999999955
11
82.8834319999999991
21
-55.7508020000000002
0
LINE
8
BLACK
6
CONTINUOUS
10
82.8834319999999991
20
-55.7508020000000002
11
82.8307799999999901
21
-55.8420190000000005
0
LINE
8
BLACK
6
CONTINUOUS
10
82.8307799999999901
20
-55.8420190000000005
11
82.8035399999999981
21
-55.943756999999998
0
LINE
8
BLACK
6
CONTINUOUS
10
82.8035399999999981
20
-55.943756999999998
11
82.8035529999999937
21
-55.9964179999999985
0
LINE
8
BLACK
6
CONTINUOUS
10
82.8035529999999937
20
-55.9964179999999985
11
82.8035479999999922
21
-55.9964329999999961
0
LINE
8
BLACK
6
CONTINUOUS
10
82.8035479999999922
20
-55.9964329999999961
11
82.8035529999999937
21
-55.9964469999999963
0
LINE
8
BLACK
6
CONTINUOUS
10
82.8035529999999937
20
-55.9964469999999963
11
82.8035529999999937
21
-66.9964470000000034
0
LINE
8
BLACK
6
CONTINUOUS
10
82.8035529999999937
20
-66.9964470000000034
11
82.8035489999999896
21
-66.9964559999999949
0
LINE
8
BLACK
6
CONTINUOUS
10
82.8035489999999896
20
-66.9964559999999949
11
82.7885199999999912
21
-67.129958000000002
0
LINE
8
BLACK
6
CONTINUOUS
10
82.7885199999999912
20
-67.129958000000002
11
82.7441499999999905
21
-67.2567839999999961
0
LINE
8
BLACK
6
CONTINUOUS
10
82.7441499999999905
20
-67.2567839999999961
11
82.6726689999999991
21
-67.370554999999996
0
LINE
8
BLACK
6
CONTINUOUS
10
82.6726689999999991
20
-67.370554999999996
11
82.5776599999999945
21
-67.465564999999998
0
LINE
8
BLACK
6
CONTINUOUS
10
82.5776599999999945
20
-67.465564999999998
11
82.4638889999999947
21
-67.5370479999999986
0
LINE
8
BLACK
6
CONTINUOUS
10
82.4638889999999947
20
-67.5370479999999986
11
82.3370630000000006
21
-67.5814189999999968
0
LINE
8
BLACK
6
CONTINUOUS
10
82.3370630000000006
20
-67.5814189999999968
11
82.2035439999999937
21
-67.5964519999999993
0
LINE
8
BLACK
6
CONTINUOUS
10
82.2035439999999937
20
-67.5964519999999993
11
82.2035439999999937
21
-67.5964469999999977
0
LINE
8
BLACK
6
CONTINUOUS
10
82.2035439999999937
20
-67.5964469999999977
11
72.6785529999999937
21
-67.5964469999999977
0
LINE
8
BLACK
6
CONTINUOUS
10
72.6785529999999937
20
-67.5964469999999977
11
64.1535619999999938
21
-67.5964469999999977
0
LINE
8
BLACK
6
CONTINUOUS
10
64.1535619999999938
20
-67.5964469999999977
11
64.1535530000000023
21
-67.5964469999999977
0
LINE
8
BLACK
6
CONTINUOUS
10
64.1535530000000023
20
-67.5964469999999977
11
64.1532629999999955
21
-67.5963529999999935
0
LINE
8
BLACK
6
CONTINUOUS
10
64.1532629999999955
20
-67.5963529999999935
11
64.1008949999999942
21
-67.5963579999999951
0
LINE
8
BLACK
6
CONTINUOUS
10
64.1008949999999942
20
-67.5963579999999951
11
63.9991529999999997
21
-67.6236299999999915
0
LINE
8
BLACK
6
CONTINUOUS
10
63.9991529999999997
20
-67.6236299999999915
11
63.9079349999999948
21
-67.6763059999999967
0
LINE
8
BLACK
6
CONTINUOUS
10
63.9079349999999948
20
-67.6763059999999967
11
63.8334599999999952
21
-67.7507949999999965
0
LINE
8
BLACK
6
CONTINUOUS
10
63.8334599999999952
20
-67.7507949999999965
11
63.7808009999999967
21
-67.8420229999999975
0
LINE
8
BLACK
6
CONTINUOUS
10
63.7808009999999967
20
-67.8420229999999975
11
63.753547999999995
21
-67.9437700000000007
0
LINE
8
BLACK
6
CONTINUOUS
10
63.753547999999995
20
-67.9437700000000007
11
63.7535529999999966
21
-67.9964379999999977
0
LINE
8
BLACK
6
CONTINUOUS
10
63.7535529999999966
20
-67.9964379999999977
11
63.7535509999999945
21
-67.9964429999999993
0
LINE
8
BLACK
6
CONTINUOUS
10
63.7535509999999945
20
-67.9964429999999993
11
63.7535529999999966
21
-67.9964480000000009
0
LINE
8
BLACK
6
CONTINUOUS
10
63.7535529999999966
20
-67.9964480000000009
11
63.7535529999999966
21
-123.1464379999999892
0
LINE
8
BLACK
6
CONTINUOUS
10
63.7535529999999966
20
-123.1464379999999892
11
63.7535569999999936
21
-123.1990989999999897
0
LINE
8
BLACK
6
CONTINUOUS
10
63.7535569999999936
20
-123.1990989999999897
11
63.780822999999998
21
-123.3008299999999906
0
LINE
8
BLACK
6
CONTINUOUS
10
63.780822999999998
20
-123.3008299999999906
11
63.8334869999999981
21
-123.3920399999999944
0
LINE
8
BLACK
6
CONTINUOUS
10
63.8334869999999981
20
-123.3920399999999944
11
63.9079599999999957
21
-123.466512999999992
0
LINE
8
BLACK
6
CONTINUOUS
10
63.9079599999999957
20
-123.466512999999992
11
63.9991699999999994
21
-123.5191769999999991
0
LINE
8
BLACK
6
CONTINUOUS
10
63.9991699999999994
20
-123.5191769999999991
11
64.1009009999999932
21
-123.5464429999999965
0
LINE
8
BLACK
6
CONTINUOUS
10
64.1009009999999932
20
-123.5464429999999965
11
64.1535619999999938
21
-123.5464470000000006
0
LINE
8
BLACK
6
CONTINUOUS
10
64.1535619999999938
20
-123.5464470000000006
11
72.6785529999999937
21
-123.5464470000000006
0
LINE
8
BLACK
6
CONTINUOUS
10
72.6785529999999937
20
-123.5464470000000006
11
81.2035539999999969
21
-123.5464470000000006
0
LINE
8
BLACK
6
CONTINUOUS
10
81.2035539999999969
20
-123.5464470000000006
11
81.2035750000000007
21
-123.5464529999999996
0
LINE
8
BLACK
6
CONTINUOUS
10
81.2035750000000007
20
-123.5464529999999996
11
81.2561839999999904
21
-123.5464399999999898
0
LINE
8
BLACK
6
CONTINUOUS
10
81.2561839999999904
20
-123.5464399999999898
11
81.3579119999999989
21
-123.5191599999999994
0
LINE
8
BLACK
6
CONTINUOUS
10
81.3579119999999989
20
-123.5191599999999994
11
81.449118999999996
21
-123.4664889999999957
0
LINE
8
BLACK
6
CONTINUOUS
10
81.449118999999996
20
-123.4664889999999957
11
81.5235919999999936
21
-123.392013999999989
0
LINE
8
BLACK
6
CONTINUOUS
10
81.5235919999999936
20
-123.392013999999989
11
81.5762619999999998
21
-123.3008069999999918
0
LINE
8
BLACK
6
CONTINUOUS
10
81.5762619999999998
20
-123.3008069999999918
11
81.6035409999999928
21
-123.1990789999999976
0
LINE
8
BLACK
6
CONTINUOUS
10
81.6035409999999928
20
-123.1990789999999976
11
81.6035540000000026
21
-123.1464179999999971
0
LINE
8
BLACK
6
CONTINUOUS
10
81.6035540000000026
20
-123.1464179999999971
11
81.6035540000000026
21
-112.1464459999999974
0
LINE
8
BLACK
6
CONTINUOUS
10
81.6035540000000026
20
-112.1464459999999974
11
81.60355899999999
21
-112.1464299999999952
0
LINE
8
BLACK
6
CONTINUOUS
10
81.60355899999999
20
-112.1464299999999952
11
81.6185660000000013
21
-112.0129439999999903
0
LINE
8
BLACK
6
CONTINUOUS
10
81.6185660000000013
20
-112.0129439999999903
11
81.6629259999999988
21
-111.8861029999999914
0
LINE
8
BLACK
6
CONTINUOUS
10
81.6629259999999988
20
-111.8861029999999914
11
81.7344080000000019
21
-111.772318999999996
0
LINE
8
BLACK
6
CONTINUOUS
10
81.7344080000000019
20
-111.772318999999996
11
81.8294250000000005
21
-111.6773029999999949
0
LINE
8
BLACK
6
CONTINUOUS
10
81.8294250000000005
20
-111.6773029999999949
11
81.943208999999996
21
-111.6058219999999892
0
LINE
8
BLACK
6
CONTINUOUS
10
81.943208999999996
20
-111.6058219999999892
11
82.0700509999999923
21
-111.5614640000000009
0
LINE
8
BLACK
6
CONTINUOUS
10
82.0700509999999923
20
-111.5614640000000009
11
82.2034979999999962
21
-111.5464629999999886
0
LINE
8
BLACK
6
CONTINUOUS
10
82.2034979999999962
20
-111.5464629999999886
11
82.2035529999999994
21
-111.5464459999999889
0
LINE
8
BLACK
6
CONTINUOUS
10
82.2035529999999994
20
-111.5464459999999889
11
91.7285529999999909
21
-111.5464459999999889
0
LINE
8
BLACK
6
CONTINUOUS
10
91.7285529999999909
20
-111.5464459999999889
11
100.4224139999999892
21
-111.5464459999999889
0
LINE
8
BLACK
6
CONTINUOUS
10
100.4224139999999892
20
-111.5464459999999889
11
100.4224169999999958
21
-111.5464470000000006
0
LINE
8
BLACK
6
CONTINUOUS
10
100.4224169999999958
20
-111.5464470000000006
11
100.5386659999999921
21
-111.557818999999995
0
LINE
8
BLACK
6
CONTINUOUS
10
100.5386659999999921
20
-111.557818999999995
11
100.6505109999999945
21
-111.5914959999999923
0
LINE
8
BLACK
6
CONTINUOUS
10
100.6505109999999945
20
-111.5914959999999923
11
100.7537129999999905
21
-111.6462039999999973
0
LINE
8
BLACK
6
CONTINUOUS
10
100.7537129999999905
20
-111.6462039999999973
11
100.8443599999999947
21
-111.7198700000000002
0
LINE
8
BLACK
6
CONTINUOUS
10
100.8443599999999947
20
-111.7198700000000002
11
100.9190179999999941
21
-111.8097009999999898
0
LINE
8
BLACK
6
CONTINUOUS
10
100.9190179999999941
20
-111.8097009999999898
11
100.974858999999995
21
-111.9122939999999886
0
LINE
8
BLACK
6
CONTINUOUS
10
100.974858999999995
20
-111.9122939999999886
11
100.9748409999999978
21
-111.9123009999999994
0
LINE
8
BLACK
6
CONTINUOUS
10
100.9748409999999978
20
-111.9123009999999994
11
100.9748409999999978
21
-111.9123049999999893
0
LINE
8
BLACK
6
CONTINUOUS
10
100.9748409999999978
20
-111.9123049999999893
11
100.974845000000002
21
-111.9123089999999934
0
LINE
8
BLACK
6
CONTINUOUS
10
100.974845000000002
20
-111.9123089999999934
11
109.0022969999999987
21
-130.8525379999999814
0
LINE
8
BLACK
6
CONTINUOUS
10
109.0022969999999987
20
-130.8525379999999814
11
109.0023009999999886
21
-130.8525840000000073
0
LINE
8
BLACK
6
CONTINUOUS
10
109.0023009999999886
20
-130.8525840000000073
11
109.0206559999999882
21
-130.8958059999999932
0
LINE
8
BLACK
6
CONTINUOUS
10
109.0206559999999882
20
-130.8958059999999932
11
109.0764190000000013
21
-130.9715019999999868
0
LINE
8
BLACK
6
CONTINUOUS
10
109.0764190000000013
20
-130.9715019999999868
11
109.1482120000000009
21
-131.0322079999999971
0
LINE
8
BLACK
6
CONTINUOUS
10
109.1482120000000009
20
-131.0322079999999971
11
109.2321219999999897
21
-131.0746159999999918
0
LINE
8
BLACK
6
CONTINUOUS
10
109.2321219999999897
20
-131.0746159999999918
11
109.3235779999999977
21
-131.0964160000000049
0
LINE
8
BLACK
6
CONTINUOUS
10
109.3235779999999977
20
-131.0964160000000049
11
109.3705870000000004
21
-131.0964469999999835
0
LINE
8
BLACK
6
CONTINUOUS
10
109.3705870000000004
20
-131.0964469999999835
11
118.0644439999999946
21
-131.0964469999999835
0
LINE
8
BLACK
6
CONTINUOUS
10
118.0644439999999946
20
-131.0964469999999835
11
127.391964999999999
21
-131.0964469999999835
0
LINE
8
BLACK
6
CONTINUOUS
10
127.391964999999999
20
-131.0964469999999835
11
127.5749919999999946
21
-131.1044369999999901
0
LINE
8
BLACK
6
CONTINUOUS
10
127.5749919999999946
20
-131.1044369999999901
11
127.7566279999999921
21
-131.1283520000000067
0
LINE
8
BLACK
6
CONTINUOUS
10
127.7566279999999921
20
-131.1283520000000067
11
127.9354869999999949
21
-131.1680099999999811
0
LINE
8
BLACK
6
CONTINUOUS
10
127.9354869999999949
20
-131.1680099999999811
11
127.9354889999999898
21
-131.1680029999999988
0
LINE
8
BLACK
6
CONTINUOUS
10
127.9354889999999898
20
-131.1680029999999988
11
127.939787999999993
21
-131.1704849999999851
0
LINE
8
BLACK
6
CONTINUOUS
10
127.939787999999993
20
-131.1704849999999851
11
127.9438049999999976
21
-131.1706259999999986
0
LINE
8
BLACK
6
CONTINUOUS
10
127.9438049999999976
20
-131.1706259999999986
11
145.4738099999999861
21
-137.5510260000000073
0
LINE
8
BLACK
6
CONTINUOUS
10
145.4738099999999861
20
-137.5510260000000073
11
145.6430670000000021
21
-137.6211319999999887
0
LINE
8
BLACK
6
CONTINUOUS
10
145.6430670000000021
20
-137.6211319999999887
11
145.8055699999999888
21
-137.705726999999996
0
LINE
8
BLACK
6
CONTINUOUS
10
145.8055699999999888
20
-137.705726999999996
11
145.9600800000000049
21
-137.8041670000000067
0
LINE
8
BLACK
6
CONTINUOUS
10
145.9600800000000049
20
-137.8041670000000067
11
145.9600819999999999
21
-137.8041639999999859
0
LINE
8
BLACK
6
CONTINUOUS
10
145.9600819999999999
20
-137.8041639999999859
11
145.963279
21
-137.807974999999999
0
LINE
8
BLACK
6
CONTINUOUS
10
145.963279
20
-137.807974999999999
11
145.967014000000006
21
-137.8094849999999951
0
LINE
8
BLACK
6
CONTINUOUS
10
145.967014000000006
20
-137.8094849999999951
11
159.5642939999999896
21
-149.2234080000000063
0
LINE
8
BLACK
6
CONTINUOUS
10
159.5642939999999896
20
-149.2234080000000063
11
159.7492259999999931
21
-149.3782530000000008
0
LINE
8
BLACK
6
CONTINUOUS
10
159.7492259999999931
20
-149.3782530000000008
11
159.7492509999999868
21
-149.3782929999999851
0
LINE
8
BLACK
6
CONTINUOUS
10
159.7492509999999868
20
-149.3782929999999851
11
159.7493039999999951
21
-149.3783180000000073
0
LINE
8
BLACK
6
CONTINUOUS
10
159.7493039999999951
20
-149.3783180000000073
11
159.7492849999999862
21
-149.378341000000006
0
LINE
8
BLACK
6
CONTINUOUS
10
159.7492849999999862
20
-149.378341000000006
11
159.7896279999999933
21
-149.4121910000000071
0
LINE
8
BLACK
6
CONTINUOUS
10
159.7896279999999933
20
-149.4121910000000071
11
159.8850869999999986
21
-149.4566999999999837
0
LINE
8
BLACK
6
CONTINUOUS
10
159.8850869999999986
20
-149.4566999999999837
11
159.9888139999999908
21
-149.4749869999999987
0
LINE
8
BLACK
6
CONTINUOUS
10
159.9888139999999908
20
-149.4749869999999987
11
160.0937389999999994
21
-149.465802999999994
0
LINE
8
BLACK
6
CONTINUOUS
10
160.0937389999999994
20
-149.465802999999994
11
160.1927120000000002
21
-149.4297770000000014
0
LINE
8
BLACK
6
CONTINUOUS
10
160.1927120000000002
20
-149.4297770000000014
11
160.2789879999999982
21
-149.3693619999999953
0
LINE
8
BLACK
6
CONTINUOUS
10
160.2789879999999982
20
-149.3693619999999953
11
160.3128379999999993
21
-149.3290189999999882
0
LINE
8
BLACK
6
CONTINUOUS
10
160.3128379999999993
20
-149.3290189999999882
11
160.3128389999999968
21
-149.3290189999999882
0
LINE
8
BLACK
6
CONTINUOUS
10
160.3128389999999968
20
-149.3290189999999882
11
160.3129399999999976
21
-149.3289479999999969
0
LINE
8
BLACK
6
CONTINUOUS
10
160.3129399999999976
20
-149.3289479999999969
11
160.3129789999999844
21
-149.328852999999981
0
LINE
8
BLACK
6
CONTINUOUS
10
160.3129789999999844
20
-149.328852999999981
11
181.5979799999999784
21
-124.0725809999999996
0
LINE
8
BLACK
6
CONTINUOUS
10
181.5979799999999784
20
-124.0725809999999996
11
181.5991159999999809
21
-124.071873999999994
0
LINE
8
BLACK
6
CONTINUOUS
10
181.5991159999999809
20
-124.071873999999994
11
181.5996519999999919
21
-124.0706479999999914
0
LINE
8
BLACK
6
CONTINUOUS
10
181.5996519999999919
20
-124.0706479999999914
11
181.9137450000000058
21
-123.7167139999999961
0
LINE
8
BLACK
6
CONTINUOUS
10
181.9137450000000058
20
-123.7167139999999961
11
181.9137389999999925
21
-123.7167089999999945
0
LINE
8
BLACK
6
CONTINUOUS
10
181.9137389999999925
20
-123.7167089999999945
11
182.0852899999999863
21
-123.5181690000000003
0
LINE
8
BLACK
6
CONTINUOUS
10
182.0852899999999863
20
-123.5181690000000003
11
182.4008049999999912
21
-123.0988339999999965
0
LINE
8
BLACK
6
CONTINUOUS
10
182.4008049999999912
20
-123.0988339999999965
11
182.6872999999999934
21
-122.6591619999999949
0
LINE
8
BLACK
6
CONTINUOUS
10
182.6872999999999934
20
-122.6591619999999949
11
182.9434689999999932
21
-122.2011569999999949
0
LINE
8
BLACK
6
CONTINUOUS
10
182.9434689999999932
20
-122.2011569999999949
11
183.1681429999999864
21
-121.7269079999999946
0
LINE
8
BLACK
6
CONTINUOUS
10
183.1681429999999864
20
-121.7269079999999946
11
183.3602980000000002
21
-121.2385769999999923
0
LINE
8
BLACK
6
CONTINUOUS
10
183.3602980000000002
20
-121.2385769999999923
11
183.5190580000000011
21
-120.7383899999999954
0
LINE
8
BLACK
6
CONTINUOUS
10
183.5190580000000011
20
-120.7383899999999954
11
183.643698999999998
21
-120.2286299999999954
0
LINE
8
BLACK
6
CONTINUOUS
10
183.643698999999998
20
-120.2286299999999954
11
183.733651999999978
21
-119.7116199999999964
0
LINE
8
BLACK
6
CONTINUOUS
10
183.733651999999978
20
-119.7116199999999964
11
183.7885069999999814
21
-119.1897179999999992
0
LINE
8
BLACK
6
CONTINUOUS
10
183.7885069999999814
20
-119.1897179999999992
11
183.8080139999999858
21
-118.6653029999999944
0
LINE
8
BLACK
6
CONTINUOUS
10
183.8080139999999858
20
-118.6653029999999944
11
183.8000459999999805
21
-118.4030360000000002
0
LINE
8
BLACK
6
CONTINUOUS
10
183.8000459999999805
20
-118.4030360000000002
11
183.800440999999978
21
-118.4013579999999877
0
LINE
8
BLACK
6
CONTINUOUS
10
183.800440999999978
20
-118.4013579999999877
11
183.7999999999999829
21
-118.3999999999999915
0
LINE
8
BLACK
6
CONTINUOUS
10
183.7999999999999829
20
-118.3999999999999915
11
183.7999999999999829
21
-105.8999999999999915
0
LINE
8
BLACK
6
CONTINUOUS
10
183.7999999999999829
20
-105.8999999999999915
11
183.795000999999985
21
-104.4003329999999892
0
LINE
8
BLACK
6
CONTINUOUS
10
183.795000999999985
20
-104.4003329999999892
11
183.7950539999999933
21
-104.4001669999999962
0
LINE
8
BLACK
6
CONTINUOUS
10
183.7950539999999933
20
-104.4001669999999962
11
183.7949999999999875
21
-104.3999999999999915
0
LINE
8
BLACK
6
CONTINUOUS
10
183.7949999999999875
20
-104.3999999999999915
11
183.7949459999999817
21
-58.7999999999999972
0
LINE
8
BLACK
6
CONTINUOUS
10
183.7949459999999817
20
-58.7999999999999972
11
183.7949480000000051
21
-58.799989999999994
0
LINE
8
BLACK
6
CONTINUOUS
10
183.7949480000000051
20
-58.799989999999994
11
183.7949459999999817
21
-58.7999799999999979
0
LINE
8
BLACK
6
CONTINUOUS
10
183.7949459999999817
20
-58.7999799999999979
11
183.7948999999999842
21
-58.7999799999999979
0
LINE
8
BLACK
6
CONTINUOUS
10
183.7948999999999842
20
-58.7999799999999979
11
183.7949099999999873
21
-58.7473249999999965
0
LINE
8
BLACK
6
CONTINUOUS
10
183.7949099999999873
20
-58.7473249999999965
11
183.7676709999999787
21
-58.6455999999999946
0
LINE
8
BLACK
6
CONTINUOUS
10
183.7676709999999787
20
-58.6455999999999946
11
183.715028999999987
21
-58.5543929999999975
0
LINE
8
BLACK
6
CONTINUOUS
10
183.715028999999987
20
-58.5543929999999975
11
183.6405709999999942
21
-58.4799209999999974
0
LINE
8
BLACK
6
CONTINUOUS
10
183.6405709999999942
20
-58.4799209999999974
11
183.5493740000000003
21
-58.4272599999999969
0
LINE
8
BLACK
6
CONTINUOUS
10
183.5493740000000003
20
-58.4272599999999969
11
183.4476549999999975
21
-58.4000009999999961
0
LINE
8
BLACK
6
CONTINUOUS
10
183.4476549999999975
20
-58.4000009999999961
11
183.3949999999999818
21
-58.3999999999999986
0
LINE
8
BLACK
6
CONTINUOUS
10
183.3949999999999818
20
-58.3999999999999986
11
158.8950499999999977
21
-58.3999999999999986
0
LINE
8
BLACK
6
CONTINUOUS
10
158.8950499999999977
20
-58.3999999999999986
11
157.9001309999999876
21
-58.3999999999999986
0
LINE
8
BLACK
6
CONTINUOUS
10
157.9001309999999876
20
-58.3999999999999986
11
148.8789409999999975
21
-58.4350449999999952
0
LINE
8
BLACK
6
CONTINUOUS
10
148.8789409999999975
20
-58.4350449999999952
11
148.8787470000000042
21
-58.434981999999998
0
LINE
8
BLACK
6
CONTINUOUS
10
148.8787470000000042
20
-58.434981999999998
11
148.8785529999999824
21
-58.4350459999999998
0
LINE
8
BLACK
6
CONTINUOUS
10
148.8785529999999824
20
-58.4350459999999998
11
139.3535530000000051
21
-58.4350459999999998
0
LINE
8
BLACK
6
CONTINUOUS
10
139.3535530000000051
20
-58.4350459999999998
11
139.3535479999999893
21
-58.4350439999999978
0
LINE
8
BLACK
6
CONTINUOUS
10
139.3535479999999893
20
-58.4350439999999978
11
139.3535439999999994
21
-58.4350459999999998
0
LINE
8
BLACK
6
CONTINUOUS
10
139.3535439999999994
20
-58.4350459999999998
11
139.2200379999999882
21
-58.4199929999999981
0
LINE
8
BLACK
6
CONTINUOUS
10
139.2200379999999882
20
-58.4199929999999981
11
139.0932279999999821
21
-58.3756119999999967
0
LINE
8
BLACK
6
CONTINUOUS
10
139.0932279999999821
20
-58.3756119999999967
11
138.9794709999999895
21
-58.3041300000000007
0
LINE
8
BLACK
6
CONTINUOUS
10
138.9794709999999895
20
-58.3041300000000007
11
138.8844699999999932
21
-58.2091279999999998
0
LINE
8
BLACK
6
CONTINUOUS
10
138.8844699999999932
20
-58.2091279999999998
11
138.8129869999999926
21
-58.0953710000000001
0
LINE
8
BLACK
6
CONTINUOUS
10
138.8129869999999926
20
-58.0953710000000001
11
138.7686070000000029
21
-57.968560999999994
0
LINE
8
BLACK
6
CONTINUOUS
10
138.7686070000000029
20
-57.968560999999994
11
138.7535539999999799
21
-57.835054999999997
0
LINE
8
BLACK
6
CONTINUOUS
10
138.7535539999999799
20
-57.835054999999997
11
138.7535529999999824
21
-57.835054999999997
0
LINE
8
BLACK
6
CONTINUOUS
10
138.7535529999999824
20
-57.835054999999997
11
138.7535539999999799
21
-57.8350499999999954
0
LINE
8
BLACK
6
CONTINUOUS
10
138.7535539999999799
20
-57.8350499999999954
11
138.7535529999999824
21
-57.8350459999999984
0
LINE
8
BLACK
6
CONTINUOUS
10
138.7535529999999824
20
-57.8350459999999984
11
138.7535529999999824
21
-56.3350459999999984
0
LINE
8
BLACK
6
CONTINUOUS
10
138.7535529999999824
20
-56.3350459999999984
11
138.7535539999999799
21
-56.3350409999999968
0
LINE
8
BLACK
6
CONTINUOUS
10
138.7535539999999799
20
-56.3350409999999968
11
138.7535529999999824
21
-56.3350369999999998
0
LINE
8
BLACK
6
CONTINUOUS
10
138.7535529999999824
20
-56.3350369999999998
11
138.7535539999999799
21
-56.3350369999999998
0
LINE
8
BLACK
6
CONTINUOUS
10
138.7535539999999799
20
-56.3350369999999998
11
138.7535579999999982
21
-56.2823759999999993
0
LINE
8
BLACK
6
CONTINUOUS
10
138.7535579999999982
20
-56.2823759999999993
11
138.7263049999999964
21
-56.1806409999999943
0
LINE
8
BLACK
6
CONTINUOUS
10
138.7263049999999964
20
-56.1806409999999943
11
138.6736459999999909
21
-56.0894270000000006
0
LINE
8
BLACK
6
CONTINUOUS
10
138.6736459999999909
20
-56.0894270000000006
11
138.5991719999999816
21
-56.0149529999999984
0
LINE
8
BLACK
6
CONTINUOUS
10
138.5991719999999816
20
-56.0149529999999984
11
138.5079589999999996
21
-55.9622949999999975
0
LINE
8
BLACK
6
CONTINUOUS
10
138.5079589999999996
20
-55.9622949999999975
11
138.4062239999999804
21
-55.9350419999999957
0
LINE
8
BLACK
6
CONTINUOUS
10
138.4062239999999804
20
-55.9350419999999957
11
138.3535619999999824
21
-55.9350459999999998
0
LINE
8
BLACK
6
CONTINUOUS
10
138.3535619999999824
20
-55.9350459999999998
11
138.353556999999995
21
-55.9350439999999978
0
LINE
8
BLACK
6
CONTINUOUS
10
138.353556999999995
20
-55.9350439999999978
11
138.3535530000000051
21
-55.9350459999999998
0
LINE
8
BLACK
6
CONTINUOUS
10
138.3535530000000051
20
-55.9350459999999998
11
129.8285529999999994
21
-55.9350459999999998
0
LINE
8
BLACK
6
CONTINUOUS
10
129.8285529999999994
20
-55.9350459999999998
11
120.3035529999999937
21
-55.9350459999999998
0
LINE
8
BLACK
6
CONTINUOUS
10
120.3035529999999937
20
-55.9350459999999998
11
120.3035459999999972
21
-55.9350430000000003
0
LINE
8
BLACK
6
CONTINUOUS
10
120.3035459999999972
20
-55.9350430000000003
11
120.3035419999999931
21
-55.9350449999999952
0
LINE
8
BLACK
6
CONTINUOUS
10
120.3035419999999931
20
-55.9350449999999952
11
120.1700369999999936
21
-55.919990999999996
0
LINE
8
BLACK
6
CONTINUOUS
10
120.1700369999999936
20
-55.919990999999996
11
120.0432269999999875
21
-55.8756109999999993
0
LINE
8
BLACK
6
CONTINUOUS
10
120.0432269999999875
20
-55.8756109999999993
11
119.9294709999999924
21
-55.8041279999999986
0
LINE
8
BLACK
6
CONTINUOUS
10
119.9294709999999924
20
-55.8041279999999986
11
119.834469999999996
21
-55.7091269999999952
0
LINE
8
BLACK
6
CONTINUOUS
10
119.834469999999996
20
-55.7091269999999952
11
119.7629879999999929
21
-55.5953699999999955
0
LINE
8
BLACK
6
CONTINUOUS
10
119.7629879999999929
20
-55.5953699999999955
11
119.718607999999989
21
-55.468560999999994
0
LINE
8
BLACK
6
CONTINUOUS
10
119.718607999999989
20
-55.468560999999994
11
119.7035549999999944
21
-55.335054999999997
0
LINE
8
BLACK
6
CONTINUOUS
10
119.7035549999999944
20
-55.335054999999997
11
119.7035529999999994
21
-55.335054999999997
0
LINE
8
BLACK
6
CONTINUOUS
10
119.7035529999999994
20
-55.335054999999997
11
119.7035539999999969
21
-55.3350499999999954
0
LINE
8
BLACK
6
CONTINUOUS
10
119.7035539999999969
20
-55.3350499999999954
11
119.7035529999999994
21
-55.3350459999999984
0
LINE
8
BLACK
6
CONTINUOUS
10
119.7035529999999994
20
-55.3350459999999984
11
119.7035529999999994
21
-49.9964469999999963
0
LINE
8
BLACK
6
CONTINUOUS
10
119.7035529999999994
20
-49.9964469999999963
11
119.7035539999999969
21
-49.9964419999999947
0
LINE
8
BLACK
6
CONTINUOUS
10
119.7035539999999969
20
-49.9964419999999947
11
119.7035529999999994
21
-49.9964379999999977
0
LINE
8
BLACK
6
CONTINUOUS
10
119.7035529999999994
20
-49.9964379999999977
11
119.7035569999999893
21
-49.9437769999999972
0
LINE
8
BLACK
6
CONTINUOUS
10
119.7035569999999893
20
-49.9437769999999972
11
119.6763039999999876
21
-49.8420409999999947
0
LINE
8
BLACK
6
CONTINUOUS
10
119.6763039999999876
20
-49.8420409999999947
11
119.6236459999999937
21
-49.7508279999999985
0
LINE
8
BLACK
6
CONTINUOUS
10
119.6236459999999937
20
-49.7508279999999985
11
119.5491719999999987
21
-49.6763539999999963
0
LINE
8
BLACK
6
CONTINUOUS
10
119.5491719999999987
20
-49.6763539999999963
11
119.4579589999999882
21
-49.6236959999999954
0
LINE
8
BLACK
6
CONTINUOUS
10
119.4579589999999882
20
-49.6236959999999954
11
119.356223
21
-49.5964430000000007
0
LINE
8
BLACK
6
CONTINUOUS
10
119.356223
20
-49.5964430000000007
11
119.3035619999999994
21
-49.5964469999999977
0
LINE
8
BLACK
6
CONTINUOUS
10
119.3035619999999994
20
-49.5964469999999977
11
119.3035569999999979
21
-49.5964449999999957
0
LINE
8
BLACK
6
CONTINUOUS
10
119.3035569999999979
20
-49.5964449999999957
11
119.3035529999999937
21
-49.5964469999999977
0
LINE
8
BLACK
6
CONTINUOUS
10
119.3035529999999937
20
-49.5964469999999977
11
110.7785529999999881
21
-49.5964469999999977
0
LINE
8
BLACK
6
CONTINUOUS
10
110.7785529999999881
20
-49.5964469999999977
11
102.2535529999999966
21
-49.5964469999999977
0
LINE
8
BLACK
6
CONTINUOUS
10
102.2535529999999966
20
-49.5964469999999977
11
102.2535379999999918
21
-49.5964419999999961
0
LINE
8
BLACK
6
CONTINUOUS
10
102.2535379999999918
20
-49.5964419999999961
11
102.2535219999999896
21
-49.5964469999999977
0
LINE
8
BLACK
6
CONTINUOUS
10
102.2535219999999896
20
-49.5964469999999977
11
102.2535219999999896
21
-49.5964529999999968
0
LINE
8
BLACK
6
CONTINUOUS
10
102.2535219999999896
20
-49.5964529999999968
11
102.2008620000000008
21
-49.5964400000000012
0
LINE
8
BLACK
6
CONTINUOUS
10
102.2008620000000008
20
-49.5964400000000012
11
102.0991229999999916
21
-49.6236779999999982
  0
ENDSEC
  0
EOF
