  0
SECTION
  2
HEADER
  9
$ANGBASE
  50
0.0
  9
$ANGDIR
  70
1
  9
$MEASUREMENT
  70
1
  0
ENDSEC
  0
SECTION
  2
TABLES
  0
TABLE
  2
LTYPE
  70
4
  0
LTYPE
  5
40F
  2
CONTINUOUS
  70
0
  3
Solid line
  72
65
  73
0
  40
0.0
  0
LTYPE
  5
410
  2
DASHDOT
 70
0
  3
Dash Dot ____ _ ____ _
 72
65
 73
4
 40
2.0
 49
1.25
 49
-0.25
 49
0.25
 49
-0.25
  0
LTYPE
  5
411
  2
DASHED
 70
0
  3
Dashed __ __ __ __ __
 72
65
 73
2
 40
0.75
 49
0.5
 49
-0.25
  0
LTYPE
  5
43B
  2
DOTTED
 70
0
  3
Dotted .  .  .  .
 72
65
 73
2
 40
0.2
 49
0.0
 49
-0.2
  0
ENDTAB
  0
TABLE
  2
STYLE
  70
4
  0
STYLE
  2
KICAD
  70
0
  40
0
  41
1
  42
1
  50
0
  71
0
  3
isocp.shx
  0
STYLE
  2
KICADB
  70
0
  40
0
  41
1
  42
1
  50
0
  71
0
  3
isocp.shx
  0
STYLE
  2
KICADI
  70
0
  40
0
  41
1
  42
1
  50
15
  71
0
  3
isocp.shx
  0
STYLE
  2
KICADBI
  70
0
  40
0
  41
1
  42
1
  50
15
  71
0
  3
isocp.shx
  0
ENDTAB
  0
TABLE
  2
LAYER
  70
1
  0
LAYER
  2
BLACK
  70
0
  62
7
  6
CONTINUOUS
  0
ENDTAB
  0
ENDSEC
  0
SECTION
  2
ENTITIES
0
LINE
8
BLACK
6
CONTINUOUS
10
161.8078710000000058
20
-94.9179460000000006
11
162.0014559999999904
21
-94.9929410000000018
0
LINE
8
BLACK
6
CONTINUOUS
10
162.0014559999999904
20
-94.9929410000000018
11
162.1779640000000029
21
-95.1022309999999891
0
LINE
8
BLACK
6
CONTINUOUS
10
162.1779640000000029
20
-95.1022309999999891
11
162.3313849999999832
21
-95.2420919999999995
0
LINE
8
BLACK
6
CONTINUOUS
10
162.3313849999999832
20
-95.2420919999999995
11
162.4564939999999922
21
-95.4077640000000002
0
LINE
8
BLACK
6
CONTINUOUS
10
162.4564939999999922
20
-95.4077640000000002
11
162.5490309999999852
21
-95.5936030000000017
0
LINE
8
BLACK
6
CONTINUOUS
10
162.5490309999999852
20
-95.5936030000000017
11
162.605844999999988
21
-95.7932819999999907
0
LINE
8
BLACK
6
CONTINUOUS
10
162.605844999999988
20
-95.7932819999999907
11
162.625
21
-96.
0
LINE
8
BLACK
6
CONTINUOUS
10
162.625
20
-96.
11
162.605844999999988
21
-96.2067179999999951
0
LINE
8
BLACK
6
CONTINUOUS
10
162.605844999999988
20
-96.2067179999999951
11
162.5490309999999852
21
-96.4063969999999983
0
LINE
8
BLACK
6
CONTINUOUS
10
162.5490309999999852
20
-96.4063969999999983
11
162.4564939999999922
21
-96.5922359999999998
0
LINE
8
BLACK
6
CONTINUOUS
10
162.4564939999999922
20
-96.5922359999999998
11
162.3313849999999832
21
-96.7579080000000005
0
LINE
8
BLACK
6
CONTINUOUS
10
162.3313849999999832
20
-96.7579080000000005
11
162.1779640000000029
21
-96.8977689999999967
0
LINE
8
BLACK
6
CONTINUOUS
10
162.1779640000000029
20
-96.8977689999999967
11
162.0014559999999904
21
-97.0070589999999982
0
LINE
8
BLACK
6
CONTINUOUS
10
162.0014559999999904
20
-97.0070589999999982
11
161.8078710000000058
21
-97.0820539999999994
0
LINE
8
BLACK
6
CONTINUOUS
10
161.8078710000000058
20
-97.0820539999999994
11
161.6038020000000017
21
-97.1202009999999945
0
LINE
8
BLACK
6
CONTINUOUS
10
161.6038020000000017
20
-97.1202009999999945
11
161.3961979999999983
21
-97.1202009999999945
0
LINE
8
BLACK
6
CONTINUOUS
10
161.3961979999999983
20
-97.1202009999999945
11
161.1921289999999942
21
-97.0820539999999994
0
LINE
8
BLACK
6
CONTINUOUS
10
161.1921289999999942
20
-97.0820539999999994
11
160.9985439999999812
21
-97.0070589999999982
0
LINE
8
BLACK
6
CONTINUOUS
10
160.9985439999999812
20
-97.0070589999999982
11
160.8220359999999971
21
-96.8977689999999967
0
LINE
8
BLACK
6
CONTINUOUS
10
160.8220359999999971
20
-96.8977689999999967
11
160.6686149999999884
21
-96.7579080000000005
0
LINE
8
BLACK
6
CONTINUOUS
10
160.6686149999999884
20
-96.7579080000000005
11
160.5435059999999794
21
-96.5922359999999998
0
LINE
8
BLACK
6
CONTINUOUS
10
160.5435059999999794
20
-96.5922359999999998
11
160.4509689999999864
21
-96.4063969999999983
0
LINE
8
BLACK
6
CONTINUOUS
10
160.4509689999999864
20
-96.4063969999999983
11
160.3941549999999836
21
-96.2067179999999951
0
LINE
8
BLACK
6
CONTINUOUS
10
160.3941549999999836
20
-96.2067179999999951
11
160.375
21
-96.
0
LINE
8
BLACK
6
CONTINUOUS
10
160.375
20
-96.
11
160.3941549999999836
21
-95.7932819999999907
0
LINE
8
BLACK
6
CONTINUOUS
10
160.3941549999999836
20
-95.7932819999999907
11
160.4509689999999864
21
-95.5936030000000017
0
LINE
8
BLACK
6
CONTINUOUS
10
160.4509689999999864
20
-95.5936030000000017
11
160.5435059999999794
21
-95.4077640000000002
0
LINE
8
BLACK
6
CONTINUOUS
10
160.5435059999999794
20
-95.4077640000000002
11
160.6686149999999884
21
-95.2420919999999995
0
LINE
8
BLACK
6
CONTINUOUS
10
160.6686149999999884
20
-95.2420919999999995
11
160.8220359999999971
21
-95.1022309999999891
0
LINE
8
BLACK
6
CONTINUOUS
10
160.8220359999999971
20
-95.1022309999999891
11
160.9985439999999812
21
-94.9929410000000018
0
LINE
8
BLACK
6
CONTINUOUS
10
160.9985439999999812
20
-94.9929410000000018
11
161.1921289999999942
21
-94.9179460000000006
0
LINE
8
BLACK
6
CONTINUOUS
10
161.1921289999999942
20
-94.9179460000000006
11
161.3961979999999983
21
-94.8797989999999913
0
LINE
8
BLACK
6
CONTINUOUS
10
161.3961979999999983
20
-94.8797989999999913
11
161.6038020000000017
21
-94.8797989999999913
0
LINE
8
BLACK
6
CONTINUOUS
10
161.6038020000000017
20
-94.8797989999999913
11
161.8078710000000058
21
-94.9179460000000006
0
LINE
8
BLACK
6
CONTINUOUS
10
160.4387769999999875
20
-96.1983769999999936
11
160.4932979999999816
21
-96.3899979999999914
0
LINE
8
BLACK
6
CONTINUOUS
10
160.4932979999999816
20
-96.3899979999999914
11
160.5821009999999944
21
-96.5683389999999946
0
LINE
8
BLACK
6
CONTINUOUS
10
160.5821009999999944
20
-96.5683389999999946
11
160.7021619999999871
21
-96.7273249999999933
0
LINE
8
BLACK
6
CONTINUOUS
10
160.7021619999999871
20
-96.7273249999999933
11
160.8493929999999921
21
-96.8615429999999975
0
LINE
8
BLACK
6
CONTINUOUS
10
160.8493929999999921
20
-96.8615429999999975
11
161.018778999999995
21
-96.9664229999999918
0
LINE
8
BLACK
6
CONTINUOUS
10
161.018778999999995
20
-96.9664229999999918
11
161.2045520000000067
21
-97.0383920000000018
0
LINE
8
BLACK
6
CONTINUOUS
10
161.2045520000000067
20
-97.0383920000000018
11
161.4003869999999949
21
-97.0749999999999886
0
LINE
8
BLACK
6
CONTINUOUS
10
161.4003869999999949
20
-97.0749999999999886
11
161.5996130000000051
21
-97.0749999999999886
0
LINE
8
BLACK
6
CONTINUOUS
10
161.5996130000000051
20
-97.0749999999999886
11
161.7954479999999933
21
-97.0383920000000018
0
LINE
8
BLACK
6
CONTINUOUS
10
161.7954479999999933
20
-97.0383920000000018
11
161.981221000000005
21
-96.9664229999999918
0
LINE
8
BLACK
6
CONTINUOUS
10
161.981221000000005
20
-96.9664229999999918
11
162.1506069999999795
21
-96.8615429999999975
0
LINE
8
BLACK
6
CONTINUOUS
10
162.1506069999999795
20
-96.8615429999999975
11
162.2978379999999845
21
-96.7273249999999933
0
LINE
8
BLACK
6
CONTINUOUS
10
162.2978379999999845
20
-96.7273249999999933
11
162.4178990000000056
21
-96.5683389999999946
0
LINE
8
BLACK
6
CONTINUOUS
10
162.4178990000000056
20
-96.5683389999999946
11
162.50670199999999
21
-96.3899979999999914
0
LINE
8
BLACK
6
CONTINUOUS
10
162.50670199999999
20
-96.3899979999999914
11
162.561222999999984
21
-96.1983769999999936
0
LINE
8
BLACK
6
CONTINUOUS
10
162.561222999999984
20
-96.1983769999999936
11
162.5796049999999866
21
-96.
0
LINE
8
BLACK
6
CONTINUOUS
10
162.5796049999999866
20
-96.
11
162.561222999999984
21
-95.8016229999999922
0
LINE
8
BLACK
6
CONTINUOUS
10
162.561222999999984
20
-95.8016229999999922
11
162.50670199999999
21
-95.6100019999999944
0
LINE
8
BLACK
6
CONTINUOUS
10
162.50670199999999
20
-95.6100019999999944
11
162.4178990000000056
21
-95.4316609999999912
0
LINE
8
BLACK
6
CONTINUOUS
10
162.4178990000000056
20
-95.4316609999999912
11
162.2978379999999845
21
-95.2726749999999925
0
LINE
8
BLACK
6
CONTINUOUS
10
162.2978379999999845
20
-95.2726749999999925
11
162.1506069999999795
21
-95.1384570000000025
0
LINE
8
BLACK
6
CONTINUOUS
10
162.1506069999999795
20
-95.1384570000000025
11
161.981221000000005
21
-95.033576999999994
0
LINE
8
BLACK
6
CONTINUOUS
10
161.981221000000005
20
-95.033576999999994
11
161.7954479999999933
21
-94.9616079999999982
0
LINE
8
BLACK
6
CONTINUOUS
10
161.7954479999999933
20
-94.9616079999999982
11
161.5996130000000051
21
-94.9249999999999972
0
LINE
8
BLACK
6
CONTINUOUS
10
161.5996130000000051
20
-94.9249999999999972
11
161.4003869999999949
21
-94.9249999999999972
0
LINE
8
BLACK
6
CONTINUOUS
10
161.4003869999999949
20
-94.9249999999999972
11
161.2045520000000067
21
-94.9616079999999982
0
LINE
8
BLACK
6
CONTINUOUS
10
161.2045520000000067
20
-94.9616079999999982
11
161.018778999999995
21
-95.033576999999994
0
LINE
8
BLACK
6
CONTINUOUS
10
161.018778999999995
20
-95.033576999999994
11
160.8493929999999921
21
-95.1384570000000025
0
LINE
8
BLACK
6
CONTINUOUS
10
160.8493929999999921
20
-95.1384570000000025
11
160.7021619999999871
21
-95.2726749999999925
0
LINE
8
BLACK
6
CONTINUOUS
10
160.7021619999999871
20
-95.2726749999999925
11
160.5821009999999944
21
-95.4316609999999912
0
LINE
8
BLACK
6
CONTINUOUS
10
160.5821009999999944
20
-95.4316609999999912
11
160.4932979999999816
21
-95.6100019999999944
0
LINE
8
BLACK
6
CONTINUOUS
10
160.4932979999999816
20
-95.6100019999999944
11
160.4387769999999875
21
-95.8016229999999922
0
LINE
8
BLACK
6
CONTINUOUS
10
160.4387769999999875
20
-95.8016229999999922
11
160.420394999999985
21
-96.
0
LINE
8
BLACK
6
CONTINUOUS
10
160.420394999999985
20
-96.
11
160.4387769999999875
21
-96.1983769999999936
0
LINE
8
BLACK
6
CONTINUOUS
10
180.8078710000000058
20
-94.9179460000000006
11
181.0014559999999904
21
-94.9929410000000018
0
LINE
8
BLACK
6
CONTINUOUS
10
181.0014559999999904
20
-94.9929410000000018
11
181.1779640000000029
21
-95.1022309999999891
0
LINE
8
BLACK
6
CONTINUOUS
10
181.1779640000000029
20
-95.1022309999999891
11
181.3313849999999832
21
-95.2420919999999995
0
LINE
8
BLACK
6
CONTINUOUS
10
181.3313849999999832
20
-95.2420919999999995
11
181.4564939999999922
21
-95.4077640000000002
0
LINE
8
BLACK
6
CONTINUOUS
10
181.4564939999999922
20
-95.4077640000000002
11
181.5490309999999852
21
-95.5936030000000017
0
LINE
8
BLACK
6
CONTINUOUS
10
181.5490309999999852
20
-95.5936030000000017
11
181.605844999999988
21
-95.7932819999999907
0
LINE
8
BLACK
6
CONTINUOUS
10
181.605844999999988
20
-95.7932819999999907
11
181.625
21
-96.
0
LINE
8
BLACK
6
CONTINUOUS
10
181.625
20
-96.
11
181.605844999999988
21
-96.2067179999999951
0
LINE
8
BLACK
6
CONTINUOUS
10
181.605844999999988
20
-96.2067179999999951
11
181.5490309999999852
21
-96.4063969999999983
0
LINE
8
BLACK
6
CONTINUOUS
10
181.5490309999999852
20
-96.4063969999999983
11
181.4564939999999922
21
-96.5922359999999998
0
LINE
8
BLACK
6
CONTINUOUS
10
181.4564939999999922
20
-96.5922359999999998
11
181.3313849999999832
21
-96.7579080000000005
0
LINE
8
BLACK
6
CONTINUOUS
10
181.3313849999999832
20
-96.7579080000000005
11
181.1779640000000029
21
-96.8977689999999967
0
LINE
8
BLACK
6
CONTINUOUS
10
181.1779640000000029
20
-96.8977689999999967
11
181.0014559999999904
21
-97.0070589999999982
0
LINE
8
BLACK
6
CONTINUOUS
10
181.0014559999999904
20
-97.0070589999999982
11
180.8078710000000058
21
-97.0820539999999994
0
LINE
8
BLACK
6
CONTINUOUS
10
180.8078710000000058
20
-97.0820539999999994
11
180.6038020000000017
21
-97.1202009999999945
0
LINE
8
BLACK
6
CONTINUOUS
10
180.6038020000000017
20
-97.1202009999999945
11
180.3961979999999983
21
-97.1202009999999945
0
LINE
8
BLACK
6
CONTINUOUS
10
180.3961979999999983
20
-97.1202009999999945
11
180.1921289999999942
21
-97.0820539999999994
0
LINE
8
BLACK
6
CONTINUOUS
10
180.1921289999999942
20
-97.0820539999999994
11
179.9985439999999812
21
-97.0070589999999982
0
LINE
8
BLACK
6
CONTINUOUS
10
179.9985439999999812
20
-97.0070589999999982
11
179.8220359999999971
21
-96.8977689999999967
0
LINE
8
BLACK
6
CONTINUOUS
10
179.8220359999999971
20
-96.8977689999999967
11
179.6686149999999884
21
-96.7579080000000005
0
LINE
8
BLACK
6
CONTINUOUS
10
179.6686149999999884
20
-96.7579080000000005
11
179.5435059999999794
21
-96.5922359999999998
0
LINE
8
BLACK
6
CONTINUOUS
10
179.5435059999999794
20
-96.5922359999999998
11
179.4509689999999864
21
-96.4063969999999983
0
LINE
8
BLACK
6
CONTINUOUS
10
179.4509689999999864
20
-96.4063969999999983
11
179.3941549999999836
21
-96.2067179999999951
0
LINE
8
BLACK
6
CONTINUOUS
10
179.3941549999999836
20
-96.2067179999999951
11
179.375
21
-96.
0
LINE
8
BLACK
6
CONTINUOUS
10
179.375
20
-96.
11
179.3941549999999836
21
-95.7932819999999907
0
LINE
8
BLACK
6
CONTINUOUS
10
179.3941549999999836
20
-95.7932819999999907
11
179.4509689999999864
21
-95.5936030000000017
0
LINE
8
BLACK
6
CONTINUOUS
10
179.4509689999999864
20
-95.5936030000000017
11
179.5435059999999794
21
-95.4077640000000002
0
LINE
8
BLACK
6
CONTINUOUS
10
179.5435059999999794
20
-95.4077640000000002
11
179.6686149999999884
21
-95.2420919999999995
0
LINE
8
BLACK
6
CONTINUOUS
10
179.6686149999999884
20
-95.2420919999999995
11
179.8220359999999971
21
-95.1022309999999891
0
LINE
8
BLACK
6
CONTINUOUS
10
179.8220359999999971
20
-95.1022309999999891
11
179.9985439999999812
21
-94.9929410000000018
0
LINE
8
BLACK
6
CONTINUOUS
10
179.9985439999999812
20
-94.9929410000000018
11
180.1921289999999942
21
-94.9179460000000006
0
LINE
8
BLACK
6
CONTINUOUS
10
180.1921289999999942
20
-94.9179460000000006
11
180.3961979999999983
21
-94.8797989999999913
0
LINE
8
BLACK
6
CONTINUOUS
10
180.3961979999999983
20
-94.8797989999999913
11
180.6038020000000017
21
-94.8797989999999913
0
LINE
8
BLACK
6
CONTINUOUS
10
180.6038020000000017
20
-94.8797989999999913
11
180.8078710000000058
21
-94.9179460000000006
0
LINE
8
BLACK
6
CONTINUOUS
10
179.4387769999999875
20
-96.1983769999999936
11
179.4932979999999816
21
-96.3899979999999914
0
LINE
8
BLACK
6
CONTINUOUS
10
179.4932979999999816
20
-96.3899979999999914
11
179.5821009999999944
21
-96.5683389999999946
0
LINE
8
BLACK
6
CONTINUOUS
10
179.5821009999999944
20
-96.5683389999999946
11
179.7021619999999871
21
-96.7273249999999933
0
LINE
8
BLACK
6
CONTINUOUS
10
179.7021619999999871
20
-96.7273249999999933
11
179.8493929999999921
21
-96.8615429999999975
0
LINE
8
BLACK
6
CONTINUOUS
10
179.8493929999999921
20
-96.8615429999999975
11
180.018778999999995
21
-96.9664229999999918
0
LINE
8
BLACK
6
CONTINUOUS
10
180.018778999999995
20
-96.9664229999999918
11
180.2045519999999783
21
-97.0383920000000018
0
LINE
8
BLACK
6
CONTINUOUS
10
180.2045519999999783
20
-97.0383920000000018
11
180.4003869999999949
21
-97.0749999999999886
0
LINE
8
BLACK
6
CONTINUOUS
10
180.4003869999999949
20
-97.0749999999999886
11
180.5996130000000051
21
-97.0749999999999886
0
LINE
8
BLACK
6
CONTINUOUS
10
180.5996130000000051
20
-97.0749999999999886
11
180.7954479999999933
21
-97.0383920000000018
0
LINE
8
BLACK
6
CONTINUOUS
10
180.7954479999999933
20
-97.0383920000000018
11
180.981221000000005
21
-96.9664229999999918
0
LINE
8
BLACK
6
CONTINUOUS
10
180.981221000000005
20
-96.9664229999999918
11
181.1506069999999795
21
-96.8615429999999975
0
LINE
8
BLACK
6
CONTINUOUS
10
181.1506069999999795
20
-96.8615429999999975
11
181.2978379999999845
21
-96.7273249999999933
0
LINE
8
BLACK
6
CONTINUOUS
10
181.2978379999999845
20
-96.7273249999999933
11
181.4178990000000056
21
-96.5683389999999946
0
LINE
8
BLACK
6
CONTINUOUS
10
181.4178990000000056
20
-96.5683389999999946
11
181.50670199999999
21
-96.3899979999999914
0
LINE
8
BLACK
6
CONTINUOUS
10
181.50670199999999
20
-96.3899979999999914
11
181.561222999999984
21
-96.1983769999999936
0
LINE
8
BLACK
6
CONTINUOUS
10
181.561222999999984
20
-96.1983769999999936
11
181.5796049999999866
21
-96.
0
LINE
8
BLACK
6
CONTINUOUS
10
181.5796049999999866
20
-96.
11
181.561222999999984
21
-95.8016229999999922
0
LINE
8
BLACK
6
CONTINUOUS
10
181.561222999999984
20
-95.8016229999999922
11
181.50670199999999
21
-95.6100019999999944
0
LINE
8
BLACK
6
CONTINUOUS
10
181.50670199999999
20
-95.6100019999999944
11
181.4178990000000056
21
-95.4316609999999912
0
LINE
8
BLACK
6
CONTINUOUS
10
181.4178990000000056
20
-95.4316609999999912
11
181.2978379999999845
21
-95.2726749999999925
0
LINE
8
BLACK
6
CONTINUOUS
10
181.2978379999999845
20
-95.2726749999999925
11
181.1506069999999795
21
-95.1384570000000025
0
LINE
8
BLACK
6
CONTINUOUS
10
181.1506069999999795
20
-95.1384570000000025
11
180.981221000000005
21
-95.033576999999994
0
LINE
8
BLACK
6
CONTINUOUS
10
180.981221000000005
20
-95.033576999999994
11
180.7954479999999933
21
-94.9616079999999982
0
LINE
8
BLACK
6
CONTINUOUS
10
180.7954479999999933
20
-94.9616079999999982
11
180.5996130000000051
21
-94.9249999999999972
0
LINE
8
BLACK
6
CONTINUOUS
10
180.5996130000000051
20
-94.9249999999999972
11
180.4003869999999949
21
-94.9249999999999972
0
LINE
8
BLACK
6
CONTINUOUS
10
180.4003869999999949
20
-94.9249999999999972
11
180.2045519999999783
21
-94.9616079999999982
0
LINE
8
BLACK
6
CONTINUOUS
10
180.2045519999999783
20
-94.9616079999999982
11
180.018778999999995
21
-95.033576999999994
0
LINE
8
BLACK
6
CONTINUOUS
10
180.018778999999995
20
-95.033576999999994
11
179.8493929999999921
21
-95.1384570000000025
0
LINE
8
BLACK
6
CONTINUOUS
10
179.8493929999999921
20
-95.1384570000000025
11
179.7021619999999871
21
-95.2726749999999925
0
LINE
8
BLACK
6
CONTINUOUS
10
179.7021619999999871
20
-95.2726749999999925
11
179.5821009999999944
21
-95.4316609999999912
0
LINE
8
BLACK
6
CONTINUOUS
10
179.5821009999999944
20
-95.4316609999999912
11
179.4932979999999816
21
-95.6100019999999944
0
LINE
8
BLACK
6
CONTINUOUS
10
179.4932979999999816
20
-95.6100019999999944
11
179.4387769999999875
21
-95.8016229999999922
0
LINE
8
BLACK
6
CONTINUOUS
10
179.4387769999999875
20
-95.8016229999999922
11
179.420394999999985
21
-96.
0
LINE
8
BLACK
6
CONTINUOUS
10
179.420394999999985
20
-96.
11
179.4387769999999875
21
-96.1983769999999936
0
LINE
8
BLACK
6
CONTINUOUS
10
183.296449999999993
20
-58.3785529999999966
11
183.4132610000000057
21
-58.3917259999999985
0
LINE
8
BLACK
6
CONTINUOUS
10
183.4132610000000057
20
-58.3917259999999985
11
183.5242120000000057
21
-58.4305609999999973
0
LINE
8
BLACK
6
CONTINUOUS
10
183.5242120000000057
20
-58.4305609999999973
11
183.623739999999998
21
-58.4931119999999964
0
LINE
8
BLACK
6
CONTINUOUS
10
183.623739999999998
20
-58.4931119999999964
11
183.7068529999999953
21
-58.5762420000000006
0
LINE
8
BLACK
6
CONTINUOUS
10
183.7068529999999953
20
-58.5762420000000006
11
183.7693840000000023
21
-58.6757829999999956
0
LINE
8
BLACK
6
CONTINUOUS
10
183.7693840000000023
20
-58.6757829999999956
11
183.8081980000000044
21
-58.7867419999999967
0
LINE
8
BLACK
6
CONTINUOUS
10
183.8081980000000044
20
-58.7867419999999967
11
183.8213289999999915
21
-58.9033979999999957
0
LINE
8
BLACK
6
CONTINUOUS
10
183.8213289999999915
20
-58.9033979999999957
11
183.8213930000000005
21
-58.9035519999999977
0
LINE
8
BLACK
6
CONTINUOUS
10
183.8213930000000005
20
-58.9035519999999977
11
183.8223469999999793
21
-95.9999990000000025
0
LINE
8
BLACK
6
CONTINUOUS
10
183.8223469999999793
20
-95.9999990000000025
11
183.8223469999999793
21
-96.
0
LINE
8
BLACK
6
CONTINUOUS
10
183.8223469999999793
20
-96.
11
183.8041680000000042
21
-96.3470769999999987
0
LINE
8
BLACK
6
CONTINUOUS
10
183.8041680000000042
20
-96.3470769999999987
11
183.7498310000000004
21
-96.6903549999999967
0
LINE
8
BLACK
6
CONTINUOUS
10
183.7498310000000004
20
-96.6903549999999967
11
183.6599290000000053
21
-97.0260789999999957
0
LINE
8
BLACK
6
CONTINUOUS
10
183.6599290000000053
20
-97.0260789999999957
11
183.5354470000000049
21
-97.3505739999999946
0
LINE
8
BLACK
6
CONTINUOUS
10
183.5354470000000049
20
-97.3505739999999946
11
183.3777469999999994
21
-97.6602889999999917
0
LINE
8
BLACK
6
CONTINUOUS
10
183.3777469999999994
20
-97.6602889999999917
11
183.1885549999999796
21
-97.9518350000000027
0
LINE
8
BLACK
6
CONTINUOUS
10
183.1885549999999796
20
-97.9518350000000027
11
182.9699410000000057
21
-98.2220219999999955
0
LINE
8
BLACK
6
CONTINUOUS
10
182.9699410000000057
20
-98.2220219999999955
11
182.7242980000000045
21
-98.467891999999992
0
LINE
8
BLACK
6
CONTINUOUS
10
182.7242980000000045
20
-98.467891999999992
11
182.4543129999999849
21
-98.6867549999999909
0
LINE
8
BLACK
6
CONTINUOUS
10
182.4543129999999849
20
-98.6867549999999909
11
182.1629409999999893
21
-98.8762159999999994
0
LINE
8
BLACK
6
CONTINUOUS
10
182.1629409999999893
20
-98.8762159999999994
11
181.8533719999999789
21
-99.0342009999999959
0
LINE
8
BLACK
6
CONTINUOUS
10
181.8533719999999789
20
-99.0342009999999959
11
181.5289909999999907
21
-99.1589819999999946
0
LINE
8
BLACK
6
CONTINUOUS
10
181.5289909999999907
20
-99.1589819999999946
11
181.1933509999999785
21
-99.2491929999999911
0
LINE
8
BLACK
6
CONTINUOUS
10
181.1933509999999785
20
-99.2491929999999911
11
180.8501219999999989
21
-99.3038469999999904
0
LINE
8
BLACK
6
CONTINUOUS
10
180.8501219999999989
20
-99.3038469999999904
11
180.5030619999999999
21
-99.322345999999996
0
LINE
8
BLACK
6
CONTINUOUS
10
180.5030619999999999
20
-99.322345999999996
11
180.1559689999999989
21
-99.3044869999999946
0
LINE
8
BLACK
6
CONTINUOUS
10
180.1559689999999989
20
-99.3044869999999946
11
179.8126409999999851
21
-99.2504659999999888
0
LINE
8
BLACK
6
CONTINUOUS
10
179.8126409999999851
20
-99.2504659999999888
11
179.4768339999999966
21
-99.1608729999999952
0
LINE
8
BLACK
6
CONTINUOUS
10
179.4768339999999966
20
-99.1608729999999952
11
179.1522239999999897
21
-99.0366909999999905
0
LINE
8
BLACK
6
CONTINUOUS
10
179.1522239999999897
20
-99.0366909999999905
11
178.8423640000000034
21
-98.8792759999999902
0
LINE
8
BLACK
6
CONTINUOUS
10
178.8423640000000034
20
-98.8792759999999902
11
178.5506440000000055
21
-98.6903530000000018
0
LINE
8
BLACK
6
CONTINUOUS
10
178.5506440000000055
20
-98.6903530000000018
11
178.2802559999999801
21
-98.4719879999999961
0
LINE
8
BLACK
6
CONTINUOUS
10
178.2802559999999801
20
-98.4719879999999961
11
178.2799870000000055
21
-98.4715249999999997
0
LINE
8
BLACK
6
CONTINUOUS
10
178.2799870000000055
20
-98.4715249999999997
11
178.2797099999999944
21
-98.4713999999999885
0
LINE
8
BLACK
6
CONTINUOUS
10
178.2797099999999944
20
-98.4713999999999885
11
178.2796950000000038
21
-98.4714159999999907
0
LINE
8
BLACK
6
CONTINUOUS
10
178.2796950000000038
20
-98.4714159999999907
11
178.0447130000000016
21
-98.2580449999999956
0
LINE
8
BLACK
6
CONTINUOUS
10
178.0447130000000016
20
-98.2580449999999956
11
177.5505449999999996
21
-97.859579999999994
0
LINE
8
BLACK
6
CONTINUOUS
10
177.5505449999999996
20
-97.859579999999994
11
177.0339029999999809
21
-97.4907209999999935
0
LINE
8
BLACK
6
CONTINUOUS
10
177.0339029999999809
20
-97.4907209999999935
11
176.4965569999999957
21
-97.1527329999999978
0
LINE
8
BLACK
6
CONTINUOUS
10
176.4965569999999957
20
-97.1527329999999978
11
175.9403509999999926
21
-96.8467739999999964
0
LINE
8
BLACK
6
CONTINUOUS
10
175.9403509999999926
20
-96.8467739999999964
11
175.3671909999999912
21
-96.5738929999999982
0
LINE
8
BLACK
6
CONTINUOUS
10
175.3671909999999912
20
-96.5738929999999982
11
174.779042000000004
21
-96.3350259999999992
0
LINE
8
BLACK
6
CONTINUOUS
10
174.779042000000004
20
-96.3350259999999992
11
174.1779209999999978
21
-96.130991999999992
0
LINE
8
BLACK
6
CONTINUOUS
10
174.1779209999999978
20
-96.130991999999992
11
173.5658889999999985
21
-95.962491
0
LINE
8
BLACK
6
CONTINUOUS
10
173.5658889999999985
20
-95.962491
11
172.9450439999999958
21
-95.8300989999999899
0
LINE
8
BLACK
6
CONTINUOUS
10
172.9450439999999958
20
-95.8300989999999899
11
172.3175139999999885
21
-95.73427199999999
0
LINE
8
BLACK
6
CONTINUOUS
10
172.3175139999999885
20
-95.73427199999999
11
171.685451999999998
21
-95.675336999999999
0
LINE
8
BLACK
6
CONTINUOUS
10
171.685451999999998
20
-95.675336999999999
11
171.0510229999999865
21
-95.6534970000000015
0
LINE
8
BLACK
6
CONTINUOUS
10
171.0510229999999865
20
-95.6534970000000015
11
170.416404
21
-95.6688259999999957
0
LINE
8
BLACK
6
CONTINUOUS
10
170.416404
20
-95.6688259999999957
11
169.7837710000000015
21
-95.721271999999999
0
LINE
8
BLACK
6
CONTINUOUS
10
169.7837710000000015
20
-95.721271999999999
11
169.1552910000000054
21
-95.810654999999997
0
LINE
8
BLACK
6
CONTINUOUS
10
169.1552910000000054
20
-95.810654999999997
11
168.5331199999999967
21
-95.9366689999999949
0
LINE
8
BLACK
6
CONTINUOUS
10
168.5331199999999967
20
-95.9366689999999949
11
167.9193909999999903
21
-96.098881999999989
0
LINE
8
BLACK
6
CONTINUOUS
10
167.9193909999999903
20
-96.098881999999989
11
167.3162079999999889
21
-96.2967369999999931
0
LINE
8
BLACK
6
CONTINUOUS
10
167.3162079999999889
20
-96.2967369999999931
11
166.725639000000001
21
-96.5295559999999995
0
LINE
8
BLACK
6
CONTINUOUS
10
166.725639000000001
20
-96.5295559999999995
11
166.1497090000000014
21
-96.7965409999999906
0
LINE
8
BLACK
6
CONTINUOUS
10
166.1497090000000014
20
-96.7965409999999906
11
165.5903930000000059
21
-97.0967759999999913
0
LINE
8
BLACK
6
CONTINUOUS
10
165.5903930000000059
20
-97.0967759999999913
11
165.0496069999999804
21
-97.4292329999999964
0
LINE
8
BLACK
6
CONTINUOUS
10
165.0496069999999804
20
-97.4292329999999964
11
164.5292069999999853
21
-97.7927710000000019
0
LINE
8
BLACK
6
CONTINUOUS
10
164.5292069999999853
20
-97.7927710000000019
11
164.0309769999999787
21
-98.1861439999999988
0
LINE
8
BLACK
6
CONTINUOUS
10
164.0309769999999787
20
-98.1861439999999988
11
163.79381699999999
21
-98.3970929999999981
0
LINE
8
BLACK
6
CONTINUOUS
10
163.79381699999999
20
-98.3970929999999981
11
163.7937149999999917
21
-98.3971370000000007
0
LINE
8
BLACK
6
CONTINUOUS
10
163.7937149999999917
20
-98.3971370000000007
11
163.5277700000000038
21
-98.6260059999999896
0
LINE
8
BLACK
6
CONTINUOUS
10
163.5277700000000038
20
-98.6260059999999896
11
163.238236999999998
21
-98.8260020000000026
0
LINE
8
BLACK
6
CONTINUOUS
10
163.238236999999998
20
-98.8260020000000026
11
162.9291499999999928
21
-98.9942089999999979
0
LINE
8
BLACK
6
CONTINUOUS
10
162.9291499999999928
20
-98.9942089999999979
11
162.6039869999999894
21
-99.1287329999999969
0
LINE
8
BLACK
6
CONTINUOUS
10
162.6039869999999894
20
-99.1287329999999969
11
162.2664049999999918
21
-99.2280609999999967
0
LINE
8
BLACK
6
CONTINUOUS
10
162.2664049999999918
20
-99.2280609999999967
11
161.9202009999999916
21
-99.2910770000000014
0
LINE
8
BLACK
6
CONTINUOUS
10
161.9202009999999916
20
-99.2910770000000014
11
161.5692709999999863
21
-99.3170709999999985
0
LINE
8
BLACK
6
CONTINUOUS
10
161.5692709999999863
20
-99.3170709999999985
11
161.2175609999999892
21
-99.3057499999999891
0
LINE
8
BLACK
6
CONTINUOUS
10
161.2175609999999892
20
-99.3057499999999891
11
160.8690289999999834
21
-99.2572430000000026
0
LINE
8
BLACK
6
CONTINUOUS
10
160.8690289999999834
20
-99.2572430000000026
11
160.5275939999999935
21
-99.1720949999999988
0
LINE
8
BLACK
6
CONTINUOUS
10
160.5275939999999935
20
-99.1720949999999988
11
160.1970979999999827
21
-99.0512629999999916
0
LINE
8
BLACK
6
CONTINUOUS
10
160.1970979999999827
20
-99.0512629999999916
11
159.881259
21
-98.8961070000000007
0
LINE
8
BLACK
6
CONTINUOUS
10
159.881259
20
-98.8961070000000007
11
159.583629000000002
21
-98.7083719999999971
0
LINE
8
BLACK
6
CONTINUOUS
10
159.583629000000002
20
-98.7083719999999971
11
159.3075570000000027
21
-98.4901709999999895
0
LINE
8
BLACK
6
CONTINUOUS
10
159.3075570000000027
20
-98.4901709999999895
11
159.0561469999999815
21
-98.2439569999999947
0
LINE
8
BLACK
6
CONTINUOUS
10
159.0561469999999815
20
-98.2439569999999947
11
158.8322289999999839
21
-97.9724999999999966
0
LINE
8
BLACK
6
CONTINUOUS
10
158.8322289999999839
20
-97.9724999999999966
11
158.6383219999999881
21
-97.6788549999999987
0
LINE
8
BLACK
6
CONTINUOUS
10
158.6383219999999881
20
-97.6788549999999987
11
158.4766050000000064
21
-97.3663239999999917
0
LINE
8
BLACK
6
CONTINUOUS
10
158.4766050000000064
20
-97.3663239999999917
11
158.3488989999999887
21
-97.0384229999999945
0
LINE
8
BLACK
6
CONTINUOUS
10
158.3488989999999887
20
-97.0384229999999945
11
158.2566410000000019
21
-96.6988399999999899
0
LINE
8
BLACK
6
CONTINUOUS
10
158.2566410000000019
20
-96.6988399999999899
11
158.2008669999999881
21
-96.3513969999999915
0
LINE
8
BLACK
6
CONTINUOUS
10
158.2008669999999881
20
-96.3513969999999915
11
158.1822059999999794
21
-96.
0
LINE
8
BLACK
6
CONTINUOUS
10
158.1822059999999794
20
-96.
11
158.182204999999982
21
-96.
0
LINE
8
BLACK
6
CONTINUOUS
10
158.182204999999982
20
-96.
11
158.1822059999999794
21
-95.9999940000000009
0
LINE
8
BLACK
6
CONTINUOUS
10
158.1822059999999794
20
-95.9999940000000009
11
158.182204999999982
21
-95.9999909999999943
0
LINE
8
BLACK
6
CONTINUOUS
10
158.182204999999982
20
-95.9999909999999943
11
158.1949999999999932
21
-58.8999379999999988
0
LINE
8
BLACK
6
CONTINUOUS
10
158.1949999999999932
20
-58.8999379999999988
11
158.1949999999999932
21
-58.8999359999999967
0
LINE
8
BLACK
6
CONTINUOUS
10
158.1949999999999932
20
-58.8999359999999967
11
158.2081739999999854
21
-58.7831289999999953
0
LINE
8
BLACK
6
CONTINUOUS
10
158.2081739999999854
20
-58.7831289999999953
11
158.2470089999999914
21
-58.6721749999999957
0
LINE
8
BLACK
6
CONTINUOUS
10
158.2470089999999914
20
-58.6721749999999957
11
158.3095589999999788
21
-58.5726429999999993
0
LINE
8
BLACK
6
CONTINUOUS
10
158.3095589999999788
20
-58.5726429999999993
11
158.3926869999999951
21
-58.4895229999999984
0
LINE
8
BLACK
6
CONTINUOUS
10
158.3926869999999951
20
-58.4895229999999984
11
158.4922259999999881
21
-58.4269839999999974
0
LINE
8
BLACK
6
CONTINUOUS
10
158.4922259999999881
20
-58.4269839999999974
11
158.6031839999999988
21
-58.3881609999999966
0
LINE
8
BLACK
6
CONTINUOUS
10
158.6031839999999988
20
-58.3881609999999966
11
158.7199999999999989
21
-58.375
0
LINE
8
BLACK
6
CONTINUOUS
10
158.7199999999999989
20
-58.375
11
158.7200019999999938
21
-58.375
0
LINE
8
BLACK
6
CONTINUOUS
10
158.7200019999999938
20
-58.375
11
158.7200039999999888
21
-58.375
0
LINE
8
BLACK
6
CONTINUOUS
10
158.7200039999999888
20
-58.375
11
183.296449999999993
21
-58.3785529999999966
0
LINE
8
BLACK
6
CONTINUOUS
10
158.5366689999999892
20
-58.4573649999999958
11
158.4283599999999979
21
-58.5198919999999987
0
LINE
8
BLACK
6
CONTINUOUS
10
158.4283599999999979
20
-58.5198919999999987
11
158.3399239999999963
21
-58.6083189999999945
0
LINE
8
BLACK
6
CONTINUOUS
10
158.3399239999999963
20
-58.6083189999999945
11
158.2773849999999811
21
-58.7166209999999964
0
LINE
8
BLACK
6
CONTINUOUS
10
158.2773849999999811
20
-58.7166209999999964
11
158.2450059999999894
21
-58.8374179999999996
0
LINE
8
BLACK
6
CONTINUOUS
10
158.2450059999999894
20
-58.8374179999999996
11
158.2450000000000045
21
-58.8999489999999994
0
LINE
8
BLACK
6
CONTINUOUS
10
158.2450000000000045
20
-58.8999489999999994
11
158.2449979999999812
21
-58.899951999999999
0
LINE
8
BLACK
6
CONTINUOUS
10
158.2449979999999812
20
-58.899951999999999
11
158.2450000000000045
21
-58.8999549999999985
0
LINE
8
BLACK
6
CONTINUOUS
10
158.2450000000000045
20
-58.8999549999999985
11
158.2322049999999933
21
-96.
0
LINE
8
BLACK
6
CONTINUOUS
10
158.2322049999999933
20
-96.
11
158.2322059999999908
21
-96.
0
LINE
8
BLACK
6
CONTINUOUS
10
158.2322059999999908
20
-96.
11
158.2321729999999889
21
-96.1735400000000027
0
LINE
8
BLACK
6
CONTINUOUS
10
158.2321729999999889
20
-96.1735400000000027
11
158.2689330000000041
21
-96.5186690000000027
0
LINE
8
BLACK
6
CONTINUOUS
10
158.2689330000000041
20
-96.5186690000000027
11
158.3420399999999972
21
-96.857962999999998
0
LINE
8
BLACK
6
CONTINUOUS
10
158.3420399999999972
20
-96.857962999999998
11
158.4506709999999998
21
-97.1876049999999907
0
LINE
8
BLACK
6
CONTINUOUS
10
158.4506709999999998
20
-97.1876049999999907
11
158.5936049999999966
21
-97.5038879999999892
0
LINE
8
BLACK
6
CONTINUOUS
10
158.5936049999999966
20
-97.5038879999999892
11
158.7692329999999856
21
-97.8032539999999955
0
LINE
8
BLACK
6
CONTINUOUS
10
158.7692329999999856
20
-97.8032539999999955
11
158.9755799999999795
21
-98.0823339999999888
0
LINE
8
BLACK
6
CONTINUOUS
10
158.9755799999999795
20
-98.0823339999999888
11
159.2103249999999832
21
-98.3379899999999907
0
LINE
8
BLACK
6
CONTINUOUS
10
159.2103249999999832
20
-98.3379899999999907
11
159.4708259999999882
21
-98.5673460000000006
0
LINE
8
BLACK
6
CONTINUOUS
10
159.4708259999999882
20
-98.5673460000000006
11
159.7541539999999998
21
-98.7678209999999979
0
LINE
8
BLACK
6
CONTINUOUS
10
159.7541539999999998
20
-98.7678209999999979
11
160.0571209999999951
21
-98.9371599999999916
0
LINE
8
BLACK
6
CONTINUOUS
10
160.0571209999999951
20
-98.9371599999999916
11
160.3763189999999952
21
-99.0734589999999997
0
LINE
8
BLACK
6
CONTINUOUS
10
160.3763189999999952
20
-99.0734589999999997
11
160.7081579999999974
21
-99.175184999999999
0
LINE
8
BLACK
6
CONTINUOUS
10
160.7081579999999974
20
-99.175184999999999
11
161.0489039999999932
21
-99.2411919999999981
0
LINE
8
BLACK
6
CONTINUOUS
10
161.0489039999999932
20
-99.2411919999999981
11
161.394724999999994
21
-99.2707379999999944
0
LINE
8
BLACK
6
CONTINUOUS
10
161.394724999999994
20
-99.2707379999999944
11
161.7417299999999898
21
-99.2634919999999994
0
LINE
8
BLACK
6
CONTINUOUS
10
161.7417299999999898
20
-99.2634919999999994
11
162.0860160000000008
21
-99.2195339999999959
0
LINE
8
BLACK
6
CONTINUOUS
10
162.0860160000000008
20
-99.2195339999999959
11
162.4237090000000023
21
-99.1393589999999989
0
LINE
8
BLACK
6
CONTINUOUS
10
162.4237090000000023
20
-99.1393589999999989
11
162.7510120000000029
21
-99.0238679999999931
0
LINE
8
BLACK
6
CONTINUOUS
10
162.7510120000000029
20
-99.0238679999999931
11
163.0642419999999788
21
-98.8743619999999908
0
LINE
8
BLACK
6
CONTINUOUS
10
163.0642419999999788
20
-98.8743619999999908
11
163.3598749999999882
21
-98.6925219999999968
0
LINE
8
BLACK
6
CONTINUOUS
10
163.3598749999999882
20
-98.6925219999999968
11
163.634586999999982
21
-98.4803929999999923
0
LINE
8
BLACK
6
CONTINUOUS
10
163.634586999999982
20
-98.4803929999999923
11
163.7599129999999832
21
-98.360354000000001
0
LINE
8
BLACK
6
CONTINUOUS
10
163.7599129999999832
20
-98.360354000000001
11
163.7599139999999807
21
-98.360354000000001
0
LINE
8
BLACK
6
CONTINUOUS
10
163.7599139999999807
20
-98.360354000000001
11
163.7603459999999984
21
-98.3601449999999886
0
LINE
8
BLACK
6
CONTINUOUS
10
163.7603459999999984
20
-98.3601449999999886
11
163.7605889999999818
21
-98.3597309999999965
0
LINE
8
BLACK
6
CONTINUOUS
10
163.7605889999999818
20
-98.3597309999999965
11
163.7605899999999792
21
-98.3597309999999965
0
LINE
8
BLACK
6
CONTINUOUS
10
163.7605899999999792
20
-98.3597309999999965
11
164.2491239999999948
21
-97.9502349999999922
0
LINE
8
BLACK
6
CONTINUOUS
10
164.2491239999999948
20
-97.9502349999999922
11
164.7607879999999909
21
-97.5700339999999926
0
LINE
8
BLACK
6
CONTINUOUS
10
164.7607879999999909
20
-97.5700339999999926
11
165.2938279999999907
21
-97.2204320000000024
0
LINE
8
BLACK
6
CONTINUOUS
10
165.2938279999999907
20
-97.2204320000000024
11
165.846414999999979
21
-96.9026269999999954
0
LINE
8
BLACK
6
CONTINUOUS
10
165.846414999999979
20
-96.9026269999999954
11
166.416655999999989
21
-96.6177089999999907
0
LINE
8
BLACK
6
CONTINUOUS
10
166.416655999999989
20
-96.6177089999999907
11
167.0025949999999852
21
-96.3666539999999969
0
LINE
8
BLACK
6
CONTINUOUS
10
167.0025949999999852
20
-96.3666539999999969
11
167.6022229999999809
21
-96.1503239999999977
0
LINE
8
BLACK
6
CONTINUOUS
10
167.6022229999999809
20
-96.1503239999999977
11
168.2134849999999915
21
-95.969459999999998
0
LINE
8
BLACK
6
CONTINUOUS
10
168.2134849999999915
20
-95.969459999999998
11
168.8342849999999942
21
-95.8246819999999957
0
LINE
8
BLACK
6
CONTINUOUS
10
168.8342849999999942
20
-95.8246819999999957
11
169.4624939999999924
21
-95.7164870000000008
0
LINE
8
BLACK
6
CONTINUOUS
10
169.4624939999999924
20
-95.7164870000000008
11
170.0959589999999935
21
-95.6452460000000002
0
LINE
8
BLACK
6
CONTINUOUS
10
170.0959589999999935
20
-95.6452460000000002
11
170.7325069999999982
21
-95.6112019999999916
0
LINE
8
BLACK
6
CONTINUOUS
10
170.7325069999999982
20
-95.6112019999999916
11
171.3699569999999994
21
-95.6144719999999921
0
LINE
8
BLACK
6
CONTINUOUS
10
171.3699569999999994
20
-95.6144719999999921
11
172.0061230000000023
21
-95.6550459999999987
0
LINE
8
BLACK
6
CONTINUOUS
10
172.0061230000000023
20
-95.6550459999999987
11
172.6388230000000021
21
-95.7327839999999952
0
LINE
8
BLACK
6
CONTINUOUS
10
172.6388230000000021
20
-95.7327839999999952
11
173.2658889999999872
21
-95.8474199999999996
0
LINE
8
BLACK
6
CONTINUOUS
10
173.2658889999999872
20
-95.8474199999999996
11
173.885169999999988
21
-95.9985599999999977
0
LINE
8
BLACK
6
CONTINUOUS
10
173.885169999999988
20
-95.9985599999999977
11
174.4945439999999905
21
-96.1856870000000015
0
LINE
8
BLACK
6
CONTINUOUS
10
174.4945439999999905
20
-96.1856870000000015
11
175.091920999999985
21
-96.4081580000000002
0
LINE
8
BLACK
6
CONTINUOUS
10
175.091920999999985
20
-96.4081580000000002
11
175.6752529999999979
21
-96.6652119999999968
0
LINE
8
BLACK
6
CONTINUOUS
10
175.6752529999999979
20
-96.6652119999999968
11
176.2425399999999911
21
-96.9559659999999894
0
LINE
8
BLACK
6
CONTINUOUS
10
176.2425399999999911
20
-96.9559659999999894
11
176.7918379999999843
21
-97.2794249999999892
0
LINE
8
BLACK
6
CONTINUOUS
10
176.7918379999999843
20
-97.2794249999999892
11
177.3212619999999902
21
-97.6344780000000014
0
LINE
8
BLACK
6
CONTINUOUS
10
177.3212619999999902
20
-97.6344780000000014
11
177.8289979999999844
21
-98.0199099999999959
0
LINE
8
BLACK
6
CONTINUOUS
10
177.8289979999999844
20
-98.0199099999999959
11
178.3133049999999855
21
-98.4343969999999899
0
LINE
8
BLACK
6
CONTINUOUS
10
178.3133049999999855
20
-98.4343969999999899
11
178.3133200000000045
21
-98.4343799999999902
0
LINE
8
BLACK
6
CONTINUOUS
10
178.3133200000000045
20
-98.4343799999999902
11
178.3135139999999978
21
-98.4347199999999987
0
LINE
8
BLACK
6
CONTINUOUS
10
178.3135139999999978
20
-98.4347199999999987
11
178.3136619999999937
21
-98.4347860000000026
0
LINE
8
BLACK
6
CONTINUOUS
10
178.3136619999999937
20
-98.4347860000000026
11
178.4411849999999902
21
-98.5493039999999922
0
LINE
8
BLACK
6
CONTINUOUS
10
178.4411849999999902
20
-98.5493039999999922
11
178.7187699999999779
21
-98.7504339999999985
0
LINE
8
BLACK
6
CONTINUOUS
10
178.7187699999999779
20
-98.7504339999999985
11
179.015845999999982
21
-98.9214649999999978
0
LINE
8
BLACK
6
CONTINUOUS
10
179.015845999999982
20
-98.9214649999999978
11
179.329164999999989
21
-99.0605249999999984
0
LINE
8
BLACK
6
CONTINUOUS
10
179.329164999999989
20
-99.0605249999999984
11
179.6552959999999928
21
-99.1660929999999894
0
LINE
8
BLACK
6
CONTINUOUS
10
179.6552959999999928
20
-99.1660929999999894
11
179.9906719999999893
21
-99.2370129999999904
0
LINE
8
BLACK
6
CONTINUOUS
10
179.9906719999999893
20
-99.2370129999999904
11
180.3316209999999842
21
-99.2725089999999994
0
LINE
8
BLACK
6
CONTINUOUS
10
180.3316209999999842
20
-99.2725089999999994
11
180.6744119999999896
21
-99.2721930000000015
0
LINE
8
BLACK
6
CONTINUOUS
10
180.6744119999999896
20
-99.2721930000000015
11
181.0152949999999805
21
-99.2360679999999888
0
LINE
8
BLACK
6
CONTINUOUS
10
181.0152949999999805
20
-99.2360679999999888
11
181.3505389999999977
21
-99.1645299999999992
0
LINE
8
BLACK
6
CONTINUOUS
10
181.3505389999999977
20
-99.1645299999999992
11
181.6764749999999822
21
-99.0583609999999908
0
LINE
8
BLACK
6
CONTINUOUS
10
181.6764749999999822
20
-99.0583609999999908
11
181.9895369999999843
21
-98.9187239999999974
0
LINE
8
BLACK
6
CONTINUOUS
10
181.9895369999999843
20
-98.9187239999999974
11
182.286297999999988
21
-98.7471449999999891
0
LINE
8
BLACK
6
CONTINUOUS
10
182.286297999999988
20
-98.7471449999999891
11
182.5635110000000054
21
-98.545503999999994
0
LINE
8
BLACK
6
CONTINUOUS
10
182.5635110000000054
20
-98.545503999999994
11
182.8181419999999946
21
-98.3160060000000016
0
LINE
8
BLACK
6
CONTINUOUS
10
182.8181419999999946
20
-98.3160060000000016
11
183.0474049999999977
21
-98.0611639999999909
0
LINE
8
BLACK
6
CONTINUOUS
10
183.0474049999999977
20
-98.0611639999999909
11
183.2487909999999829
21
-97.7837650000000025
0
LINE
8
BLACK
6
CONTINUOUS
10
183.2487909999999829
20
-97.7837650000000025
11
183.4200950000000034
21
-97.4868459999999999
0
LINE
8
BLACK
6
CONTINUOUS
10
183.4200950000000034
20
-97.4868459999999999
11
183.559443999999985
21
-97.173655999999994
0
LINE
8
BLACK
6
CONTINUOUS
10
183.559443999999985
20
-97.173655999999994
11
183.6653129999999976
21
-96.8476220000000012
0
LINE
8
BLACK
6
CONTINUOUS
10
183.6653129999999976
20
-96.8476220000000012
11
183.7365419999999858
21
-96.5123119999999943
0
LINE
8
BLACK
6
CONTINUOUS
10
183.7365419999999858
20
-96.5123119999999943
11
183.7723519999999837
21
-96.1713960000000014
0
LINE
8
BLACK
6
CONTINUOUS
10
183.7723519999999837
20
-96.1713960000000014
11
183.7723469999999963
21
-96.
0
LINE
8
BLACK
6
CONTINUOUS
10
183.7723469999999963
20
-96.
11
183.7723469999999963
21
-95.9999990000000025
0
LINE
8
BLACK
6
CONTINUOUS
10
183.7723469999999963
20
-95.9999990000000025
11
183.7713929999999891
21
-58.9035539999999997
0
LINE
8
BLACK
6
CONTINUOUS
10
183.7713929999999891
20
-58.9035539999999997
11
183.7713929999999891
21
-58.9035519999999977
0
LINE
8
BLACK
6
CONTINUOUS
10
183.7713929999999891
20
-58.9035519999999977
11
183.7713929999999891
21
-58.9035499999999956
0
LINE
8
BLACK
6
CONTINUOUS
10
183.7713929999999891
20
-58.9035499999999956
11
183.7713469999999916
21
-58.9035499999999956
0
LINE
8
BLACK
6
CONTINUOUS
10
183.7713469999999916
20
-58.9035499999999956
11
183.7713530000000048
21
-58.8410219999999953
0
LINE
8
BLACK
6
CONTINUOUS
10
183.7713530000000048
20
-58.8410219999999953
11
183.7389989999999784
21
-58.7202229999999972
0
LINE
8
BLACK
6
CONTINUOUS
10
183.7389989999999784
20
-58.7202229999999972
11
183.6764809999999954
21
-58.6119139999999987
0
LINE
8
BLACK
6
CONTINUOUS
10
183.6764809999999954
20
-58.6119139999999987
11
183.5880619999999794
21
-58.5234769999999997
0
LINE
8
BLACK
6
CONTINUOUS
10
183.5880619999999794
20
-58.5234769999999997
11
183.4797659999999837
21
-58.4609379999999987
0
LINE
8
BLACK
6
CONTINUOUS
10
183.4797659999999837
20
-58.4609379999999987
11
183.3589729999999918
21
-58.4285589999999999
0
LINE
8
BLACK
6
CONTINUOUS
10
183.3589729999999918
20
-58.4285589999999999
11
183.2964450000000056
21
-58.4285530000000008
0
LINE
8
BLACK
6
CONTINUOUS
10
183.2964450000000056
20
-58.4285530000000008
11
183.2964429999999822
21
-58.4285519999999963
0
LINE
8
BLACK
6
CONTINUOUS
10
183.2964429999999822
20
-58.4285519999999963
11
183.2964429999999822
21
-58.4285530000000008
0
LINE
8
BLACK
6
CONTINUOUS
10
183.2964429999999822
20
-58.4285530000000008
11
158.7199959999999805
21
-58.4249999999999972
0
LINE
8
BLACK
6
CONTINUOUS
10
158.7199959999999805
20
-58.4249999999999972
11
158.7199949999999831
21
-58.4249989999999997
0
LINE
8
BLACK
6
CONTINUOUS
10
158.7199949999999831
20
-58.4249989999999997
11
158.6574689999999919
21
-58.4249989999999997
0
LINE
8
BLACK
6
CONTINUOUS
10
158.6574689999999919
20
-58.4249989999999997
11
158.5366689999999892
21
-58.4573649999999958
  0
ENDSEC
  0
EOF
