M48
METRIC,TZ
T1C0.750
T2C0.900
T3C1.200
T4C1.700
T5C1.900
T6C2.200
T7C3.000
T8C4.100
%
G90
G05
T1
X180600Y-67500
X183350Y-67500
T2
X176500Y-127250
X178428Y-124952
T3
X173700Y-117700
X180700Y-117700
T4
X68179Y-76521
X68179Y-95571
X68179Y-114621
X77179Y-76521
X77179Y-95571
X77179Y-114621
X87229Y-64521
X87229Y-83571
X87229Y-102631
X96229Y-64521
X96229Y-83571
X96229Y-102631
X106279Y-58521
X106279Y-77571
X106279Y-96621
X113565Y-122171
X115279Y-58521
X115279Y-77571
X115279Y-96621
X122565Y-122171
X125329Y-64860
X125329Y-83910
X125329Y-102960
X134329Y-64860
X134329Y-83910
X134329Y-102960
X135571Y-124461
X144029Y-127539
X144379Y-67360
X144379Y-86410
X144379Y-105460
X153379Y-67360
X153379Y-86410
X153379Y-105460
X159107Y-136947
X164893Y-130053
T5
X67599Y-76521
X67599Y-95571
X67599Y-114621
X77759Y-76521
X77759Y-95571
X77759Y-114621
X86649Y-64521
X86649Y-83571
X86649Y-102631
X96809Y-64521
X96809Y-83571
X96809Y-102631
X105699Y-58521
X105699Y-77571
X105699Y-96621
X112985Y-122171
X115859Y-58521
X115859Y-77571
X115859Y-96621
X123145Y-122171
X124749Y-64860
X124749Y-83910
X124749Y-102960
X134909Y-64860
X134909Y-83910
X134909Y-102960
X135026Y-124263
X143799Y-67360
X143799Y-86410
X143799Y-105460
X144574Y-127737
X153959Y-67360
X153959Y-86410
X153959Y-105460
X158735Y-137392
X165265Y-129608
T6
X161500Y-96000
X180500Y-96000
T7
X68869Y-79061
X68869Y-98111
X68869Y-117161
X70139Y-81601
X70139Y-100651
X70139Y-119701
X75219Y-81601
X75219Y-100651
X75219Y-119701
X76489Y-79061
X76489Y-98111
X76489Y-117161
X87919Y-67061
X87919Y-86111
X87919Y-105171
X89189Y-69601
X89189Y-88651
X89189Y-107711
X94269Y-69601
X94269Y-88651
X94269Y-107711
X95539Y-67061
X95539Y-86111
X95539Y-105171
X106969Y-61061
X106969Y-80111
X106969Y-99161
X108239Y-63601
X108239Y-82651
X108239Y-101701
X113319Y-63601
X113319Y-82651
X113319Y-101701
X114255Y-124711
X114589Y-61061
X114589Y-80111
X114589Y-99161
X115525Y-127251
X120605Y-127251
X121875Y-124711
X126019Y-67400
X126019Y-86450
X126019Y-105500
X127289Y-69940
X127289Y-88990
X127289Y-108040
X132369Y-69940
X132369Y-88990
X132369Y-108040
X133639Y-67400
X133639Y-86450
X133639Y-105500
X135351Y-127084
X135676Y-129905
X140449Y-131642
X142511Y-129690
X145069Y-69900
X145069Y-88950
X145069Y-108000
X146339Y-72440
X146339Y-91490
X146339Y-110540
X151419Y-72440
X151419Y-91490
X151419Y-110540
X152689Y-69900
X152689Y-88950
X152689Y-108000
X161497Y-138051
X164259Y-138711
X166395Y-132214
X167524Y-134820
T8
X72679Y-76521
X72679Y-95571
X72679Y-114621
X91729Y-64521
X91729Y-83571
X91729Y-102631
X110779Y-58521
X110779Y-77571
X110779Y-96621
X118065Y-122171
X129829Y-64860
X129829Y-83910
X129829Y-102960
X139800Y-126000
X148879Y-67360
X148879Y-86410
X148879Y-105460
X162000Y-133500
T0
M30
