M48
METRIC,TZ
T1C0.400
T2C0.600
T3C0.750
T4C0.813
T5C1.000
T6C1.092
T7C1.100
T8C1.500
T9C4.000
%
G90
G05
T1
X64400Y-107050
X65150Y-73750
X65545Y-89800
X65545Y-91450
X66272Y-102450
X66300Y-121550
X66764Y-71764
X66800Y-83478
X68000Y-71250
X68302Y-109225
X68327Y-90350
X68449Y-108197
X69950Y-88153
X72800Y-84550
X72977Y-103550
X73050Y-106200
X77060Y-89650
X77115Y-108065
X77298Y-70790
X77450Y-110181
X77900Y-88550
X78261Y-71111
X79679Y-112100
X85350Y-109400
X86027Y-59550
X86029Y-71550
X86029Y-90650
X87092Y-59512
X87455Y-78577
X87464Y-97336
X89175Y-75925
X89388Y-95888
X91100Y-110315
X91792Y-91550
X91850Y-94250
X92325Y-72600
X94500Y-57400
X96087Y-97465
X96494Y-59090
X96555Y-78677
X97205Y-97465
X97700Y-58500
X97750Y-78650
X98729Y-101250
X100322Y-97822
X101950Y-103597
X102700Y-93600
X102748Y-72450
X102748Y-75176
X102748Y-90900
X102750Y-56577
X103538Y-57450
X103538Y-70050
X103538Y-77800
X103538Y-89400
X103538Y-96950
X104350Y-103550
X104372Y-65450
X104372Y-84600
X104400Y-111950
X104850Y-54050
X105350Y-91600
X105550Y-73626
X105803Y-53749
X106302Y-72578
X106377Y-91600
X110842Y-66600
X110876Y-85550
X110900Y-88200
X112450Y-129100
X113564Y-117178
X113807Y-55844
X114100Y-119700
X114917Y-90228
X115110Y-91716
X115260Y-53850
X115950Y-72150
X117050Y-72000
X117779Y-94150
X119300Y-82350
X119300Y-106950
X122850Y-116500
X123422Y-71750
X123422Y-74850
X123422Y-90800
X123450Y-110050
X123700Y-59750
X124148Y-78700
X124200Y-97850
X124300Y-116497
X125150Y-129450
X125200Y-59800
X125500Y-78800
X125652Y-97814
X129500Y-110009
X129892Y-91850
X129892Y-94500
X130325Y-72950
X134191Y-97259
X134350Y-59950
X134400Y-78800
X135228Y-97793
X135250Y-59140
X135861Y-78839
X136809Y-122900
X136829Y-100700
X137338Y-132682
X137350Y-81850
X137535Y-119814
X137700Y-131750
X138350Y-98550
X138800Y-65050
X139550Y-80057
X139550Y-99050
X142472Y-93400
X142500Y-112350
X143198Y-100400
X143300Y-63150
X143600Y-74350
X144200Y-62550
X144650Y-81700
X144679Y-99977
X146134Y-122400
X146452Y-83900
X146924Y-121268
X148250Y-122002
X148942Y-75400
X148942Y-94450
X148942Y-97050
X151250Y-64300
X151400Y-79200
X152900Y-80000
X153816Y-100366
X154400Y-62500
X154650Y-130659
X154700Y-133150
X154968Y-100246
X155879Y-102700
X155975Y-79400
X156629Y-81473
X157440Y-76000
X157465Y-71351
X157500Y-92300
X157550Y-114030
X157850Y-63500
X158276Y-122248
X158300Y-126250
X159074Y-78700
X159500Y-120773
X159950Y-101500
X159979Y-125991
X160150Y-66000
X160674Y-86600
X161088Y-127138
X161200Y-122800
X162150Y-83850
X162200Y-120150
X162200Y-126712
X163450Y-110700
X163450Y-126450
X168476Y-127600
X168600Y-62877
X168600Y-65480
X168600Y-66919
X168600Y-70398
X168600Y-88385
X168600Y-90848
X168600Y-73100
X168600Y-75600
X168600Y-78200
X168600Y-83300
X168600Y-85800
X168649Y-80942
X168650Y-91910
X169323Y-69251
X169526Y-71700
X169580Y-67700
X169609Y-74553
X169630Y-79226
X169730Y-95210
X172300Y-95200
X172350Y-74581
X172583Y-72576
X172932Y-76202
X173400Y-68000
X173400Y-72000
X173400Y-80669
X173400Y-90848
X173401Y-61752
X173401Y-64274
X173401Y-74569
X173401Y-77900
X173401Y-79558
X173401Y-82123
X173401Y-84623
X173401Y-87152
X173401Y-89766
X174100Y-125152
X174800Y-113300
X175638Y-101339
X175950Y-110750
X177300Y-126100
X177843Y-97550
X179150Y-99550
X179400Y-117700
X180200Y-64100
X180200Y-70900
X182040Y-106450
X182100Y-117750
X183000Y-117100
X183000Y-118400
X183100Y-66400
T2
X65000Y-84000
X65000Y-86100
X65000Y-88000
T3
X159200Y-67300
X161200Y-67300
T4
X68990Y-84600
X68990Y-103600
X68990Y-106200
X76610Y-84600
X76610Y-103600
X76610Y-106200
X87990Y-72600
X87990Y-91600
X87990Y-94200
X95610Y-72600
X95610Y-91600
X95610Y-94200
X106790Y-66600
X106990Y-85600
X106990Y-88200
X114410Y-66600
X114610Y-85600
X114610Y-88200
X125990Y-72939
X125990Y-91935
X125990Y-94485
X126040Y-111035
X133610Y-72939
X133610Y-91935
X133610Y-94485
X133660Y-111035
X144790Y-75439
X144990Y-94435
X145000Y-97039
X145090Y-113585
X152410Y-75439
X152610Y-94435
X152620Y-97039
X152710Y-113585
X167190Y-103500
X167190Y-109500
X174810Y-103500
X174810Y-109500
T5
X163500Y-104000
X163500Y-106500
X163500Y-109000
X178000Y-104000
X178000Y-109000
T6
X165920Y-94300
X168460Y-94300
X171000Y-94300
X173540Y-94300
X176080Y-94300
T7
X163380Y-62330
X163380Y-64870
X163380Y-67410
X163380Y-69950
X163380Y-72490
X163380Y-75030
X163380Y-77570
X163380Y-80110
X163380Y-82650
X163380Y-85190
X163380Y-87730
X163380Y-90270
X178620Y-62330
X178620Y-64870
X178620Y-67410
X178620Y-69950
X178620Y-72490
X178620Y-75030
X178620Y-77570
X178620Y-80110
X178620Y-82650
X178620Y-85190
X178620Y-87730
X178620Y-90270
T9
X82500Y-74025
X82500Y-93100
X129650Y-120050
X140000Y-76504
X151000Y-128750
T5
G00X170150Y-115600
M15
G01X172150Y-115600
M16
G05
G00X170150Y-119800
M15
G01X172150Y-119800
M16
G05
G00X175650Y-115600
M15
G01X176150Y-115600
M16
G05
G00X176150Y-119800
M15
G01X175650Y-119800
M16
G05
G00X178650Y-115600
M15
G01X179150Y-115600
M16
G05
G00X179150Y-119800
M15
G01X178650Y-119800
M16
G05
T8
G00X170350Y-100900
M15
G01X171650Y-100900
M16
G05
G00X170350Y-112100
M15
G01X171650Y-112100
M16
G05
T0
M30
