M48
; DRILL file {KiCad 7.0.9} date Mon May  6 02:44:54 2024
; FORMAT={-:-/ absolute / metric / decimal}
; #@! TF.CreationDate,2024-05-06T02:44:54+05:30
; #@! TF.GenerationSoftware,Kicad,Pcbnew,7.0.9
; #@! TF.FileFunction,NonPlated,1,2,NPTH
FMAT,2
METRIC
; #@! TA.AperFunction,NonPlated,NPTH,ComponentDrill
T1C0.750
; #@! TA.AperFunction,NonPlated,NPTH,ComponentDrill
T2C0.900
; #@! TA.AperFunction,NonPlated,NPTH,ComponentDrill
T3C1.200
; #@! TA.AperFunction,NonPlated,NPTH,ComponentDrill
T4C1.700
; #@! TA.AperFunction,NonPlated,NPTH,ComponentDrill
T5C1.900
; #@! TA.AperFunction,NonPlated,NPTH,ComponentDrill
T6C2.200
; #@! TA.AperFunction,NonPlated,NPTH,ComponentDrill
T7C3.000
; #@! TA.AperFunction,NonPlated,NPTH,ComponentDrill
T8C4.100
%
G90
G05
T1
X180.6Y-67.5
X183.35Y-67.5
T2
X176.5Y-127.25
X178.428Y-124.952
T3
X173.7Y-117.7
X180.7Y-117.7
T4
X68.179Y-76.521
X68.179Y-95.571
X68.179Y-114.621
X77.179Y-76.521
X77.179Y-95.571
X77.179Y-114.621
X87.229Y-64.521
X87.229Y-83.571
X87.229Y-102.631
X96.229Y-64.521
X96.229Y-83.571
X96.229Y-102.631
X106.279Y-58.521
X106.279Y-77.571
X106.279Y-96.621
X113.565Y-122.171
X115.279Y-58.521
X115.279Y-77.571
X115.279Y-96.621
X122.565Y-122.171
X125.329Y-64.86
X125.329Y-83.91
X125.329Y-102.96
X134.329Y-64.86
X134.329Y-83.91
X134.329Y-102.96
X135.571Y-124.461
X144.029Y-127.539
X144.379Y-67.36
X144.379Y-86.41
X144.379Y-105.46
X153.379Y-67.36
X153.379Y-86.41
X153.379Y-105.46
X159.107Y-136.947
X164.893Y-130.053
T5
X67.599Y-76.521
X67.599Y-95.571
X67.599Y-114.621
X77.759Y-76.521
X77.759Y-95.571
X77.759Y-114.621
X86.649Y-64.521
X86.649Y-83.571
X86.649Y-102.631
X96.809Y-64.521
X96.809Y-83.571
X96.809Y-102.631
X105.699Y-58.521
X105.699Y-77.571
X105.699Y-96.621
X112.985Y-122.171
X115.859Y-58.521
X115.859Y-77.571
X115.859Y-96.621
X123.145Y-122.171
X124.749Y-64.86
X124.749Y-83.91
X124.749Y-102.96
X134.909Y-64.86
X134.909Y-83.91
X134.909Y-102.96
X135.026Y-124.263
X143.799Y-67.36
X143.799Y-86.41
X143.799Y-105.46
X144.574Y-127.737
X153.959Y-67.36
X153.959Y-86.41
X153.959Y-105.46
X158.735Y-137.392
X165.265Y-129.608
T6
X161.5Y-96.0
X180.5Y-96.0
T7
X68.869Y-79.061
X68.869Y-98.111
X68.869Y-117.161
X70.139Y-81.601
X70.139Y-100.651
X70.139Y-119.701
X75.219Y-81.601
X75.219Y-100.651
X75.219Y-119.701
X76.489Y-79.061
X76.489Y-98.111
X76.489Y-117.161
X87.919Y-67.061
X87.919Y-86.111
X87.919Y-105.171
X89.189Y-69.601
X89.189Y-88.651
X89.189Y-107.711
X94.269Y-69.601
X94.269Y-88.651
X94.269Y-107.711
X95.539Y-67.061
X95.539Y-86.111
X95.539Y-105.171
X106.969Y-61.061
X106.969Y-80.111
X106.969Y-99.161
X108.239Y-63.601
X108.239Y-82.651
X108.239Y-101.701
X113.319Y-63.601
X113.319Y-82.651
X113.319Y-101.701
X114.255Y-124.711
X114.589Y-61.061
X114.589Y-80.111
X114.589Y-99.161
X115.525Y-127.251
X120.605Y-127.251
X121.875Y-124.711
X126.019Y-67.4
X126.019Y-86.45
X126.019Y-105.5
X127.289Y-69.94
X127.289Y-88.99
X127.289Y-108.04
X132.369Y-69.94
X132.369Y-88.99
X132.369Y-108.04
X133.639Y-67.4
X133.639Y-86.45
X133.639Y-105.5
X135.351Y-127.084
X135.676Y-129.905
X140.449Y-131.642
X142.511Y-129.69
X145.069Y-69.9
X145.069Y-88.95
X145.069Y-108.0
X146.339Y-72.44
X146.339Y-91.49
X146.339Y-110.54
X151.419Y-72.44
X151.419Y-91.49
X151.419Y-110.54
X152.689Y-69.9
X152.689Y-88.95
X152.689Y-108.0
X161.497Y-138.051
X164.259Y-138.711
X166.395Y-132.214
X167.524Y-134.82
T8
X72.679Y-76.521
X72.679Y-95.571
X72.679Y-114.621
X91.729Y-64.521
X91.729Y-83.571
X91.729Y-102.631
X110.779Y-58.521
X110.779Y-77.571
X110.779Y-96.621
X118.065Y-122.171
X129.829Y-64.86
X129.829Y-83.91
X129.829Y-102.96
X139.8Y-126.0
X148.879Y-67.36
X148.879Y-86.41
X148.879Y-105.46
X162.0Y-133.5
T0
M30
