%TF.GenerationSoftware,KiCad,Pcbnew,7.0.9*%
%TF.CreationDate,2024-05-22T11:54:59+05:30*%
%TF.ProjectId,UniFi - Plate,556e6946-6920-42d2-9050-6c6174652e6b,rev?*%
%TF.SameCoordinates,Original*%
%TF.FileFunction,Profile,NP*%
%FSLAX46Y46*%
G04 Gerber Fmt 4.6, Leading zero omitted, Abs format (unit mm)*
G04 Created by KiCad (PCBNEW 7.0.9) date 2024-05-22 11:54:59*
%MOMM*%
%LPD*%
G01*
G04 APERTURE LIST*
%TA.AperFunction,Profile*%
%ADD10C,0.100000*%
%TD*%
%TA.AperFunction,Profile*%
%ADD11C,0.200000*%
%TD*%
G04 APERTURE END LIST*
D10*
X104250000Y-108050000D02*
X105250000Y-108050000D01*
X105250000Y-109050000D01*
X104250000Y-109050000D01*
X104250000Y-108050000D01*
X105950000Y-108050000D02*
X106950000Y-108050000D01*
X106950000Y-109050000D01*
X105950000Y-109050000D01*
X105950000Y-108050000D01*
D11*
X138853554Y-56335046D02*
G75*
G03*
X138353553Y-55835046I-499954J46D01*
G01*
X119803553Y-55335046D02*
X119803553Y-49996447D01*
X145902719Y-137886080D02*
G75*
G03*
X145439608Y-137644995I-1146919J-1637820D01*
G01*
D10*
X107100000Y-111300000D02*
X114500000Y-111300000D01*
X114500000Y-112300000D01*
X107100000Y-112300000D01*
X107100000Y-111300000D01*
D11*
X127391965Y-131196447D02*
X118064444Y-131196447D01*
X119803553Y-49996447D02*
G75*
G03*
X119303553Y-49496447I-499953J47D01*
G01*
D10*
X115200000Y-111300000D02*
X116600000Y-111300000D01*
X116600000Y-112300000D01*
X115200000Y-112300000D01*
X115200000Y-111300000D01*
X117950000Y-108050000D02*
X119750000Y-108050000D01*
X119750000Y-109050000D01*
X117950000Y-109050000D01*
X117950000Y-108050000D01*
X117150000Y-109650000D02*
X119750000Y-109650000D01*
X119750000Y-110650000D01*
X117150000Y-110650000D01*
X117150000Y-109650000D01*
X112750000Y-108050000D02*
X113750000Y-108050000D01*
X113750000Y-109050000D01*
X112750000Y-109050000D01*
X112750000Y-108050000D01*
D11*
X158000000Y-98000000D02*
G75*
G03*
X158500000Y-98500000I500000J0D01*
G01*
X83203553Y-55496447D02*
X91728553Y-55496447D01*
X119803555Y-55335046D02*
G75*
G03*
X120303552Y-55835045I500045J46D01*
G01*
D10*
X101750000Y-106450000D02*
X102750000Y-106450000D01*
X102750000Y-107450000D01*
X101750000Y-107450000D01*
X101750000Y-106450000D01*
D11*
X101253554Y-55496454D02*
G75*
G03*
X101753554Y-54996447I-154J500154D01*
G01*
D10*
X117050000Y-106450000D02*
X118050000Y-106450000D01*
X118050000Y-107450000D01*
X117050000Y-107450000D01*
X117050000Y-106450000D01*
D11*
X108910225Y-130891561D02*
X100882773Y-111951332D01*
X83600000Y-74025000D02*
G75*
G03*
X83600000Y-74025000I-1100000J0D01*
G01*
X91728553Y-111646446D02*
X82203553Y-111646446D01*
D10*
X111950000Y-106450000D02*
X112950000Y-106450000D01*
X112950000Y-107450000D01*
X111950000Y-107450000D01*
X111950000Y-106450000D01*
D11*
X148971433Y-58350000D02*
X157496433Y-58350000D01*
X183900000Y-105900000D02*
X183900000Y-114550000D01*
X129828553Y-55835046D02*
X138353553Y-55835046D01*
X181674447Y-124137024D02*
X181989419Y-123782099D01*
D10*
X114450000Y-108050000D02*
X115450000Y-108050000D01*
X115450000Y-109050000D01*
X114450000Y-109050000D01*
X114450000Y-108050000D01*
D11*
X110778553Y-49496447D02*
X119303553Y-49496447D01*
X139353553Y-58335046D02*
X148971433Y-58350000D01*
D10*
X101750000Y-108050000D02*
X103550000Y-108050000D01*
X103550000Y-109050000D01*
X101750000Y-109050000D01*
X101750000Y-108050000D01*
D11*
X83203553Y-55496453D02*
G75*
G03*
X82703553Y-55996447I-153J-499847D01*
G01*
X108910212Y-130891566D02*
G75*
G03*
X109370584Y-131196447I460388J195166D01*
G01*
D10*
X108550000Y-106450000D02*
X109550000Y-106450000D01*
X109550000Y-107450000D01*
X108550000Y-107450000D01*
X108550000Y-106450000D01*
D11*
X127909601Y-131264601D02*
G75*
G03*
X127391965Y-131196447I-517601J-1931399D01*
G01*
X102253553Y-49496447D02*
X110778553Y-49496447D01*
X82703553Y-66996447D02*
X82703553Y-55996447D01*
X183900000Y-105900000D02*
X183900000Y-99000000D01*
X130750000Y-120050000D02*
G75*
G03*
X130750000Y-120050000I-1100000J0D01*
G01*
D10*
X113650000Y-106450000D02*
X114650000Y-106450000D01*
X114650000Y-107450000D01*
X113650000Y-107450000D01*
X113650000Y-106450000D01*
D11*
X169800000Y-120850000D02*
X169800000Y-114550000D01*
D10*
X105150000Y-106450000D02*
X106150000Y-106450000D01*
X106150000Y-107450000D01*
X105150000Y-107450000D01*
X105150000Y-106450000D01*
X113550000Y-109650000D02*
X114550000Y-109650000D01*
X114550000Y-110650000D01*
X113550000Y-110650000D01*
X113550000Y-109650000D01*
D11*
X72678553Y-123646447D02*
X64153553Y-123646447D01*
D10*
X111850000Y-109650000D02*
X112850000Y-109650000D01*
X112850000Y-110650000D01*
X111850000Y-110650000D01*
X111850000Y-109650000D01*
X101750000Y-109650000D02*
X104350000Y-109650000D01*
X104350000Y-110650000D01*
X101750000Y-110650000D01*
X101750000Y-109650000D01*
D11*
X83600000Y-93100000D02*
G75*
G03*
X83600000Y-93100000I-1100000J0D01*
G01*
D10*
X106750000Y-109650000D02*
X107750000Y-109650000D01*
X107750000Y-110650000D01*
X106750000Y-110650000D01*
X106750000Y-109650000D01*
D11*
X152100000Y-128750000D02*
G75*
G03*
X152100000Y-128750000I-1100000J0D01*
G01*
X183900000Y-99000000D02*
G75*
G03*
X183400000Y-98500000I-500000J0D01*
G01*
D10*
X105000000Y-111300000D02*
X106400000Y-111300000D01*
X106400000Y-112300000D01*
X105000000Y-112300000D01*
X105000000Y-111300000D01*
D11*
X169800000Y-120850000D02*
X183600000Y-120850000D01*
X82203553Y-67496452D02*
G75*
G03*
X82703552Y-66996448I47J499952D01*
G01*
X81203554Y-123646454D02*
G75*
G03*
X81703554Y-123146447I-154J500154D01*
G01*
X141100000Y-76503600D02*
G75*
G03*
X141100000Y-76503600I-1100000J0D01*
G01*
X63653553Y-123146447D02*
X63653553Y-67996448D01*
X183400000Y-98500000D02*
X158500000Y-98500000D01*
D10*
X118750000Y-106450000D02*
X119750000Y-106450000D01*
X119750000Y-107450000D01*
X118750000Y-107450000D01*
X118750000Y-106450000D01*
D11*
X181991907Y-123784247D02*
G75*
G03*
X183590708Y-120847284I-5955107J5145447D01*
G01*
X64153553Y-67496447D02*
X72678553Y-67496447D01*
D10*
X115350000Y-106450000D02*
X116350000Y-106450000D01*
X116350000Y-107450000D01*
X115350000Y-107450000D01*
X115350000Y-106450000D01*
D11*
X120303553Y-55835046D02*
X129828553Y-55835046D01*
D10*
X107650000Y-108050000D02*
X108650000Y-108050000D01*
X108650000Y-109050000D01*
X107650000Y-109050000D01*
X107650000Y-108050000D01*
X110150000Y-109650000D02*
X111150000Y-109650000D01*
X111150000Y-110650000D01*
X110150000Y-110650000D01*
X110150000Y-109650000D01*
D11*
X91728553Y-55496447D02*
X101253554Y-55496447D01*
X183900000Y-114550000D02*
X169800000Y-114550000D01*
D10*
X105050000Y-109650000D02*
X106050000Y-109650000D01*
X106050000Y-110650000D01*
X105050000Y-110650000D01*
X105050000Y-109650000D01*
D11*
X159685028Y-149454925D02*
X159500000Y-149300000D01*
D10*
X103450000Y-106450000D02*
X104450000Y-106450000D01*
X104450000Y-107450000D01*
X103450000Y-107450000D01*
X103450000Y-106450000D01*
D11*
X82203553Y-111646454D02*
G75*
G03*
X81703554Y-112146447I-153J-499846D01*
G01*
D10*
X109350000Y-108050000D02*
X110350000Y-108050000D01*
X110350000Y-109050000D01*
X109350000Y-109050000D01*
X109350000Y-108050000D01*
X108450000Y-109650000D02*
X109450000Y-109650000D01*
X109450000Y-110650000D01*
X108450000Y-110650000D01*
X108450000Y-109650000D01*
D11*
X138853554Y-57835046D02*
G75*
G03*
X139353553Y-58335046I500046J46D01*
G01*
D10*
X106850000Y-106450000D02*
X107850000Y-106450000D01*
X107850000Y-107450000D01*
X106850000Y-107450000D01*
X106850000Y-106450000D01*
D11*
X100882791Y-111951325D02*
G75*
G03*
X100422413Y-111646447I-460391J-195175D01*
G01*
X181674447Y-124137024D02*
X160389445Y-149393296D01*
X81703554Y-112146446D02*
X81703554Y-123146447D01*
X157996433Y-58853567D02*
G75*
G03*
X157496433Y-58353567I-499933J67D01*
G01*
X101753553Y-54996447D02*
X101753553Y-49996447D01*
D10*
X117300000Y-111300000D02*
X118300000Y-111300000D01*
X118300000Y-112300000D01*
X117300000Y-112300000D01*
X117300000Y-111300000D01*
X110250000Y-106450000D02*
X111250000Y-106450000D01*
X111250000Y-107450000D01*
X110250000Y-107450000D01*
X110250000Y-106450000D01*
D11*
X118064444Y-131196447D02*
X109370584Y-131196447D01*
X81203554Y-123646447D02*
X72678553Y-123646447D01*
D10*
X111050000Y-108050000D02*
X112050000Y-108050000D01*
X112050000Y-109050000D01*
X111050000Y-109050000D01*
X111050000Y-108050000D01*
X116150000Y-108050000D02*
X117150000Y-108050000D01*
X117150000Y-109050000D01*
X116150000Y-109050000D01*
X116150000Y-108050000D01*
D11*
X157996433Y-58853567D02*
X158000000Y-98000000D01*
X159685009Y-149454948D02*
G75*
G03*
X160389444Y-149393295I321391J383048D01*
G01*
X72678553Y-67496447D02*
X82203553Y-67496447D01*
X64153553Y-67496353D02*
G75*
G03*
X63653553Y-67996447I47J-500047D01*
G01*
X145439608Y-137644995D02*
X127909603Y-131264595D01*
D10*
X103300000Y-111300000D02*
X104300000Y-111300000D01*
X104300000Y-112300000D01*
X103300000Y-112300000D01*
X103300000Y-111300000D01*
D11*
X159500000Y-149300000D02*
X145902721Y-137886077D01*
X63653553Y-123146447D02*
G75*
G03*
X64153553Y-123646447I500047J47D01*
G01*
X138853553Y-56335046D02*
X138853553Y-57835046D01*
D10*
X115250000Y-109650000D02*
X116250000Y-109650000D01*
X116250000Y-110650000D01*
X115250000Y-110650000D01*
X115250000Y-109650000D01*
D11*
X100422414Y-111646446D02*
X91728553Y-111646446D01*
X102253553Y-49496453D02*
G75*
G03*
X101753553Y-49996447I-153J-499847D01*
G01*
D10*
%TO.C,REF\u002A\u002A*%
X141878600Y-111460000D02*
X141878600Y-99460000D01*
X142878600Y-98460000D02*
X154878600Y-98460000D01*
X154878600Y-112460000D02*
X142878600Y-112460000D01*
X155878600Y-99460000D02*
X155878600Y-111460000D01*
X142878599Y-98460001D02*
G75*
G03*
X141878601Y-99459999I-499999J-499999D01*
G01*
X141878601Y-111460001D02*
G75*
G03*
X142878599Y-112459999I499999J-499999D01*
G01*
X155878599Y-99459999D02*
G75*
G03*
X154878601Y-98460001I-499999J499999D01*
G01*
X154878601Y-112459999D02*
G75*
G03*
X155878599Y-111460001I499999J499999D01*
G01*
X103778600Y-102621400D02*
X103778600Y-90621400D01*
X104778600Y-89621400D02*
X116778600Y-89621400D01*
X116778600Y-103621400D02*
X104778600Y-103621400D01*
X117778600Y-90621400D02*
X117778600Y-102621400D01*
X104778599Y-89621401D02*
G75*
G03*
X103778601Y-90621399I-499999J-499999D01*
G01*
X103778601Y-102621401D02*
G75*
G03*
X104778599Y-103621399I499999J-499999D01*
G01*
X117778599Y-90621399D02*
G75*
G03*
X116778601Y-89621401I-499999J499999D01*
G01*
X116778601Y-103621399D02*
G75*
G03*
X117778599Y-102621401I499999J499999D01*
G01*
X111064600Y-128171400D02*
X111064600Y-116171400D01*
X112064600Y-115171400D02*
X124064600Y-115171400D01*
X124064600Y-129171400D02*
X112064600Y-129171400D01*
X125064600Y-116171400D02*
X125064600Y-128171400D01*
X112064599Y-115171401D02*
G75*
G03*
X111064601Y-116171399I-499999J-499999D01*
G01*
X111064601Y-128171401D02*
G75*
G03*
X112064599Y-129171399I499999J-499999D01*
G01*
X125064599Y-116171399D02*
G75*
G03*
X124064601Y-115171401I-499999J499999D01*
G01*
X124064601Y-129171399D02*
G75*
G03*
X125064599Y-128171401I499999J499999D01*
G01*
X103778600Y-64521400D02*
X103778600Y-52521400D01*
X104778600Y-51521400D02*
X116778600Y-51521400D01*
X116778600Y-65521400D02*
X104778600Y-65521400D01*
X117778600Y-52521400D02*
X117778600Y-64521400D01*
X104778599Y-51521401D02*
G75*
G03*
X103778601Y-52521399I-499999J-499999D01*
G01*
X103778601Y-64521401D02*
G75*
G03*
X104778599Y-65521399I499999J-499999D01*
G01*
X117778599Y-52521399D02*
G75*
G03*
X116778601Y-51521401I-499999J499999D01*
G01*
X116778601Y-65521399D02*
G75*
G03*
X117778599Y-64521401I499999J499999D01*
G01*
X141878600Y-73360000D02*
X141878600Y-61360000D01*
X142878600Y-60360000D02*
X154878600Y-60360000D01*
X154878600Y-74360000D02*
X142878600Y-74360000D01*
X155878600Y-61360000D02*
X155878600Y-73360000D01*
X142878599Y-60360001D02*
G75*
G03*
X141878601Y-61359999I-499999J-499999D01*
G01*
X141878601Y-73360001D02*
G75*
G03*
X142878599Y-74359999I499999J-499999D01*
G01*
X155878599Y-61359999D02*
G75*
G03*
X154878601Y-60360001I-499999J499999D01*
G01*
X154878601Y-74359999D02*
G75*
G03*
X155878599Y-73360001I499999J499999D01*
G01*
X122828600Y-70860000D02*
X122828600Y-58860000D01*
X123828600Y-57860000D02*
X135828600Y-57860000D01*
X135828600Y-71860000D02*
X123828600Y-71860000D01*
X136828600Y-58860000D02*
X136828600Y-70860000D01*
X123828599Y-57860001D02*
G75*
G03*
X122828601Y-58859999I-499999J-499999D01*
G01*
X122828601Y-70860001D02*
G75*
G03*
X123828599Y-71859999I499999J-499999D01*
G01*
X136828599Y-58859999D02*
G75*
G03*
X135828601Y-57860001I-499999J499999D01*
G01*
X135828601Y-71859999D02*
G75*
G03*
X136828599Y-70860001I499999J499999D01*
G01*
X141878600Y-92410000D02*
X141878600Y-80410000D01*
X142878600Y-79410000D02*
X154878600Y-79410000D01*
X154878600Y-93410000D02*
X142878600Y-93410000D01*
X155878600Y-80410000D02*
X155878600Y-92410000D01*
X142878599Y-79410001D02*
G75*
G03*
X141878601Y-80409999I-499999J-499999D01*
G01*
X141878601Y-92410001D02*
G75*
G03*
X142878599Y-93409999I499999J-499999D01*
G01*
X155878599Y-80409999D02*
G75*
G03*
X154878601Y-79410001I-499999J499999D01*
G01*
X154878601Y-93409999D02*
G75*
G03*
X155878599Y-92410001I499999J499999D01*
G01*
X161903247Y-124280963D02*
X171095780Y-131994415D01*
X171219037Y-133403247D02*
X163505585Y-142595780D01*
X152780963Y-133596753D02*
X160494415Y-124404220D01*
X162096753Y-142719037D02*
X152904220Y-135005585D01*
X171219037Y-133403246D02*
G75*
G03*
X171095780Y-131994416I-61629J704415D01*
G01*
X161903246Y-124280963D02*
G75*
G03*
X160494416Y-124404220I-704415J-61629D01*
G01*
X162096754Y-142719037D02*
G75*
G03*
X163505584Y-142595780I704415J61629D01*
G01*
X152780963Y-133596754D02*
G75*
G03*
X152904220Y-135005584I61629J-704415D01*
G01*
X122828600Y-89910000D02*
X122828600Y-77910000D01*
X123828600Y-76910000D02*
X135828600Y-76910000D01*
X135828600Y-90910000D02*
X123828600Y-90910000D01*
X136828600Y-77910000D02*
X136828600Y-89910000D01*
X123828599Y-76910001D02*
G75*
G03*
X122828601Y-77909999I-499999J-499999D01*
G01*
X122828601Y-89910001D02*
G75*
G03*
X123828599Y-90909999I499999J-499999D01*
G01*
X136828599Y-77909999D02*
G75*
G03*
X135828601Y-76910001I-499999J499999D01*
G01*
X135828601Y-90909999D02*
G75*
G03*
X136828599Y-89910001I499999J499999D01*
G01*
X65678600Y-101571400D02*
X65678600Y-89571400D01*
X66678600Y-88571400D02*
X78678600Y-88571400D01*
X78678600Y-102571400D02*
X66678600Y-102571400D01*
X79678600Y-89571400D02*
X79678600Y-101571400D01*
X66678599Y-88571401D02*
G75*
G03*
X65678601Y-89571399I-499999J-499999D01*
G01*
X65678601Y-101571401D02*
G75*
G03*
X66678599Y-102571399I499999J-499999D01*
G01*
X79678599Y-89571399D02*
G75*
G03*
X78678601Y-88571401I-499999J499999D01*
G01*
X78678601Y-102571399D02*
G75*
G03*
X79678599Y-101571401I499999J499999D01*
G01*
X131170031Y-129244015D02*
X135274273Y-117967703D01*
X136555985Y-117370031D02*
X147832297Y-121474273D01*
X143044015Y-134629969D02*
X131767703Y-130525727D01*
X148429969Y-122755985D02*
X144325727Y-134032297D01*
X136555985Y-117370031D02*
G75*
G03*
X135274273Y-117967703I-640856J-298836D01*
G01*
X131170031Y-129244015D02*
G75*
G03*
X131767703Y-130525727I298836J-640856D01*
G01*
X148429969Y-122755985D02*
G75*
G03*
X147832297Y-121474273I-298836J640856D01*
G01*
X143044015Y-134629969D02*
G75*
G03*
X144325727Y-134032297I640856J298836D01*
G01*
X164700000Y-111800000D02*
X164700000Y-101200000D01*
X165700000Y-100200000D02*
X176300000Y-100200000D01*
X176300000Y-112800000D02*
X165700000Y-112800000D01*
X177300000Y-101200000D02*
X177300000Y-111800000D01*
X165700000Y-100200001D02*
G75*
G03*
X164700001Y-101200000I-299999J-700000D01*
G01*
X164700001Y-111800000D02*
G75*
G03*
X165700000Y-112799999I700000J-299999D01*
G01*
X177300000Y-101200000D02*
G75*
G03*
X176300000Y-100200000I-700000J300000D01*
G01*
X176300000Y-112800000D02*
G75*
G03*
X177300000Y-111800000I300000J700000D01*
G01*
X84728600Y-89571400D02*
X84728600Y-77571400D01*
X85728600Y-76571400D02*
X97728600Y-76571400D01*
X97728600Y-90571400D02*
X85728600Y-90571400D01*
X98728600Y-77571400D02*
X98728600Y-89571400D01*
X85728599Y-76571401D02*
G75*
G03*
X84728601Y-77571399I-499999J-499999D01*
G01*
X84728601Y-89571401D02*
G75*
G03*
X85728599Y-90571399I499999J-499999D01*
G01*
X98728599Y-77571399D02*
G75*
G03*
X97728601Y-76571401I-499999J499999D01*
G01*
X97728601Y-90571399D02*
G75*
G03*
X98728599Y-89571401I499999J499999D01*
G01*
X84728600Y-70521400D02*
X84728600Y-58521400D01*
X85728600Y-57521400D02*
X97728600Y-57521400D01*
X97728600Y-71521400D02*
X85728600Y-71521400D01*
X98728600Y-58521400D02*
X98728600Y-70521400D01*
X85728599Y-57521401D02*
G75*
G03*
X84728601Y-58521399I-499999J-499999D01*
G01*
X84728601Y-70521401D02*
G75*
G03*
X85728599Y-71521399I499999J-499999D01*
G01*
X98728599Y-58521399D02*
G75*
G03*
X97728601Y-57521401I-499999J499999D01*
G01*
X97728601Y-71521399D02*
G75*
G03*
X98728599Y-70521401I499999J499999D01*
G01*
X65678600Y-82521400D02*
X65678600Y-70521400D01*
X66678600Y-69521400D02*
X78678600Y-69521400D01*
X78678600Y-83521400D02*
X66678600Y-83521400D01*
X79678600Y-70521400D02*
X79678600Y-82521400D01*
X66678599Y-69521401D02*
G75*
G03*
X65678601Y-70521399I-499999J-499999D01*
G01*
X65678601Y-82521401D02*
G75*
G03*
X66678599Y-83521399I499999J-499999D01*
G01*
X79678599Y-70521399D02*
G75*
G03*
X78678601Y-69521401I-499999J499999D01*
G01*
X78678601Y-83521399D02*
G75*
G03*
X79678599Y-82521401I499999J499999D01*
G01*
X65678600Y-120621400D02*
X65678600Y-108621400D01*
X66678600Y-107621400D02*
X78678600Y-107621400D01*
X78678600Y-121621400D02*
X66678600Y-121621400D01*
X79678600Y-108621400D02*
X79678600Y-120621400D01*
X66678599Y-107621401D02*
G75*
G03*
X65678601Y-108621399I-499999J-499999D01*
G01*
X65678601Y-120621401D02*
G75*
G03*
X66678599Y-121621399I499999J-499999D01*
G01*
X79678599Y-108621399D02*
G75*
G03*
X78678601Y-107621401I-499999J499999D01*
G01*
X78678601Y-121621399D02*
G75*
G03*
X79678599Y-120621401I499999J499999D01*
G01*
X103778600Y-83571400D02*
X103778600Y-71571400D01*
X104778600Y-70571400D02*
X116778600Y-70571400D01*
X116778600Y-84571400D02*
X104778600Y-84571400D01*
X117778600Y-71571400D02*
X117778600Y-83571400D01*
X104778599Y-70571401D02*
G75*
G03*
X103778601Y-71571399I-499999J-499999D01*
G01*
X103778601Y-83571401D02*
G75*
G03*
X104778599Y-84571399I499999J-499999D01*
G01*
X117778599Y-71571399D02*
G75*
G03*
X116778601Y-70571401I-499999J499999D01*
G01*
X116778601Y-84571399D02*
G75*
G03*
X117778599Y-83571401I499999J499999D01*
G01*
X84728600Y-108631400D02*
X84728600Y-96631400D01*
X85728600Y-95631400D02*
X97728600Y-95631400D01*
X97728600Y-109631400D02*
X85728600Y-109631400D01*
X98728600Y-96631400D02*
X98728600Y-108631400D01*
X85728599Y-95631401D02*
G75*
G03*
X84728601Y-96631399I-499999J-499999D01*
G01*
X84728601Y-108631401D02*
G75*
G03*
X85728599Y-109631399I499999J-499999D01*
G01*
X98728599Y-96631399D02*
G75*
G03*
X97728601Y-95631401I-499999J499999D01*
G01*
X97728601Y-109631399D02*
G75*
G03*
X98728599Y-108631401I499999J499999D01*
G01*
X122828600Y-108960000D02*
X122828600Y-96960000D01*
X123828600Y-95960000D02*
X135828600Y-95960000D01*
X135828600Y-109960000D02*
X123828600Y-109960000D01*
X136828600Y-96960000D02*
X136828600Y-108960000D01*
X123828599Y-95960001D02*
G75*
G03*
X122828601Y-96959999I-499999J-499999D01*
G01*
X122828601Y-108960001D02*
G75*
G03*
X123828599Y-109959999I499999J-499999D01*
G01*
X136828599Y-96959999D02*
G75*
G03*
X135828601Y-95960001I-499999J499999D01*
G01*
X135828601Y-109959999D02*
G75*
G03*
X136828599Y-108960001I499999J499999D01*
G01*
%TD*%
M02*
